<?xml version="1.0" encoding="UTF-8"?>
<svg xmlns="http://www.w3.org/2000/svg" xmlns:xlink="http://www.w3.org/1999/xlink" width="16pt" height="16pt" viewBox="0 0 16 16" version="1.1">
<g id="surface1">
<path style=" stroke:none;fill-rule:nonzero;fill:rgb(14.901961%,13.72549%,14.117647%);fill-opacity:1;" d="M 5.972656 0.90625 C 6.1875 0.90625 6.398438 0.746094 6.398438 0.480469 C 6.398438 0.214844 6.238281 0.0546875 5.972656 0.0546875 C 2.773438 0.0546875 0.105469 2.667969 0.105469 5.921875 C 0.105469 6.132812 0.265625 6.347656 0.535156 6.347656 C 0.800781 6.347656 0.960938 6.1875 0.960938 5.921875 C 0.90625 3.148438 3.199219 0.90625 5.972656 0.90625 Z M 2.507812 5.972656 C 2.507812 4.054688 4.054688 2.507812 5.972656 2.507812 C 6.1875 2.507812 6.398438 2.347656 6.398438 2.078125 C 6.398438 1.8125 6.238281 1.652344 5.972656 1.652344 C 3.625 1.652344 1.707031 3.574219 1.707031 5.921875 C 1.707031 6.132812 1.867188 6.347656 2.132812 6.347656 C 2.398438 6.347656 2.507812 6.1875 2.507812 5.972656 Z M 5.972656 3.199219 C 4.480469 3.199219 3.199219 4.425781 3.199219 5.972656 C 3.199219 6.1875 3.359375 6.398438 3.625 6.398438 C 3.894531 6.398438 4.054688 6.238281 4.054688 5.972656 C 4.054688 4.90625 4.90625 4.054688 5.972656 4.054688 C 6.1875 4.054688 6.398438 3.894531 6.398438 3.625 C 6.398438 3.359375 6.1875 3.199219 5.972656 3.199219 Z M 13.546875 2.398438 C 13.386719 2.238281 13.121094 2.238281 12.960938 2.398438 L 7.945312 7.414062 L 6.667969 6.132812 C 6.71875 5.867188 6.667969 5.652344 6.453125 5.441406 C 6.132812 5.121094 5.707031 5.121094 5.386719 5.441406 C 5.066406 5.761719 5.066406 6.1875 5.386719 6.507812 C 5.601562 6.71875 5.8125 6.773438 6.078125 6.71875 L 7.359375 8 L 2.347656 13.011719 C 2.1875 13.171875 2.1875 13.441406 2.347656 13.601562 C 3.839844 15.09375 5.8125 15.945312 7.945312 15.945312 C 10.078125 15.945312 12.054688 15.148438 13.546875 13.601562 C 15.039062 12.105469 15.894531 10.132812 15.894531 8 C 15.894531 5.867188 15.039062 3.894531 13.546875 2.398438 Z M 13.011719 13.011719 C 11.679688 14.347656 9.867188 15.09375 8 15.09375 C 6.238281 15.09375 4.585938 14.453125 3.253906 13.28125 L 13.28125 3.253906 C 14.453125 4.585938 15.09375 6.238281 15.09375 8 C 15.09375 9.867188 14.347656 11.679688 13.011719 13.011719 Z M 13.011719 13.011719 "/>
</g>
</svg>
