<?xml version="1.0" encoding="UTF-8"?>
<svg xmlns="http://www.w3.org/2000/svg" xmlns:xlink="http://www.w3.org/1999/xlink" width="16pt" height="16pt" viewBox="0 0 16 16" version="1.1">
<g id="surface1">
<path style=" stroke:none;fill-rule:nonzero;fill:rgb(0%,0%,0%);fill-opacity:1;" d="M 14.164062 9.148438 C 13.820312 9.148438 13.539062 9.425781 13.539062 9.773438 L 13.539062 12.652344 L 9.699219 8.8125 C 9.453125 8.566406 9.054688 8.566406 8.8125 8.8125 C 8.566406 9.054688 8.566406 9.453125 8.8125 9.699219 L 12.652344 13.539062 L 9.773438 13.539062 C 9.425781 13.539062 9.148438 13.820312 9.148438 14.164062 C 9.148438 14.511719 9.425781 14.792969 9.773438 14.792969 L 14.164062 14.792969 C 14.511719 14.792969 14.792969 14.511719 14.792969 14.164062 L 14.792969 9.773438 C 14.792969 9.425781 14.511719 9.148438 14.164062 9.148438 Z M 3.316406 2.441406 L 6.148438 2.441406 C 6.488281 2.441406 6.765625 2.164062 6.765625 1.824219 C 6.765625 1.484375 6.488281 1.207031 6.148438 1.207031 L 1.824219 1.207031 C 1.484375 1.207031 1.207031 1.484375 1.207031 1.824219 L 1.207031 6.148438 C 1.207031 6.488281 1.484375 6.765625 1.824219 6.765625 C 2.164062 6.765625 2.441406 6.488281 2.441406 6.148438 L 2.441406 3.316406 L 6.222656 7.09375 C 6.464844 7.335938 6.855469 7.335938 7.09375 7.09375 C 7.335938 6.855469 7.335938 6.464844 7.09375 6.222656 Z M 3.316406 2.441406 "/>
</g>
</svg>
