<?xml version="1.0" encoding="UTF-8"?>
<svg xmlns="http://www.w3.org/2000/svg" xmlns:xlink="http://www.w3.org/1999/xlink" width="16pt" height="16pt" viewBox="0 0 16 16" version="1.1">
<g id="surface1">
<path style=" stroke:none;fill-rule:nonzero;fill:rgb(39.607843%,39.607843%,39.607843%);fill-opacity:1;" d="M 14.5 2 L 7.007812 2 L 6.007812 4 L 2.503906 4 C 2.226562 4 2.003906 4.222656 2.003906 4.5 L 2.003906 12.5 C 2.003906 12.777344 2.226562 13 2.503906 13 L 14.5 13 C 14.773438 13 15 12.777344 15 12.5 L 15 2.5 C 15 2.222656 14.773438 2 14.5 2 Z M 14.003906 4 L 7.507812 4 L 8.007812 3 L 14.003906 3 Z M 14.003906 4 "/>
<path style=" stroke:none;fill-rule:nonzero;fill:rgb(94.117647%,93.72549%,94.509804%);fill-opacity:1;" d="M 14 3 L 14 4 L 7.5 4 L 8 3 Z M 14 3 "/>
</g>
</svg>
