<?xml version="1.0" encoding="UTF-8"?>
<svg xmlns="http://www.w3.org/2000/svg" xmlns:xlink="http://www.w3.org/1999/xlink" width="16pt" height="16pt" viewBox="0 0 16 16" version="1.1">
<g id="surface1">
<path style=" stroke:none;fill-rule:nonzero;fill:rgb(0%,0%,0%);fill-opacity:1;" d="M 3.910156 8.304688 L 2.484375 8.304688 L 2.484375 7.507812 L 3.910156 7.507812 Z M 7.898438 4.507812 L 7.101562 4.507812 L 7.101562 3.085938 L 7.898438 3.085938 Z M 3.808594 11.03125 L 4.816406 10.023438 L 5.378906 10.589844 L 4.371094 11.597656 Z M 4.371094 4.214844 L 5.378906 5.222656 L 4.816406 5.785156 L 3.808594 4.777344 Z M 9.773438 5.75 L 7.882812 7.644531 L 7.882812 11.46875 L 6.671875 11.46875 L 6.671875 7.164062 C 6.757812 7.082031 8.917969 4.894531 8.917969 4.894531 Z M 7.167969 14.527344 L 7.167969 13.378906 C 4.203125 13.378906 1.792969 10.964844 1.792969 8 C 1.792969 5.035156 4.203125 2.621094 7.167969 2.621094 C 9.890625 2.621094 12.144531 4.65625 12.496094 7.28125 L 11.679688 6.472656 L 10.867188 7.285156 L 13.109375 9.527344 L 15.355469 7.285156 L 14.546875 6.472656 L 13.660156 7.355469 C 13.335938 4.058594 10.550781 1.472656 7.167969 1.472656 C 3.570312 1.472656 0.644531 4.402344 0.644531 8 C 0.644531 11.597656 3.570312 14.527344 7.167969 14.527344 Z M 7.167969 14.527344 "/>
</g>
</svg>
