<?xml version="1.0" encoding="UTF-8"?>
<svg xmlns="http://www.w3.org/2000/svg" xmlns:xlink="http://www.w3.org/1999/xlink" width="16pt" height="16pt" viewBox="0 0 16 16" version="1.1">
<g id="surface1">
<path style=" stroke:none;fill-rule:nonzero;fill:rgb(96.470588%,96.470588%,96.470588%);fill-opacity:1;" d="M 0 1 L 16 1 L 16 14 L 0 14 Z M 0 1 "/>
<path style=" stroke:none;fill-rule:nonzero;fill:rgb(94.117647%,93.72549%,94.509804%);fill-opacity:1;" d="M 2 3 L 2 12 L 14 12 L 14 3 Z M 5.140625 10 L 4.0625 10 L 4.066406 6 L 3.09375 6.210938 L 3 6.210938 L 3 5.335938 L 5.140625 4.902344 Z M 9.304688 9.085938 L 9.304688 10 L 6 10 L 6 9.140625 L 7.4375 7.765625 C 7.589844 7.621094 7.71875 7.488281 7.820312 7.371094 C 7.921875 7.257812 8.003906 7.148438 8.066406 7.046875 C 8.175781 6.875 8.238281 6.675781 8.234375 6.472656 C 8.238281 6.378906 8.21875 6.28125 8.1875 6.191406 C 8.121094 6.019531 7.984375 5.886719 7.808594 5.832031 C 7.703125 5.796875 7.589844 5.777344 7.480469 5.78125 C 7.359375 5.78125 7.246094 5.792969 7.132812 5.820312 C 7.019531 5.847656 6.914062 5.882812 6.808594 5.933594 C 6.703125 5.980469 6.605469 6.035156 6.511719 6.097656 C 6.417969 6.15625 6.332031 6.222656 6.246094 6.296875 L 6.246094 5.320312 C 6.332031 5.265625 6.421875 5.21875 6.515625 5.175781 C 6.894531 5 7.304688 4.90625 7.71875 4.90625 C 7.996094 4.90625 8.238281 4.941406 8.441406 5.015625 C 8.644531 5.089844 8.8125 5.191406 8.945312 5.316406 C 9.078125 5.445312 9.175781 5.597656 9.242188 5.769531 C 9.304688 5.945312 9.339844 6.132812 9.339844 6.328125 C 9.339844 6.636719 9.257812 6.941406 9.105469 7.207031 C 9.011719 7.371094 8.90625 7.519531 8.78125 7.660156 C 8.632812 7.835938 8.472656 7.996094 8.300781 8.144531 L 7.265625 9.0625 L 7.265625 9.085938 Z M 13.078125 9.070312 C 13.003906 9.257812 12.886719 9.425781 12.734375 9.554688 C 12.5625 9.703125 12.359375 9.816406 12.140625 9.878906 C 11.902344 9.960938 11.613281 10 11.285156 10 C 11.164062 10 11.039062 9.992188 10.917969 9.980469 C 10.800781 9.96875 10.683594 9.953125 10.566406 9.929688 C 10.460938 9.90625 10.355469 9.878906 10.25 9.847656 C 10.164062 9.820312 10.082031 9.785156 10 9.746094 L 10 8.785156 C 10.171875 8.910156 10.367188 9.003906 10.570312 9.0625 C 10.765625 9.117188 10.972656 9.148438 11.175781 9.152344 C 11.46875 9.152344 11.691406 9.089844 11.847656 8.964844 C 12 8.84375 12.085938 8.65625 12.078125 8.460938 C 12.085938 8.238281 11.964844 8.035156 11.765625 7.929688 C 11.65625 7.871094 11.539062 7.828125 11.417969 7.804688 C 11.273438 7.773438 11.125 7.761719 10.976562 7.761719 L 10.523438 7.761719 L 10.523438 6.917969 L 10.941406 6.917969 C 11.113281 6.917969 11.261719 6.902344 11.386719 6.867188 C 11.496094 6.84375 11.597656 6.796875 11.691406 6.730469 C 11.84375 6.625 11.933594 6.449219 11.929688 6.265625 C 11.929688 6.183594 11.914062 6.097656 11.886719 6.019531 C 11.855469 5.945312 11.808594 5.878906 11.746094 5.828125 C 11.679688 5.769531 11.597656 5.722656 11.511719 5.699219 C 11.402344 5.667969 11.285156 5.652344 11.171875 5.652344 C 11.074219 5.652344 10.980469 5.664062 10.886719 5.679688 C 10.796875 5.699219 10.707031 5.726562 10.625 5.753906 C 10.472656 5.8125 10.324219 5.886719 10.191406 5.980469 L 10.191406 5.074219 C 10.347656 5 10.507812 4.941406 10.675781 4.898438 C 10.921875 4.839844 11.171875 4.808594 11.421875 4.8125 C 11.714844 4.8125 11.964844 4.847656 12.171875 4.921875 C 12.375 4.992188 12.539062 5.089844 12.667969 5.207031 C 12.796875 5.324219 12.890625 5.460938 12.945312 5.605469 C 13.007812 5.753906 13.035156 5.90625 13.035156 6.054688 C 13.035156 6.199219 13.015625 6.332031 12.980469 6.464844 C 12.90625 6.730469 12.734375 6.957031 12.5 7.105469 C 12.378906 7.183594 12.226562 7.246094 12.050781 7.289062 L 12.050781 7.304688 C 12.234375 7.328125 12.398438 7.375 12.539062 7.445312 C 12.941406 7.632812 13.195312 8.035156 13.191406 8.480469 C 13.191406 8.691406 13.152344 8.890625 13.078125 9.070312 Z M 13.078125 9.070312 "/>
<path style=" stroke:none;fill-rule:nonzero;fill:rgb(25.882353%,25.882353%,25.882353%);fill-opacity:1;" d="M 1 2 L 1 13 L 15 13 L 15 2 Z M 14 12 L 2 12 L 2 3 L 14 3 Z M 14 12 "/>
<path style=" stroke:none;fill-rule:nonzero;fill:rgb(25.882353%,25.882353%,25.882353%);fill-opacity:1;" d="M 8.300781 8.144531 C 8.488281 7.976562 8.652344 7.816406 8.78125 7.660156 C 8.914062 7.507812 9.023438 7.355469 9.105469 7.207031 C 9.355469 6.773438 9.40625 6.246094 9.242188 5.769531 C 9.179688 5.597656 9.078125 5.445312 8.945312 5.316406 C 8.800781 5.183594 8.628906 5.078125 8.441406 5.015625 C 8.207031 4.9375 7.964844 4.902344 7.71875 4.90625 C 7.304688 4.910156 6.894531 5.003906 6.515625 5.175781 C 6.421875 5.21875 6.332031 5.265625 6.246094 5.320312 L 6.246094 6.296875 C 6.328125 6.226562 6.417969 6.160156 6.511719 6.097656 C 6.703125 5.96875 6.910156 5.875 7.132812 5.820312 C 7.246094 5.792969 7.359375 5.78125 7.480469 5.78125 C 7.601562 5.78125 7.710938 5.796875 7.808594 5.832031 C 7.894531 5.859375 7.976562 5.910156 8.042969 5.972656 C 8.105469 6.035156 8.15625 6.109375 8.1875 6.191406 C 8.21875 6.277344 8.238281 6.371094 8.238281 6.472656 C 8.238281 6.675781 8.179688 6.875 8.066406 7.046875 C 8.003906 7.148438 7.921875 7.257812 7.820312 7.371094 C 7.71875 7.488281 7.589844 7.621094 7.4375 7.765625 L 6 9.140625 L 6 10 L 9.304688 10 L 9.304688 9.085938 L 7.265625 9.085938 L 7.265625 9.0625 Z M 12.898438 7.707031 C 12.796875 7.597656 12.675781 7.507812 12.539062 7.445312 C 12.386719 7.371094 12.222656 7.324219 12.050781 7.304688 L 12.050781 7.289062 C 12.226562 7.246094 12.378906 7.183594 12.5 7.105469 C 12.625 7.023438 12.730469 6.929688 12.808594 6.820312 C 12.886719 6.710938 12.945312 6.59375 12.980469 6.464844 C 13.015625 6.335938 13.035156 6.199219 13.035156 6.058594 C 13.035156 5.902344 13.003906 5.75 12.949219 5.605469 C 12.886719 5.453125 12.792969 5.320312 12.667969 5.210938 C 12.523438 5.082031 12.355469 4.984375 12.171875 4.921875 C 11.929688 4.84375 11.675781 4.804688 11.421875 4.8125 C 11.28125 4.8125 11.144531 4.820312 11.019531 4.835938 C 10.734375 4.867188 10.453125 4.949219 10.191406 5.078125 L 10.191406 5.980469 C 10.324219 5.886719 10.472656 5.8125 10.625 5.753906 C 10.707031 5.726562 10.796875 5.699219 10.886719 5.683594 C 10.980469 5.664062 11.074219 5.652344 11.171875 5.652344 C 11.304688 5.652344 11.417969 5.671875 11.511719 5.699219 C 11.601562 5.726562 11.679688 5.769531 11.75 5.828125 C 11.8125 5.882812 11.855469 5.949219 11.886719 6.023438 C 11.945312 6.183594 11.941406 6.367188 11.871094 6.527344 C 11.832031 6.609375 11.769531 6.679688 11.691406 6.730469 C 11.601562 6.796875 11.496094 6.84375 11.386719 6.867188 C 11.242188 6.90625 11.09375 6.921875 10.941406 6.917969 L 10.527344 6.917969 L 10.527344 7.765625 L 10.976562 7.765625 C 11.136719 7.765625 11.285156 7.78125 11.417969 7.808594 C 11.554688 7.835938 11.671875 7.878906 11.769531 7.933594 C 11.859375 7.988281 11.941406 8.0625 11.996094 8.152344 C 12.054688 8.25 12.082031 8.355469 12.078125 8.464844 C 12.078125 8.675781 12.003906 8.84375 11.847656 8.96875 C 11.691406 9.09375 11.46875 9.15625 11.175781 9.15625 C 11.082031 9.15625 10.984375 9.148438 10.882812 9.132812 C 10.777344 9.117188 10.671875 9.09375 10.570312 9.066406 C 10.367188 9.003906 10.171875 8.910156 10 8.785156 L 10 9.746094 C 10.070312 9.78125 10.152344 9.816406 10.25 9.847656 C 10.347656 9.878906 10.453125 9.90625 10.566406 9.929688 C 10.804688 9.976562 11.042969 10 11.285156 10 C 11.613281 10 11.902344 9.960938 12.140625 9.882812 C 12.382812 9.804688 12.578125 9.695312 12.734375 9.554688 C 12.890625 9.417969 13.007812 9.257812 13.078125 9.074219 C 13.152344 8.890625 13.191406 8.691406 13.191406 8.476562 C 13.195312 8.191406 13.089844 7.917969 12.898438 7.707031 Z M 3 6.210938 L 3.09375 6.210938 L 4.066406 6 L 4.0625 10 L 5.140625 10 L 5.140625 4.902344 L 3 5.335938 Z M 3 6.210938 "/>
</g>
</svg>
