<?xml version="1.0" encoding="UTF-8"?>
<svg xmlns="http://www.w3.org/2000/svg" xmlns:xlink="http://www.w3.org/1999/xlink" width="16pt" height="15pt" viewBox="0 0 16 15" version="1.1">
<g id="surface1">
<path style=" stroke:none;fill-rule:nonzero;fill:rgb(0%,0%,0%);fill-opacity:1;" d="M 14.472656 11.644531 L 13.070312 11.0625 L 13.070312 5.726562 C 13.070312 5.628906 13.011719 5.539062 12.914062 5.5 L 8.257812 3.621094 L 8.257812 1.835938 C 8.257812 1.703125 8.144531 1.59375 8 1.59375 C 7.855469 1.59375 7.742188 1.703125 7.742188 1.835938 L 7.742188 3.621094 L 3.085938 5.5 C 2.996094 5.539062 2.929688 5.625 2.929688 5.726562 L 2.929688 11.0625 L 1.527344 11.644531 C 1.398438 11.699219 1.339844 11.84375 1.398438 11.964844 C 1.453125 12.089844 1.605469 12.144531 1.738281 12.089844 L 3.1875 11.484375 L 7.898438 13.386719 C 7.960938 13.414062 8.035156 13.414062 8.101562 13.386719 L 12.8125 11.484375 L 14.261719 12.089844 C 14.394531 12.144531 14.546875 12.085938 14.601562 11.964844 C 14.660156 11.84375 14.601562 11.699219 14.472656 11.644531 Z M 7.742188 4.148438 L 7.742188 4.753906 C 7.742188 4.886719 7.855469 4.996094 8 4.996094 C 8.144531 4.996094 8.257812 4.886719 8.257812 4.753906 L 8.257812 4.148438 L 12.160156 5.726562 L 8 7.40625 L 3.839844 5.726562 Z M 4.804688 10.542969 C 4.75 10.421875 4.59375 10.367188 4.464844 10.417969 L 3.445312 10.84375 L 3.445312 6.09375 L 7.742188 7.832031 L 7.742188 12.796875 L 3.832031 11.214844 L 4.675781 10.863281 C 4.804688 10.808594 4.863281 10.664062 4.804688 10.542969 Z M 8.257812 12.796875 L 8.257812 7.832031 L 12.554688 6.09375 L 12.554688 10.84375 L 11.535156 10.421875 C 11.40625 10.367188 11.25 10.421875 11.195312 10.542969 C 11.136719 10.667969 11.195312 10.808594 11.324219 10.863281 L 12.167969 11.214844 Z M 8.257812 12.796875 "/>
</g>
</svg>
