<?xml version="1.0" encoding="UTF-8"?>
<svg xmlns="http://www.w3.org/2000/svg" xmlns:xlink="http://www.w3.org/1999/xlink" width="16pt" height="16pt" viewBox="0 0 16 16" version="1.1">
<g id="surface1">
<path style=" stroke:none;fill-rule:nonzero;fill:rgb(0%,0%,0%);fill-opacity:1;" d="M 13.089844 9.335938 L 13.089844 12.609375 C 13.089844 12.867188 12.878906 13.082031 12.617188 13.082031 L 3.382812 13.082031 C 3.121094 13.082031 2.910156 12.867188 2.910156 12.609375 L 2.910156 9.335938 L 1.96875 9.335938 L 1.96875 12.609375 C 1.96875 13.390625 2.601562 14.023438 3.382812 14.023438 L 12.617188 14.023438 C 13.398438 14.023438 14.03125 13.390625 14.03125 12.609375 L 14.03125 9.335938 Z M 13.089844 9.335938 "/>
<path style=" stroke:none;fill-rule:nonzero;fill:rgb(0%,0%,0%);fill-opacity:1;" d="M 8 1.976562 L 5.070312 4.90625 L 5.738281 5.570312 L 7.527344 3.78125 L 7.527344 11.125 L 8.472656 11.125 L 8.472656 3.78125 L 10.261719 5.570312 L 10.929688 4.90625 Z M 8 1.976562 "/>
</g>
</svg>
