<?xml version="1.0" encoding="UTF-8"?>
<svg xmlns="http://www.w3.org/2000/svg" xmlns:xlink="http://www.w3.org/1999/xlink" width="24pt" height="24pt" viewBox="0 0 24 24" version="1.1">
<g id="surface1">
<path style=" stroke:none;fill-rule:nonzero;fill:rgb(60%,60%,60%);fill-opacity:1;" d="M 21.75 19.449219 L 16.5 14.199219 C 16.28125 13.980469 16.015625 13.871094 15.75 13.871094 C 15.65625 13.871094 15.5625 13.890625 15.46875 13.917969 L 14.726562 13.175781 C 15.601562 11.996094 16.125 10.535156 16.125 8.949219 C 16.125 5.015625 12.9375 1.824219 9 1.824219 C 5.0625 1.824219 1.875 5.015625 1.875 8.949219 C 1.875 12.886719 5.0625 16.074219 9 16.074219 C 10.585938 16.074219 12.042969 15.550781 13.226562 14.675781 L 13.96875 15.417969 C 13.863281 15.773438 13.953125 16.15625 14.25 16.449219 L 19.5 21.699219 C 19.71875 21.917969 19.984375 22.027344 20.25 22.027344 C 20.515625 22.027344 20.78125 21.917969 21 21.699219 L 21.75 20.949219 C 22.1875 20.515625 22.1875 19.886719 21.75 19.449219 Z M 9 15.699219 C 5.277344 15.699219 2.25 12.671875 2.25 8.949219 C 2.25 5.230469 5.277344 2.199219 9 2.199219 C 12.722656 2.199219 15.75 5.230469 15.75 8.949219 C 15.75 12.671875 12.722656 15.699219 9 15.699219 Z M 14.148438 15.070312 L 13.53125 14.449219 C 13.882812 14.160156 14.207031 13.835938 14.5 13.480469 L 15.121094 14.101562 C 15.078125 14.132812 15.039062 14.164062 15 14.199219 L 14.25 14.949219 C 14.210938 14.988281 14.179688 15.03125 14.148438 15.070312 Z M 21.484375 20.6875 L 20.734375 21.4375 C 20.59375 21.578125 20.425781 21.652344 20.25 21.652344 C 20.074219 21.652344 19.90625 21.578125 19.765625 21.4375 L 14.515625 16.1875 C 14.226562 15.894531 14.226562 15.507812 14.515625 15.214844 L 15.265625 14.464844 C 15.40625 14.324219 15.574219 14.246094 15.75 14.246094 C 15.925781 14.246094 16.09375 14.324219 16.234375 14.464844 L 21.484375 19.714844 C 21.773438 20.007812 21.773438 20.394531 21.484375 20.6875 Z M 21.484375 20.6875 "/>
<path style=" stroke:none;fill-rule:nonzero;fill:rgb(60%,60%,60%);fill-opacity:1;" d="M 9 2.949219 C 5.691406 2.949219 3 5.644531 3 8.949219 C 3 12.257812 5.691406 14.949219 9 14.949219 C 12.308594 14.949219 15 12.257812 15 8.949219 C 15 5.644531 12.308594 2.949219 9 2.949219 Z M 9 14.574219 C 5.894531 14.574219 3.375 12.058594 3.375 8.949219 C 3.375 5.84375 5.894531 3.324219 9 3.324219 C 12.105469 3.324219 14.625 5.84375 14.625 8.949219 C 14.625 12.058594 12.105469 14.574219 9 14.574219 Z M 9 14.574219 "/>
<path style=" stroke:none;fill-rule:nonzero;fill:rgb(60%,60%,60%);fill-opacity:1;" d="M 13.628906 8.816406 L 12.433594 7.691406 C 12.40625 7.667969 12.375 7.648438 12.34375 7.644531 L 11.023438 7.367188 L 11.90625 6.863281 C 11.964844 6.832031 12 6.769531 12 6.699219 L 12 5.199219 C 12 5.097656 11.914062 5.011719 11.8125 5.011719 C 11.710938 5.011719 11.625 5.097656 11.625 5.199219 L 11.625 6.59375 L 10.800781 7.0625 C 10.679688 6.734375 10.410156 6.480469 10.070312 6.378906 C 9.996094 6.132812 9.84375 5.925781 9.640625 5.785156 L 10.273438 4.9375 C 10.335938 4.855469 10.320312 4.738281 10.238281 4.675781 C 10.15625 4.613281 10.035156 4.632812 9.976562 4.714844 L 9.292969 5.621094 C 9.199219 5.59375 9.101562 5.574219 9 5.574219 C 8.898438 5.574219 8.800781 5.59375 8.703125 5.621094 L 8.023438 4.714844 C 7.960938 4.628906 7.84375 4.613281 7.761719 4.675781 C 7.679688 4.738281 7.664062 4.855469 7.726562 4.9375 L 8.359375 5.78125 C 8.15625 5.925781 8 6.132812 7.925781 6.378906 C 7.589844 6.480469 7.320312 6.734375 7.199219 7.0625 L 6.375 6.59375 L 6.375 5.199219 C 6.375 5.097656 6.289062 5.011719 6.1875 5.011719 C 6.085938 5.011719 6 5.097656 6 5.199219 L 6 6.699219 C 6 6.769531 6.035156 6.832031 6.09375 6.863281 L 6.976562 7.367188 L 5.65625 7.644531 C 5.625 7.648438 5.59375 7.667969 5.566406 7.691406 L 4.371094 8.816406 C 4.296875 8.886719 4.292969 9.003906 4.363281 9.078125 C 4.398438 9.117188 4.449219 9.136719 4.5 9.136719 C 4.546875 9.136719 4.59375 9.121094 4.628906 9.085938 L 5.785156 8 L 6.851562 7.777344 C 6.703125 8 6.597656 8.242188 6.527344 8.503906 L 5.472656 9.964844 C 5.457031 9.988281 5.445312 10.011719 5.441406 10.039062 L 5.066406 11.914062 C 5.046875 12.015625 5.113281 12.113281 5.214844 12.132812 C 5.226562 12.136719 5.238281 12.136719 5.25 12.136719 C 5.339844 12.136719 5.417969 12.078125 5.433594 11.988281 L 5.800781 10.152344 L 6.398438 9.328125 C 6.378906 9.574219 6.375 9.828125 6.375 10.074219 C 6.375 11.246094 7.0625 12.699219 9 12.699219 C 10.9375 12.699219 11.625 11.175781 11.625 10.074219 C 11.625 9.824219 11.621094 9.574219 11.605469 9.328125 L 12.199219 10.152344 L 12.566406 11.988281 C 12.585938 12.078125 12.664062 12.136719 12.75 12.136719 C 12.761719 12.136719 12.773438 12.136719 12.785156 12.132812 C 12.886719 12.113281 12.953125 12.015625 12.933594 11.914062 L 12.558594 10.039062 C 12.554688 10.011719 12.542969 9.988281 12.527344 9.964844 L 11.472656 8.503906 C 11.402344 8.242188 11.296875 7.996094 11.148438 7.777344 L 12.214844 8 L 13.371094 9.085938 C 13.410156 9.121094 13.453125 9.136719 13.5 9.136719 C 13.550781 9.136719 13.601562 9.117188 13.636719 9.078125 C 13.707031 9.003906 13.703125 8.886719 13.628906 8.816406 Z M 9.644531 6.324219 L 8.355469 6.324219 C 8.484375 6.101562 8.722656 5.949219 9 5.949219 C 9.277344 5.949219 9.511719 6.101562 9.644531 6.324219 Z M 8.25 6.699219 L 9.75 6.699219 C 10.164062 6.699219 10.5 7.039062 10.5 7.449219 L 10.5 7.480469 C 9.539062 7.609375 9 8.199219 9 8.199219 C 9 8.199219 8.484375 7.609375 7.5 7.480469 L 7.5 7.449219 C 7.5 7.039062 7.835938 6.699219 8.25 6.699219 Z M 6.75 10.074219 C 6.75 9.207031 6.792969 8.382812 7.277344 7.832031 C 8.207031 7.886719 8.695312 8.421875 8.714844 8.445312 L 8.8125 8.558594 L 8.8125 12.316406 C 7.296875 12.226562 6.75 11.074219 6.75 10.074219 Z M 9.1875 12.316406 L 9.1875 8.550781 L 9.277344 8.453125 C 9.300781 8.429688 9.8125 7.886719 10.722656 7.832031 C 11.207031 8.382812 11.25 9.207031 11.25 10.074219 C 11.25 10.878906 10.808594 12.21875 9.1875 12.316406 Z M 9.1875 12.316406 "/>
</g>
</svg>
