<?xml version="1.0" ?><!DOCTYPE svg  PUBLIC '-//W3C//DTD SVG 1.1//EN'  'http://www.w3.org/Graphics/SVG/1.1/DTD/svg11.dtd'><svg enable-background="new 0 0 30 30" height="30px" id="Capa_1" version="1.1" viewBox="0 0 30 30" width="30px" xml:space="preserve" xmlns="http://www.w3.org/2000/svg" xmlns:xlink="http://www.w3.org/1999/xlink"><path d="M11.2,1.7c0.4,0,0.8-0.3,0.8-0.8s-0.3-0.8-0.8-0.8c-6,0-11,4.9-11,11c0,0.4,0.3,0.8,0.8,0.8s0.8-0.3,0.8-0.8  C1.7,5.9,6,1.7,11.2,1.7z M4.7,11.2c0-3.6,2.9-6.5,6.5-6.5c0.4,0,0.8-0.3,0.8-0.8s-0.3-0.8-0.8-0.8c-4.4,0-8,3.6-8,8  c0,0.4,0.3,0.8,0.8,0.8S4.7,11.6,4.7,11.2z M11.2,6C8.4,6,6,8.3,6,11.2c0,0.4,0.3,0.8,0.8,0.8s0.8-0.3,0.8-0.8c0-2,1.6-3.6,3.6-3.6  c0.4,0,0.8-0.3,0.8-0.8S11.6,6,11.2,6z M25.4,4.5c-0.3-0.3-0.8-0.3-1.1,0l-9.4,9.4l-2.4-2.4c0.1-0.5,0-0.9-0.4-1.3  c-0.6-0.6-1.4-0.6-2,0c-0.6,0.6-0.6,1.4,0,2c0.4,0.4,0.8,0.5,1.3,0.4l2.4,2.4l-9.4,9.4c-0.3,0.3-0.3,0.8,0,1.1  c2.8,2.8,6.5,4.4,10.5,4.4s7.7-1.5,10.5-4.4c2.8-2.8,4.4-6.5,4.4-10.5S28.2,7.3,25.4,4.5z M24.4,24.4c-2.5,2.5-5.9,3.9-9.4,3.9  c-3.3,0-6.4-1.2-8.9-3.4L24.9,6.1c2.2,2.5,3.4,5.6,3.4,8.9C28.3,18.5,26.9,21.9,24.4,24.4z" fill="#262324"/></svg>