<svg width="16" height="16" xmlns="http://www.w3.org/2000/svg" enable-background="new 0 0 512 512">

 <g>
  <title>Layer 1</title>
  <g stroke="null" id="svg_3">
   <path stroke="null" id="svg_1" d="m13.18024,6.00504l0,-2.64568c0,-1.24965 -1.01668,-2.26636 -2.26636,-2.26636l-1.18714,0c-0.35763,0 -0.64753,0.2899 -0.64753,0.64753s0.2899,0.64753 0.64753,0.64753l1.18714,0c0.53559,0 0.9713,0.43571 0.9713,0.9713l0,2.91389c0,0.17173 0.06823,0.33645 0.18965,0.45789l1.26889,1.26886l-1.26886,1.26886c-0.12144,0.12144 -0.18967,0.28615 -0.18967,0.45789l0,2.91389c0,0.53559 -0.43571,0.9713 -0.9713,0.9713l-1.18714,0c-0.35763,0 -0.64753,0.2899 -0.64753,0.64753s0.2899,0.64753 0.64753,0.64753l1.18714,0c1.24968,0 2.26636,-1.0167 2.26636,-2.26636l0,-2.64568l1.5371,-1.5371c0.25289,-0.25289 0.25289,-0.66286 0,-0.91574l-1.5371,-1.53708z"/>
   <path stroke="null" id="svg_2" d="m2.81976,12.64064c0,1.24965 1.01668,2.26636 2.26636,2.26636l1.18714,0c0.35763,0 0.64753,-0.2899 0.64753,-0.64753s-0.2899,-0.64753 -0.64753,-0.64753l-1.18714,0c-0.53559,0 -0.9713,-0.43571 -0.9713,-0.9713l0,-2.91389c0,-0.17173 -0.06823,-0.33645 -0.18965,-0.45789l-1.26889,-1.26886l1.26886,-1.26886c0.12144,-0.12144 0.18967,-0.28615 0.18967,-0.45789l0,-2.91389c0,-0.53559 0.43571,-0.9713 0.9713,-0.9713l1.18714,0c0.35763,0 0.64753,-0.2899 0.64753,-0.64753s-0.2899,-0.64753 -0.64753,-0.64753l-1.18714,0c-1.24968,0 -2.26636,1.0167 -2.26636,2.26636l0,2.64568l-1.5371,1.53708c-0.25289,0.25289 -0.25289,0.66286 0,0.91574l1.5371,1.5371l0,2.64568z"/>
  </g>
 </g>
</svg>