<svg width="64" height="64" xmlns="http://www.w3.org/2000/svg">

 <g>
  <title>background</title>
  <rect fill="none" id="canvas_background" height="402" width="582" y="-1" x="-1"/>
 </g>
 <g>
  <title>Layer 1</title>
  <g id="bug_search_2_">
   <g id="svg_1">
    <path id="svg_2" fill="#000000" d="m58,51.869281l-14,-14c-0.583,-0.583 -1.291,-0.875 -2,-0.875c-0.253,0 -0.504,0.051 -0.75,0.125l-1.979,-1.979c2.333,-3.155 3.729,-7.044 3.729,-11.271c0,-10.495 -8.505,-19 -19,-19s-19,8.505 -19,19s8.505,19 19,19c4.227,0 8.115,-1.396 11.271,-3.729l1.979,1.979c-0.281,0.939 -0.041,1.959 0.75,2.75l14,14c0.583,0.583 1.291,0.875 2,0.875s1.417,-0.292 2,-0.875l2,-2c1.166,-1.166 1.166,-2.834 0,-4zm-34,-10c-9.926,0 -18,-8.075 -18,-18s8.074,-18 18,-18s18,8.075 18,18s-8.074,18 -18,18zm13.733,-1.681l-1.653,-1.653c0.943,-0.777 1.809,-1.644 2.586,-2.586l1.654,1.653c-0.109,0.084 -0.218,0.165 -0.32,0.267l-2,2c-0.102,0.102 -0.183,0.211 -0.267,0.319zm19.56,14.974l-2,2c-0.381,0.381 -0.828,0.582 -1.293,0.582s-0.912,-0.201 -1.293,-0.582l-14,-14c-0.773,-0.773 -0.773,-1.813 0,-2.586l2,-2c0.381,-0.381 0.828,-0.582 1.293,-0.582s0.912,0.201 1.293,0.582l14,14c0.773,0.773 0.773,1.813 0,2.586z"/>
   </g>
   <g id="svg_3">
    <g id="svg_4">
     <path id="svg_5" fill="#000000" d="m24,7.869281c-8.822,0 -16,7.178 -16,16s7.178,16 16,16s16,-7.178 16,-16s-7.178,-16 -16,-16zm0,31c-8.284,0 -15,-6.716 -15,-15s6.716,-15 15,-15s15,6.716 15,15s-6.716,15 -15,15z"/>
    </g>
   </g>
   <path id="svg_6" fill="#000000" d="m36.343,23.506281l-3.188,-3c-0.067,-0.063 -0.15,-0.107 -0.241,-0.126l-3.52,-0.731l2.354,-1.345c0.156,-0.089 0.252,-0.255 0.252,-0.435l0,-4c0,-0.275 -0.224,-0.5 -0.5,-0.5s-0.5,0.225 -0.5,0.5l0,3.711l-2.196,1.254c-0.326,-0.876 -1.048,-1.553 -1.949,-1.824c-0.195,-0.652 -0.603,-1.205 -1.144,-1.588l1.689,-2.252c0.166,-0.221 0.121,-0.535 -0.101,-0.7c-0.22,-0.165 -0.534,-0.12 -0.7,0.101l-1.813,2.416c-0.251,-0.069 -0.512,-0.118 -0.786,-0.118s-0.535,0.049 -0.787,0.118l-1.813,-2.417c-0.167,-0.223 -0.48,-0.268 -0.7,-0.101c-0.222,0.165 -0.267,0.479 -0.101,0.7l1.69,2.252c-0.541,0.385 -0.954,0.936 -1.149,1.589c-0.898,0.272 -1.619,0.948 -1.944,1.823l-2.196,-1.253l0,-3.711c0,-0.275 -0.224,-0.5 -0.5,-0.5s-0.5,0.225 -0.5,0.5l0,4c0,0.18 0.096,0.346 0.252,0.435l2.354,1.345l-3.52,0.731c-0.09,0.019 -0.174,0.063 -0.241,0.126l-3.188,3c-0.201,0.189 -0.21,0.506 -0.021,0.707c0.098,0.103 0.231,0.156 0.364,0.156c0.123,0 0.246,-0.045 0.343,-0.135l3.085,-2.904l2.846,-0.591c-0.402,0.589 -0.677,1.242 -0.864,1.938l-2.814,3.9c-0.042,0.058 -0.071,0.124 -0.085,0.194l-1,5c-0.055,0.271 0.121,0.534 0.393,0.588c0.033,0.008 0.066,0.01 0.098,0.01c0.234,0 0.443,-0.164 0.49,-0.401l0.979,-4.894l1.588,-2.199c-0.048,0.657 -0.059,1.328 -0.059,1.994c0,3.125 1.834,7 7,7s7,-4.063 7,-7c0,-0.667 -0.012,-1.338 -0.057,-1.996l1.588,2.201l0.979,4.894c0.048,0.237 0.256,0.401 0.489,0.401c0.033,0 0.066,-0.002 0.099,-0.01c0.271,-0.054 0.447,-0.316 0.393,-0.588l-1,-5c-0.014,-0.07 -0.043,-0.137 -0.085,-0.194l-2.815,-3.901c-0.188,-0.695 -0.463,-1.349 -0.864,-1.938l2.847,0.592l3.085,2.904c0.097,0.09 0.22,0.135 0.343,0.135c0.133,0 0.266,-0.053 0.364,-0.156c0.188,-0.201 0.178,-0.518 -0.023,-0.707zm-10.628,-6.637l-3.431,0c0.345,-0.594 0.979,-1 1.716,-1s1.369,0.406 1.715,1zm-3.715,1l4,0c1.104,0 2,0.898 2,2l0,0.076c-2.564,0.35 -4,1.924 -4,1.924s-1.379,-1.581 -4,-1.926l0,-0.074c0,-1.102 0.896,-2 2,-2zm-4,9c0,-2.314 0.113,-4.514 1.41,-5.988c2.477,0.146 3.779,1.582 3.832,1.641l0.258,0.297l0,10.027c-4.042,-0.238 -5.5,-3.317 -5.5,-5.977zm6.5,5.975l0,-10.042l0.238,-0.257c0.061,-0.066 1.427,-1.512 3.852,-1.662c1.297,1.474 1.41,3.674 1.41,5.986c0,2.146 -1.182,5.715 -5.5,5.975z"/>
  </g>
 </g>
</svg>