<svg width="1024" height="1024" xmlns="http://www.w3.org/2000/svg" class="icon">
 <g>
  <title>background</title>
  <rect x="-1" y="-1" width="2050.0466" height="2050.0466" id="canvas_background" fill="none"/>
 </g>

 <g>
  <title>Layer 1</title>
  <path fill="#828282" transform="rotate(-45 476.00387573242165,475.8427429199218) " d="m839.56161,526.74085q0,11.81562 -8.6345,20.45012t-20.45012,8.63449l-101.79616,0q0,77.71047 -30.44796,131.78968l94.52501,94.97946q8.6345,8.6345 8.6345,20.45012t-8.6345,20.45012q-8.18005,8.6345 -20.45012,8.6345t-20.45012,-8.6345l-89.98054,-89.52609q-2.27224,2.27224 -6.81671,5.90781t-19.08678,12.95175t-29.53907,16.58732t-37.26467,13.17897t-44.08137,5.90782l0,-407.18466l-58.16924,0l0,407.18466q-23.1768,0 -46.12638,-6.13504t-39.53691,-14.99676t-29.99351,-17.72344t-19.76845,-14.76953l-6.81671,-6.36226l-83.16383,94.07057q-9.08894,9.54339 -21.81346,9.54339q-10.90673,0 -19.54123,-7.27115q-8.6345,-8.18005 -9.31617,-20.2229t7.04393,-21.13179l91.79832,-103.15951q-26.35793,-51.80698 -26.35793,-124.51852l-101.79617,0q-11.81562,0 -20.45012,-8.63449t-8.6345,-20.45012t8.6345,-20.45012t20.45012,-8.6345l101.79617,0l0,-133.60747l-78.61936,-78.61936q-8.6345,-8.63449 -8.6345,-20.45012t8.6345,-20.45012t20.45012,-8.63449t20.45012,8.63449l78.61936,78.61936l383.55341,0l78.61935,-78.61936q8.6345,-8.63449 20.45012,-8.63449t20.45012,8.63449t8.6345,20.45012t-8.6345,20.45012l-78.61935,78.61936l0,133.60747l101.79616,0q11.81563,0 20.45012,8.6345t8.6345,20.45012l0.00001,-0.00002zm-218.13464,-261.76157l-290.84618,0q0,-60.44147 42.49081,-102.93228t102.93228,-42.49082t102.93228,42.49082t42.49081,102.93228z" id="svg_1" stroke="null"/>
 </g>
</svg>