<?xml version="1.0" encoding="iso-8859-1"?>
<!-- Generator: Adobe Illustrator 19.0.0, SVG Export Plug-In . SVG Version: 6.00 Build 0)  -->
<svg version="1.1" id="Capa_1" xmlns="http://www.w3.org/2000/svg" xmlns:xlink="http://www.w3.org/1999/xlink" x="0px" y="0px"
	 viewBox="0 0 446.766 446.766" style="enable-background:new 0 0 446.766 446.766;" xml:space="preserve">
<g>
	<g>
		<g>
			<path d="M195.615,76.871h-39.184c-5.771,0-10.449,4.678-10.449,10.449v147.331c0,5.771,4.678,10.449,10.449,10.449h39.184
				c5.771,0,10.449-4.678,10.449-10.449V87.32C206.064,81.55,201.385,76.871,195.615,76.871z M185.166,224.202H166.88V97.769h18.286
				V224.202z"/>
			<path d="M224.872,121.802c-5.771,0-10.449,4.678-10.449,10.449v102.4c0,5.771,4.678,10.449,10.449,10.449h39.184
				c5.771,0,10.449-4.678,10.449-10.449v-102.4c0-5.771-4.678-10.449-10.449-10.449H224.872z M253.606,224.202h-18.286V142.7h18.286
				V224.202z"/>
			<path d="M126.651,168.3H87.99c-5.771,0-10.449,4.678-10.449,10.449v55.902c0,5.771,4.678,10.449,10.449,10.449h38.661
				c5.771,0,10.449-4.678,10.449-10.449v-55.902C137.1,172.978,132.422,168.3,126.651,168.3z M116.202,224.202H98.439v-35.004
				h17.763V224.202z"/>
			<path d="M180.464,30.373C97.653,30.085,30.288,96.983,30,179.794c-0.288,82.811,66.61,150.175,149.42,150.464
				c82.811,0.288,150.175-66.61,150.464-149.42c0.001-0.348,0.001-0.695,0-1.043C329.597,97.39,262.867,30.66,180.464,30.373z
				 M308.986,179.794c-0.284,70.948-57.576,128.473-128.522,129.045c-71.269,0.289-129.278-57.252-129.566-128.521
				S108.15,51.04,179.419,50.751c71.269-0.289,129.278,57.252,129.566,128.521C308.986,179.446,308.986,179.62,308.986,179.794z"/>
			<path d="M435.386,379.337c-0.162-0.165-0.325-0.328-0.49-0.49l-72.62-73.143c-4.414-3.585-10.737-3.585-15.151,0l-13.061,13.584
				l-20.898-20.898c65.826-73.905,59.276-187.179-14.629-253.005S111.358-13.891,45.532,60.014s-59.276,187.179,14.629,253.004
				c67.938,60.511,170.438,60.511,238.376,0l20.898,20.898L305.851,347.5c-4.04,3.706-4.31,9.986-0.603,14.025
				c0.192,0.21,0.394,0.411,0.603,0.603l73.143,73.143c7.502,7.43,17.654,11.566,28.212,11.494
				c10.503,0.036,20.542-4.321,27.69-12.016C450.333,419.583,450.553,394.774,435.386,379.337z M180.464,337.573
				c-87.139,0.289-158.013-70.117-158.301-157.256C21.874,93.178,92.28,22.304,179.419,22.016
				c87.139-0.289,158.013,70.117,158.301,157.256c0.001,0.174,0.001,0.348,0.001,0.522
				C337.436,266.611,267.28,337.001,180.464,337.573z M420.314,420.074c-0.015,0.015-0.031,0.031-0.046,0.046
				c-7.332,7.358-19.241,7.378-26.599,0.046c-0.015-0.015-0.031-0.031-0.046-0.046l-65.306-65.306l26.645-26.645l65.306,65.306
				C427.625,400.808,427.646,412.716,420.314,420.074z"/>
		</g>
	</g>
</g>
<g>
</g>
<g>
</g>
<g>
</g>
<g>
</g>
<g>
</g>
<g>
</g>
<g>
</g>
<g>
</g>
<g>
</g>
<g>
</g>
<g>
</g>
<g>
</g>
<g>
</g>
<g>
</g>
<g>
</g>
</svg>
