<svg width="512" height="512" xmlns="http://www.w3.org/2000/svg" class="icon">

 <g>
  <title>background</title>
  <rect fill="none" id="canvas_background" height="514" width="514" y="-1" x="-1"/>
 </g>
 <g>
  <title>Layer 1</title>
  <g id="svg_16">
   <path stroke="null" id="svg_1" d="m424.20796,463.80032l-59.36868,0c-10.92066,0 -19.79618,-8.83581 -19.79618,-19.77632l0,-39.59236c0,-10.9008 8.87552,-19.77632 19.79618,-19.77632l39.5725,0l0,-98.96104l-138.53354,0l0,98.96104l19.77632,0c10.94052,0 19.79618,8.87552 19.79618,19.77632l0,39.59236c0,10.94052 -8.85566,19.77632 -19.79618,19.77632l-59.36868,0c-10.92066,0 -19.77632,-8.83581 -19.77632,-19.77632l0,-39.59236c0,-10.9008 8.85566,-19.77632 19.77632,-19.77632l19.81604,0l0,-98.96104l-138.5534,0l0,98.96104l39.5725,0c10.94052,0 19.79618,8.87552 19.79618,19.77632l0,39.59236c0,10.94052 -8.85566,19.77632 -19.79618,19.77632l-59.34883,0c-10.94052,0 -19.79618,-8.83581 -19.79618,-19.77632l0,-39.59236c0,-10.9008 8.85566,-19.77632 19.79618,-19.77632l0,-118.73736l158.32972,0l0,-79.16486l-59.36868,0c-10.94052,0 -19.79618,-8.85566 -19.79618,-19.79618l0,-98.96104c0,-10.92066 8.85566,-19.79618 19.79618,-19.79618l138.53354,0c10.94052,0 19.77632,8.85566 19.77632,19.79618l0,98.94119c0,10.92066 -8.83581,19.79618 -19.77632,19.79618l-59.36868,0l0,79.16486l158.32972,0l0,118.73736c10.92066,0 19.79618,8.87552 19.79618,19.77632l0,39.59236c-0.01986,10.96037 -8.91523,19.79618 -19.81604,19.79618zm-336.43577,-59.36868l0,39.59236l59.34883,0l0,-39.59236l-59.34883,0zm237.47473,-237.47473l0,-98.96104l-138.53354,0l0,98.94119l138.53354,0l0,0.01986zm-98.96104,237.47473l0,39.59236l59.36868,0l0,-39.59236l-59.36868,0zm197.92208,0l-59.36868,0l0,39.59236l59.36868,0l0,-39.59236z"/>
   <path stroke="null" id="svg_10" fill="#ff0000" d="m270.78994,81.15857l0,-56.10425l-29.59728,0l0,56.10425c-84.99636,7.14685 -152.86984,75.02901 -160.00802,160.05153l-56.12161,0l0,29.59722l56.12161,0c7.13817,84.99636 75.01166,152.86117 160.00802,160.00802l0,56.13035l29.59728,0l0,-56.13035c85.01378,-7.14685 152.88726,-75.01159 160.02543,-160.00795l56.12161,0l0,-29.59728l-56.12161,0c-7.14691,-85.02252 -75.0204,-152.90468 -160.02543,-160.05153zm0,320.0508l0,-44.7441l-29.59728,0l0,44.7441c-68.69177,-6.95532 -123.45535,-61.71897 -130.402,-130.40206l44.73536,0l0,-29.59722l-44.7441,0c6.93797,-68.71787 61.71903,-123.49892 130.40206,-130.44557l0,44.75278l29.59722,0l0,-44.75278c68.70919,6.95532 123.47283,61.73638 130.41948,130.44557l-44.73536,0l0,29.59722l44.73536,0c-6.94665,68.6831 -61.71029,123.44674 -130.41074,130.40206z"/>
  </g>
 </g>
</svg>