<svg width="500" height="500" xmlns="http://www.w3.org/2000/svg">

 <g>
  <title>background</title>
  <rect fill="none" id="canvas_background" height="502" width="502" y="-1" x="-1"/>
 </g>
 <g>
  <title>Layer 1</title>
  <g id="svg_20">
   <g stroke="null" id="svg_1">
    <path stroke="null" id="svg_2" d="m409.46124,158.87929l-318.92249,0c-12.55947,0 -22.78018,-10.22071 -22.78018,-22.78018l0,-45.56036c0,-12.55947 10.22071,-22.78018 22.78018,-22.78018l318.92249,0c12.55947,0 22.78018,10.22071 22.78018,22.78018l0,45.56036c0,12.55947 -10.22071,22.78018 -22.78018,22.78018zm-318.92249,-75.93393c-4.17637,0 -7.59339,3.40184 -7.59339,7.59339l0,45.56036c0,4.19155 3.41703,7.59339 7.59339,7.59339l318.92249,0c4.17637,0 7.59339,-3.40184 7.59339,-7.59339l0,-45.56036c0,-4.19155 -3.41703,-7.59339 -7.59339,-7.59339l-318.92249,0z"/>
   </g>
   <g stroke="null" id="svg_3">
    <path stroke="null" id="svg_4" d="m424.64803,208.72537l-151.86785,0c-4.19155,0 -7.59339,-3.40184 -7.59339,-7.59339s3.40184,-7.59339 7.59339,-7.59339l151.86785,0c4.19155,0 7.59339,3.40184 7.59339,7.59339s-3.40184,7.59339 -7.59339,7.59339z"/>
   </g>
   <g stroke="null" id="svg_5">
    <path stroke="null" id="svg_6" d="m424.64803,280.71437l-151.86785,0c-4.19155,0 -7.59339,-3.40184 -7.59339,-7.59339s3.40184,-7.59339 7.59339,-7.59339l151.86785,0c4.19155,0 7.59339,3.40184 7.59339,7.59339s-3.40184,7.59339 -7.59339,7.59339z"/>
   </g>
   <g stroke="null" id="svg_7">
    <path stroke="null" id="svg_8" d="m424.64803,352.13875l-151.86785,0c-4.19155,0 -7.59339,-3.40184 -7.59339,-7.59339s3.40184,-7.59339 7.59339,-7.59339l151.86785,0c4.19155,0 7.59339,3.40184 7.59339,7.59339s-3.40184,7.59339 -7.59339,7.59339z"/>
   </g>
   <g stroke="null" id="svg_9">
    <path stroke="null" id="svg_10" d="m424.64803,428.33697l-151.86785,0c-4.19155,0 -7.59339,-3.40184 -7.59339,-7.59339s3.40184,-7.59339 7.59339,-7.59339l151.86785,0c4.19155,0 7.59339,3.40184 7.59339,7.59339s-3.40184,7.59339 -7.59339,7.59339z"/>
   </g>
   <g stroke="null" id="svg_13">
    <path stroke="null" id="svg_14" d="m212.03304,295.56035l-121.49428,0c-12.55947,0 -22.78018,-10.22071 -22.78018,-22.78018l0,-60.74714c0,-12.55947 10.22071,-22.78018 22.78018,-22.78018l121.49428,0c12.55947,0 22.78018,10.22071 22.78018,22.78018l0,60.74714c0,12.55947 -10.22071,22.78018 -22.78018,22.78018zm-121.49428,-91.12071c-4.17637,0 -7.59339,3.40184 -7.59339,7.59339l0,60.74714c0,4.19155 3.41703,7.59339 7.59339,7.59339l121.49428,0c4.17637,0 7.59339,-3.40184 7.59339,-7.59339l0,-60.74714c0,-4.19155 -3.41703,-7.59339 -7.59339,-7.59339l-121.49428,0z"/>
   </g>
   <g stroke="null" id="svg_15">
    <path stroke="null" id="svg_16" d="m212.03304,432.24142l-121.49428,0c-12.55947,0 -22.78018,-10.22071 -22.78018,-22.78018l0,-60.74714c0,-12.55947 10.22071,-22.78018 22.78018,-22.78018l121.49428,0c12.55947,0 22.78018,10.22071 22.78018,22.78018l0,60.74714c0,12.55947 -10.22071,22.78018 -22.78018,22.78018zm-121.49428,-91.12071c-4.17637,0 -7.59339,3.40184 -7.59339,7.59339l0,60.74714c0,4.19155 3.41703,7.59339 7.59339,7.59339l121.49428,0c4.17637,0 7.59339,-3.40184 7.59339,-7.59339l0,-60.74714c0,-4.19155 -3.41703,-7.59339 -7.59339,-7.59339l-121.49428,0z"/>
   </g>
  </g>
 </g>
</svg>