<svg class="icon" style="width: 1em; height: 1em;vertical-align: middle;fill: currentColor;overflow: hidden;" viewBox="0 0 1024 1024" version="1.1" xmlns="http://www.w3.org/2000/svg"><path d="M527.520563 119.042253c50.809242 0 100.082381 9.94345 146.448282 29.55305 44.800102 18.948608 85.043302 46.080512 119.60791 80.645734 34.564608 34.563174 61.699686 74.804736 80.649011 119.602995 19.610419 46.363955 29.554278 95.634125 29.554278 146.44224 0 50.807194-9.943859 100.078285-29.554278 146.441216-18.949325 44.799283-46.083379 85.039821-80.649011 119.602995-34.564608 34.564198-74.807808 61.697126-119.60791 80.645734-46.366925 19.6096-95.63904 29.55305-146.448282 29.55305s-100.081357-9.94345-146.448282-29.55305c-44.800102-18.948608-85.043302-46.080512-119.60791-80.645734-34.564608-34.563174-61.699686-74.804736-80.647987-119.602995-19.611443-46.363955-29.554278-95.634125-29.554278-146.441216s9.943859-100.078285 29.554278-146.44224c18.949325-44.799283 46.083379-85.039821 80.647987-119.602995 34.565632-34.564198 74.807808-61.697126 119.60791-80.645734C427.439206 128.985702 476.7104 119.042253 527.520563 119.042253M527.520563 86.296474c-225.889792 0-409.006694 183.108403-409.006694 408.989901 0 225.880474 183.115878 408.988877 409.006694 408.988877 225.890816 0 409.006694-183.108403 409.006694-408.988877C936.527258 269.404774 753.411379 86.296474 527.520563 86.296474L527.520563 86.296474zM428.157645 668.577075 292.325581 524.850688 316.126515 502.35945 429.095014 621.894861 724.333978 333.622374 747.211981 357.052006Z" /></svg>