<svg width="90.99999999999999" height="90.99999999999999" xmlns="http://www.w3.org/2000/svg">
 <g>
  <title>background</title>
  <rect x="-1" y="-1" width="93" height="93" id="canvas_background" fill="none"/>
 </g>

 <g>
  <title>Layer 1</title>
  <g id="svg_1" stroke="null">
   <path d="m47.78422,18.49674l0,-8.66498l-4.57113,0l0,8.66498c-13.1272,1.10379 -23.60987,11.5878 -24.71232,24.71904l-8.66766,0l0,4.57112l8.66766,0c1.10245,13.1272 11.58512,23.60853 24.71232,24.71232l0,8.66901l4.57113,0l0,-8.66901c13.12989,-1.10379 23.61256,-11.58511 24.71501,-24.71231l8.66766,0l0,-4.57113l-8.66766,0c-1.1038,-13.13124 -11.58647,-23.61525 -24.71501,-24.71904zm0,49.43001l0,-6.91047l-4.57113,0l0,6.91047c-10.60905,-1.07421 -19.06697,-9.53214 -20.13984,-20.13985l6.90912,0l0,-4.57112l-6.91047,0c1.07153,-10.61308 9.53215,-19.0737 20.13985,-20.14657l0,6.91181l4.57112,0l0,-6.91181c10.61174,1.07421 19.06967,9.53483 20.14254,20.14657l-6.90912,0l0,4.57112l6.90912,0c-1.07287,10.60771 -9.5308,19.06564 -20.14119,20.13985z" fill="#999999" id="svg_2" stroke="null"/>
   <path d="m45.49865,41.19642c-2.3716,0 -4.30089,1.93063 -4.30089,4.30089s1.93063,4.30089 4.30089,4.30089s4.3009,-1.93063 4.3009,-4.30089s-1.92929,-4.30089 -4.3009,-4.30089zm-0.27023,4.30223c0,-0.14789 0.121,-0.27023 0.27023,-0.27023s0.27024,0.12234 0.27024,0.27023c0.00134,0.29444 -0.54047,0.29713 -0.54047,0z" fill="#999999" id="svg_3" stroke="null"/>
  </g>
 </g>
</svg>