<svg width="91" height="91" xmlns="http://www.w3.org/2000/svg">

 <g>
  <title>background</title>
  <rect fill="none" id="canvas_background" height="402" width="582" y="-1" x="-1"/>
 </g>
 <g>
  <title>Layer 1</title>
  <g stroke="null" id="svg_1">
   <path stroke="null" id="svg_2" fill="#010101" d="m47.784219,18.496738l0,-8.664974l-4.571127,0l0,8.664974c-13.1272,1.103793 -23.60987,11.587806 -24.712318,24.71904l-8.667663,0l0,4.571127l8.667663,0c1.102448,13.1272 11.585117,23.608525 24.712318,24.712318l0,8.669007l4.571127,0l0,-8.669007c13.129889,-1.103793 23.612559,-11.585117 24.715007,-24.712318l8.667663,0l0,-4.571127l-8.667663,0c-1.103793,-13.131234 -11.586462,-23.615247 -24.715007,-24.71904zm0,49.430014l0,-6.910468l-4.571127,0l0,6.910468c-10.609047,-1.074215 -19.066976,-9.532144 -20.139847,-20.139847l6.909124,0l0,-4.571127l-6.910468,0c1.071526,-10.613081 9.532144,-19.073699 20.139847,-20.146569l0,6.911813l4.571127,0l0,-6.911813c10.611736,1.074215 19.069665,9.534833 20.142536,20.146569l-6.909124,0l0,4.571127l6.909124,0c-1.07287,10.607703 -9.530799,19.065632 -20.141191,20.139847z"/>
   <path stroke="null" id="svg_3" fill="#010101" d="m45.498655,41.196416c-2.371608,0 -4.300892,1.930629 -4.300892,4.300892s1.930629,4.300892 4.300892,4.300892s4.300892,-1.930629 4.300892,-4.300892s-1.929284,-4.300892 -4.300892,-4.300892zm-0.270234,4.302237c0,-0.147889 0.121,-0.270234 0.270234,-0.270234s0.270234,0.122345 0.270234,0.270234c0.001344,0.294434 -0.540469,0.297123 -0.540469,0z"/>
  </g>
 </g>
</svg>