<?xml version="1.0" encoding="UTF-8"?>
<svg xmlns="http://www.w3.org/2000/svg" xmlns:xlink="http://www.w3.org/1999/xlink" width="16pt" height="16pt" viewBox="0 0 16 16" version="1.1">
<g id="surface1">
<path style=" stroke:none;fill-rule:nonzero;fill:rgb(0%,0%,0%);fill-opacity:1;" d="M 13.046875 14.375 L 2.953125 14.375 C 2.222656 14.375 1.625 13.777344 1.625 13.046875 L 1.625 2.953125 C 1.625 2.222656 2.222656 1.625 2.953125 1.625 L 13.046875 1.625 C 13.777344 1.625 14.375 2.222656 14.375 2.953125 L 14.375 13.046875 C 14.375 13.777344 13.777344 14.375 13.046875 14.375 Z M 2.953125 2.15625 C 2.515625 2.15625 2.15625 2.515625 2.15625 2.953125 L 2.15625 13.046875 C 2.15625 13.484375 2.515625 13.84375 2.953125 13.84375 L 13.046875 13.84375 C 13.484375 13.84375 13.84375 13.484375 13.84375 13.046875 L 13.84375 2.953125 C 13.84375 2.515625 13.484375 2.15625 13.046875 2.15625 Z M 2.953125 2.15625 "/>
<path style=" stroke:none;fill-rule:nonzero;fill:rgb(0%,0%,0%);fill-opacity:1;" d="M 9.328125 10.125 C 9.234375 10.125 9.144531 10.074219 9.097656 9.992188 L 7.46875 7.140625 L 7.46875 9.859375 C 7.46875 10.003906 7.351562 10.125 7.203125 10.125 C 7.058594 10.125 6.9375 10.003906 6.9375 9.859375 L 6.9375 6.140625 C 6.9375 6.019531 7.019531 5.914062 7.136719 5.882812 C 7.253906 5.855469 7.375 5.90625 7.433594 6.007812 L 9.0625 8.859375 L 9.0625 6.140625 C 9.0625 5.996094 9.179688 5.875 9.328125 5.875 C 9.472656 5.875 9.59375 5.996094 9.59375 6.140625 L 9.59375 9.859375 C 9.59375 9.980469 9.511719 10.085938 9.394531 10.117188 C 9.375 10.121094 9.351562 10.125 9.328125 10.125 Z M 9.328125 10.125 "/>
<path style=" stroke:none;fill-rule:nonzero;fill:rgb(0%,0%,0%);fill-opacity:1;" d="M 6.140625 8.265625 L 4.015625 8.265625 C 3.871094 8.265625 3.75 8.148438 3.75 8 C 3.75 7.851562 3.871094 7.734375 4.015625 7.734375 L 6.140625 7.734375 C 6.289062 7.734375 6.40625 7.851562 6.40625 8 C 6.40625 8.148438 6.289062 8.265625 6.140625 8.265625 Z M 6.140625 8.265625 "/>
<path style=" stroke:none;fill-rule:nonzero;fill:rgb(0%,0%,0%);fill-opacity:1;" d="M 6.140625 10.125 L 5.078125 10.125 C 4.347656 10.125 3.75 9.527344 3.75 8.796875 L 3.75 7.203125 C 3.75 6.472656 4.347656 5.875 5.078125 5.875 L 6.140625 5.875 C 6.289062 5.875 6.40625 5.996094 6.40625 6.140625 C 6.40625 6.289062 6.289062 6.40625 6.140625 6.40625 L 5.078125 6.40625 C 4.640625 6.40625 4.28125 6.765625 4.28125 7.203125 L 4.28125 8.796875 C 4.28125 9.234375 4.640625 9.59375 5.078125 9.59375 L 6.140625 9.59375 C 6.289062 9.59375 6.40625 9.710938 6.40625 9.859375 C 6.40625 10.003906 6.289062 10.125 6.140625 10.125 Z M 6.140625 10.125 "/>
<path style=" stroke:none;fill-rule:nonzero;fill:rgb(0%,0%,0%);fill-opacity:1;" d="M 11.453125 10.125 L 10.390625 10.125 C 10.242188 10.125 10.125 10.003906 10.125 9.859375 L 10.125 6.140625 C 10.125 5.996094 10.242188 5.875 10.390625 5.875 L 11.453125 5.875 C 12.183594 5.875 12.78125 6.472656 12.78125 7.203125 L 12.78125 8.796875 C 12.78125 9.527344 12.183594 10.125 11.453125 10.125 Z M 10.65625 9.59375 L 11.453125 9.59375 C 11.890625 9.59375 12.25 9.234375 12.25 8.796875 L 12.25 7.203125 C 12.25 6.765625 11.890625 6.40625 11.453125 6.40625 L 10.65625 6.40625 Z M 10.65625 9.59375 "/>
</g>
</svg>
