<svg width="1024" height="1024" xmlns="http://www.w3.org/2000/svg" class="icon">

 <g>
  <title>background</title>
  <rect fill="none" id="canvas_background" height="1026" width="1026" y="-1" x="-1"/>
 </g>
 <g>
  <title>Layer 1</title>
  <path stroke="null" id="svg_1" d="m906.58598,585.39615c-22.17042,0 -40.144,17.97794 -40.144,40.14835l0,184.11611l-245.76481,-245.76394c-15.68181,-15.6792 -41.10434,-15.6792 -56.78094,0c-15.6792,15.67659 -15.6792,41.09913 0,56.78094l245.76481,245.76481l-184.11611,0c-22.17042,0 -40.14835,17.97359 -40.14835,40.144c0,22.17737 17.97794,40.15096 40.14835,40.15096l281.04105,0c22.17736,0 40.15096,-17.97359 40.15096,-40.15096l0,-281.04105c0.00086,-22.17041 -17.97273,-40.14922 -40.15096,-40.14922l0,0zm-694.38585,-429.09004l181.23596,0c21.82799,0 39.52174,-17.69374 39.52174,-39.52174c0,-21.82799 -17.69374,-39.52174 -39.52174,-39.52174l-276.6513,0c-21.828,0 -39.52174,17.69374 -39.52174,39.52174l0,276.65043c0,21.82799 17.69374,39.52174 39.52174,39.52174c21.82799,0 39.52174,-17.69374 39.52174,-39.52174l0,-181.23509l241.92257,241.92257c15.43326,15.43586 40.45948,15.43586 55.8936,0c15.43585,-15.43325 15.43585,-40.45948 0,-55.8936l-241.92257,-241.92257l0,0z"/>
 </g>
</svg>