<svg class="icon" style="width: 1em; height: 1em;vertical-align: middle;fill: currentColor;overflow: hidden;" viewBox="0 0 1024 1024" version="1.1" xmlns="http://www.w3.org/2000/svg"><path d="M512.281 512.19m-447.074 0a447.074 447.074 0 1 0 894.148 0 447.074 447.074 0 1 0-894.148 0Z" fill="#C75C5C" /><path d="M458.143 876.31s-224.41-33.207-224.41-224.41 293.429-209.439 228.492-446.639c0 0 219.709 68.758 166.077 282.845 0 0 29.048-18.552 51.282-54.664 0 0 111.245 85.936 111.245 216.712s-154.21 226.962-227.264 226.06c0 0 78.821-106.433 7.113-175.046-101.793-97.399-58.397-159.945-58.397-159.945S264.234 662.559 458.143 876.31z" fill="#231F20" /><path d="M458.143 848.368s-224.41-33.207-224.41-224.41 293.429-209.439 228.492-446.639c0 0 219.709 68.758 166.077 282.845 0 0 29.048-18.552 51.282-54.664 0 0 111.245 85.936 111.245 216.712s-154.21 226.962-227.264 226.06c0 0 78.821-106.433 7.113-175.046-101.793-97.399-58.397-159.945-58.397-159.945s-248.047 121.336-54.138 335.087z" fill="#F5CF87" /></svg>