<svg width="512" height="512" xmlns="http://www.w3.org/2000/svg">

 <g>
  <title>background</title>
  <rect fill="none" id="canvas_background" height="602" width="802" y="-1" x="-1"/>
 </g>
 <g>
  <title>Layer 1</title>
  <g stroke="null" id="svg_1">
   <g stroke="null" id="svg_2">
    <path stroke="null" id="svg_3" d="m396.10822,60.20604c-19.30648,-11.58405 -39.88935,-17.21549 -62.92432,-17.21549c-27.55976,0 -54.61279,8.11516 -80.77468,15.96323c-25.55781,7.66668 -49.6986,14.90816 -73.5931,14.90983c-0.00333,0 -0.00582,0 -0.00915,0c-15.97488,0 -30.43955,-3.38152 -44.01141,-10.30267l0,-8.08937c0,-6.89285 -5.58817,-12.48102 -12.48102,-12.48102s-12.48102,5.58817 -12.48102,12.48102l0,15.4357l0,169.65537l0,215.96578c0,6.89285 5.58817,12.48102 12.48102,12.48102s12.48102,-5.58817 12.48102,-12.48102l0,-195.99116c13.78487,5.32524 28.33358,7.94375 44.0214,7.94375c27.55893,0 54.60946,-8.11516 80.76969,-15.96323c25.55947,-7.66751 49.70193,-14.90983 73.59726,-14.90983c18.38205,0 34.76298,4.46737 50.08052,13.6584c3.85497,2.31315 8.65684,2.37472 12.57089,0.15893c3.91322,-2.2158 6.33121,-6.36449 6.33121,-10.86099l0,-169.6562c0.00083,-4.38417 -2.299,-8.44716 -6.05829,-10.70206zm-143.69318,168.4031c-25.5603,7.66751 -49.70276,14.90983 -73.59726,14.90983c-15.9807,0 -30.4487,-3.37653 -44.0214,-10.29768l0,-142.33191c13.78238,5.3244 28.32859,7.9371 44.01141,7.93627c0.0025,0 0.00832,0 0.01165,0c27.55643,-0.00166 54.6053,-8.11599 80.76303,-15.96323c25.5603,-7.66751 49.70525,-14.90983 73.60142,-14.90983c15.9807,0 30.4487,3.37653 44.02057,10.29684l0,142.33358c-13.78404,-5.32524 -28.33358,-7.9371 -44.02057,-7.9371c-27.5581,0 -54.60946,8.11516 -80.76885,15.96323z"/>
   </g>
  </g>
  <g id="svg_4"/>
  <g id="svg_5"/>
  <g id="svg_6"/>
  <g id="svg_7"/>
  <g id="svg_8"/>
  <g id="svg_9"/>
  <g id="svg_10"/>
  <g id="svg_11"/>
  <g id="svg_12"/>
  <g id="svg_13"/>
  <g id="svg_14"/>
  <g id="svg_15"/>
  <g id="svg_16"/>
  <g id="svg_17"/>
  <g id="svg_18"/>
 </g>
</svg>