<svg class="icon" style="width: 1em; height: 1em;vertical-align: middle;fill: currentColor;overflow: hidden;" viewBox="0 0 1024 1024" version="1.1" xmlns="http://www.w3.org/2000/svg"><path d="M943.370635 813.349349l-237.560534-209.127971c-4.657067-4.090155-9.810437-7.419993-15.268752-9.951653 36.372396-54.409191 57.612139-119.751385 57.612139-189.968609 0-188.976002-153.744593-342.719572-342.720595-342.719572S62.712297 215.325114 62.712297 404.301116c0 188.977026 153.74357 342.721619 342.719572 342.721619 69.547982 0 134.308939-20.842701 188.404997-56.582693 2.368954 5.131881 5.497201 10.028401 9.390881 14.517645l207.000518 238.889809c10.227945 11.802814 25.304316 18.570961 41.36306 18.570961 15.136745 0 30.008454-6.040576 40.794102-16.568351l51.288107-50.046836c11.597129-11.33107 18.008142-27.15957 17.59268-43.427068C960.876334 837.045027 954.525696 823.190485 943.370635 813.349349zM109.363803 404.301116c0-163.252131 132.815935-296.068066 296.068066-296.068066S701.498912 241.048985 701.498912 404.301116c0 163.253154-132.814911 296.068066-296.067043 296.068066S109.363803 567.55427 109.363803 404.301116zM637.751029 658.120962l20.711717-20.252253c1.814322-1.774413 3.979638-2.63706 6.620791-2.63706 3.393283 0 7.015787 1.475608 9.920954 4.02671l40.824801 35.938514-41.533952 40.538275-35.817764-41.335431C634.606409 669.936055 633.021308 662.72584 637.751029 658.120962zM911.082254 862.426091l-51.277874 50.036603c-2.121314 2.068102-5.189186 3.304256-8.212032 3.304256-1.810229 0-4.338818-0.429789-6.107091-2.470261L704.901405 751.054561l46.046732-44.943608 161.580049 142.240585c1.666966 1.469468 2.065032 3.647063 2.104941 5.215792C914.714991 856.81121 913.350924 860.210633 911.082254 862.426091zM636.529201 443.295222c-12.58462-2.781346-25.032116 5.158487-27.814486 17.735943-22.226211 100.43648-114.291023 137.886417-152.841014 149.325957-12.350283 3.665483-19.391652 16.649192-15.72617 28.998451 3.00852 10.136871 12.291954 16.697287 22.352077 16.697287 2.198062 0 4.431939-0.314155 6.646374-0.970094 29.623691-8.792247 73.072249-26.463722 111.822808-60.730153 37.96773-33.57263 62.627363-75.036997 73.294306-123.242905C657.047514 458.532251 649.105634 446.079638 636.529201 443.295222z" /></svg>