<?xml version="1.0" encoding="UTF-8"?>
<svg xmlns="http://www.w3.org/2000/svg" xmlns:xlink="http://www.w3.org/1999/xlink" width="16pt" height="16pt" viewBox="0 0 16 16" version="1.1">
<g id="surface1">
<path style=" stroke:none;fill-rule:nonzero;fill:rgb(0%,0%,0%);fill-opacity:1;" d="M 7.464844 9.332031 C 8.199219 9.332031 8.796875 9.929688 8.796875 10.667969 C 8.796875 11.402344 8.199219 12 7.464844 12 C 6.726562 12 6.128906 11.402344 6.128906 10.667969 C 6.128906 9.929688 6.726562 9.332031 7.464844 9.332031 M 15.101562 5.90625 L 14.042969 10.5 L 9.464844 9.441406 L 11.996094 7.851562 C 11.027344 6.28125 9.308594 5.328125 7.464844 5.332031 C 4.828125 5.332031 2.644531 7.238281 2.210938 9.753906 L 0.898438 9.519531 C 1.4375 6.386719 4.171875 4 7.464844 4 C 9.851562 4 11.949219 5.261719 13.128906 7.148438 Z M 15.101562 5.90625 "/>
</g>
</svg>
