<svg width="1024" height="1024" xmlns="http://www.w3.org/2000/svg" class="icon">
 <g>
  <title>background</title>
  <rect x="-1" y="-1" width="1863.841981" height="1863.841981" id="canvas_background" fill="none"/>
 </g>

 <g>
  <title>Layer 1</title>
  <path transform="rotate(180 511.99999999999994,512) " d="m773.80879,492.53539l91.134614,0l0,51.046376l-91.134614,0l0,-51.046376zm-255.232845,242.901989l51.046385,0l0,91.134605l-51.046385,0l0,-91.134605zm261.699464,-417.483036l-64.440619,64.440619l-36.094896,-36.094896l64.440619,-64.440619l36.094896,36.094896zm-36.091731,436.31448l-64.440619,-64.440619l36.094896,-36.094896l64.440619,64.440619l-36.094896,36.094896zm-345.676606,-98.374286l121.042387,-121.091343l0,-244.740737l77.401863,0l0,275.359338c-5.38163,5.38163 -143.670456,145.227703 -143.670456,145.227703l-54.773794,-54.75496l0,-0.000001zm166.682659,-561.539374l0,73.433426c189.772065,0 344.181288,154.409224 344.181288,344.210473c0,189.790898 -154.409224,344.20107 -344.181288,344.20107c-174.149714,0 -318.424612,-130.081749 -341.001839,-298.166303l52.382376,51.668713l51.933276,-51.933276l-143.483095,-143.482147l-143.854983,143.492507l51.933276,51.933276l56.569235,-56.569235c20.737531,211.028362 199.172017,376.50119 415.541526,376.50119c230.259499,0 417.625075,-187.355225 417.625075,-417.634487c-0.020711,-230.289631 -187.366524,-417.655207 -417.644847,-417.655207z" id="svg_1" stroke="null"/>
 </g>
</svg>