<?xml version="1.0" encoding="UTF-8"?>
<svg xmlns="http://www.w3.org/2000/svg" xmlns:xlink="http://www.w3.org/1999/xlink" width="16pt" height="16pt" viewBox="0 0 16 16" version="1.1">
<g id="surface1">
<path style=" stroke:none;fill-rule:nonzero;fill:rgb(0%,0%,0%);fill-opacity:1;" d="M 3.191406 13.945312 C 3.101562 13.945312 3.015625 13.917969 2.949219 13.847656 C 2.121094 12.960938 1.265625 11.082031 1.359375 9.894531 C 1.726562 5.421875 5.792969 4.769531 8.984375 4.726562 L 8.984375 2.390625 C 8.984375 2.253906 9.0625 2.132812 9.1875 2.082031 C 9.3125 2.03125 9.457031 2.058594 9.550781 2.152344 L 14.550781 7.148438 C 14.613281 7.210938 14.648438 7.296875 14.648438 7.386719 C 14.648438 7.472656 14.613281 7.558594 14.550781 7.621094 L 9.550781 12.617188 C 9.457031 12.714844 9.3125 12.742188 9.1875 12.691406 C 9.0625 12.640625 8.984375 12.515625 8.984375 12.382812 L 8.984375 9.730469 C 6.808594 9.441406 5.246094 9.769531 4.371094 10.695312 C 3.589844 11.523438 3.476562 12.707031 3.523438 13.570312 C 3.527344 13.59375 3.53125 13.601562 3.53125 13.621094 C 3.53125 13.804688 3.378906 13.945312 3.195312 13.945312 Z M 9.332031 5.410156 C 9.328125 5.410156 9.324219 5.402344 9.320312 5.402344 C 4.53125 5.40625 2.28125 6.808594 2.023438 9.960938 C 1.964844 10.683594 2.375 11.796875 2.878906 12.640625 C 2.976562 11.664062 3.316406 10.84375 3.886719 10.242188 C 4.683594 9.390625 5.917969 8.960938 7.546875 8.960938 C 8.070312 8.960938 8.648438 9.007812 9.257812 9.097656 L 9.292969 9.09375 C 9.382812 9.089844 9.476562 9.121094 9.542969 9.183594 C 9.609375 9.246094 9.648438 9.335938 9.648438 9.425781 L 9.648438 11.578125 L 13.84375 7.386719 L 9.648438 3.195312 L 9.648438 4.925781 C 9.667969 4.964844 9.695312 5.007812 9.695312 5.054688 C 9.699219 5.167969 9.648438 5.375 9.382812 5.390625 L 9.382812 5.410156 Z M 9.332031 5.410156 "/>
</g>
</svg>
