<svg width="512" height="512" xmlns="http://www.w3.org/2000/svg" class="icon">
 <g>
  <title>background</title>
  <rect x="-1" y="-1" width="514" height="514" id="canvas_background" fill="none"/>
 </g>

 <g>
  <title>Layer 1</title>
  <ellipse fill="#8B4D4B" stroke="null" stroke-width="null" stroke-opacity="null" cx="240" cy="403" id="svg_4"/>
  <text stroke="#000" transform="matrix(21.36958181197815,0,0,22.072950586296425,-6905.614968508084,-6918.771427699873) " xml:space="preserve" text-anchor="start" font-family="'Trebuchet MS', Gadget, sans-serif" font-size="24" id="svg_2" y="333.65077" x="328.43968" stroke-width="0" fill="#000000">P</text>
  <path stroke="null" fill="#ff0000" stroke-width="0" stroke-opacity="null" d="m83.49974,255.99968l0,0c0,-95.26873 77.23107,-172.49979 172.50008,-172.49979l0,0c45.75051,0 89.62706,18.1741 121.97612,50.52421c32.35036,32.35011 50.52431,76.22637 50.52431,121.97558l0,0c0,95.2699 -77.23053,172.50043 -172.50042,172.50043l0,0c-95.26901,0 -172.50008,-77.23053 -172.50008,-172.50043l-0.00001,0zm278.54865,77.16782l0,0c37.97886,-52.19447 32.33337,-124.26305 -13.30997,-169.90576c-45.64337,-45.64309 -117.71196,-51.28857 -169.90511,-13.30933l183.21509,183.21508zm-212.09611,-154.33405c-37.97912,52.19419 -32.33378,124.26277 13.30932,169.90483c45.64297,45.64337 117.71158,51.2888 169.90473,13.30997l-183.21406,-183.2148l0.00001,0l0,-0.00001z" id="svg_6"/>
 </g>
</svg>