<svg width="16" height="16" xmlns="http://www.w3.org/2000/svg" xml:space="preserve" version="1.1">

 <g>
  <title>Layer 1</title>
  <path stroke="null" id="svg_3" d="m14.7586,4.56192l-2.79745,-3.54791c-0.07016,-0.08847 -0.17389,-0.14033 -0.28676,-0.14033l-7.34597,0c-0.11287,0 -0.2166,0.05186 -0.28676,0.14033l-2.79745,3.54791c-0.05186,0.06406 -0.07932,0.14338 -0.07932,0.22575l0,9.97258c0,0.20134 0.16474,0.36608 0.36608,0.36608l12.93781,0c0.20134,0 0.36608,-0.16474 0.36608,-0.36608l0,-9.97258c0.00305,-0.08237 -0.02441,-0.16168 -0.07627,-0.22575zm-0.99451,-0.07932l-5.3966,0l0,-2.87676l3.12997,0l2.26663,2.87676zm-9.25873,-2.87676l3.12997,0l0,2.87676l-5.3966,0l2.26663,-2.87676zm-2.60831,12.78833l0,-9.17941l12.20565,0l0,9.17941l-12.20565,0l0,0z"/>
  <g id="svg_5"/>
  <g id="svg_6"/>
  <g id="svg_7"/>
  <g id="svg_8"/>
  <g id="svg_9"/>
  <g id="svg_10"/>
  <g id="svg_11"/>
  <g id="svg_12"/>
  <g id="svg_13"/>
  <g id="svg_14"/>
  <g id="svg_15"/>
  <g id="svg_16"/>
  <g id="svg_17"/>
  <g id="svg_18"/>
  <g id="svg_19"/>
  <g stroke="null">
   <path stroke="null" d="m6.24959,7.68703l1.75041,1.75041l1.74321,-1.74321c0.06173,-0.06569 0.14756,-0.1034 0.23771,-0.10445c0.19892,0 0.36017,0.16125 0.36017,0.36017c0.00169,0.08925 -0.0335,0.17526 -0.09724,0.23771l-1.76121,1.74321l1.76121,1.76121c0.05936,0.05806 0.09418,0.13672 0.09724,0.2197c0,0.19892 -0.16125,0.36017 -0.36017,0.36017c-0.09281,0.00385 -0.18296,-0.03144 -0.24851,-0.09724l-1.7324,-1.75041l-1.74681,1.74681c-0.06148,0.0635 -0.14576,0.0998 -0.23411,0.10085c-0.19892,0 -0.36017,-0.16125 -0.36017,-0.36017c-0.00169,-0.08925 0.0335,-0.17526 0.09724,-0.23771l1.76121,-1.74321l-1.76121,-1.76121c-0.05936,-0.05806 -0.09418,-0.13672 -0.09724,-0.2197c0,-0.19892 0.16125,-0.36017 0.36017,-0.36017c0.08658,0.00104 0.16931,0.03594 0.23051,0.09724z"/>
  </g>
 </g>
</svg>