<?xml version="1.0" encoding="UTF-8"?>
<svg xmlns="http://www.w3.org/2000/svg" xmlns:xlink="http://www.w3.org/1999/xlink" width="16pt" height="16pt" viewBox="0 0 16 16" version="1.1">
<g id="surface1">
<path style=" stroke:none;fill-rule:nonzero;fill:rgb(0%,0%,0%);fill-opacity:1;" d="M 8.011719 4.015625 C 6.601562 4.132812 5.335938 4.652344 4.238281 5.5625 C 4.160156 5.625 3.96875 5.804688 3.816406 5.953125 C 3.457031 6.3125 3.234375 6.585938 2.980469 6.964844 L 2.867188 7.136719 L 1.882812 6.515625 C 1.339844 6.175781 0.894531 5.898438 0.894531 5.902344 C 0.890625 5.90625 1.894531 10.28125 1.945312 10.472656 C 1.949219 10.488281 1.957031 10.5 1.96875 10.5 C 1.984375 10.5 3.078125 10.246094 5.695312 9.640625 C 6.15625 9.535156 6.535156 9.445312 6.535156 9.441406 C 6.539062 9.441406 6.539062 9.433594 6.535156 9.433594 C 6.535156 9.429688 5.96875 9.074219 5.28125 8.644531 C 4.59375 8.214844 4.027344 7.855469 4.027344 7.847656 C 4.019531 7.832031 4.164062 7.617188 4.304688 7.433594 C 5.097656 6.390625 6.257812 5.675781 7.550781 5.433594 C 8.246094 5.300781 8.984375 5.3125 9.679688 5.464844 C 11.714844 5.910156 13.328125 7.539062 13.746094 9.574219 C 13.785156 9.753906 13.785156 9.757812 13.816406 9.753906 C 13.875 9.746094 15.101562 9.527344 15.109375 9.523438 C 15.117188 9.511719 15.027344 9.09375 14.976562 8.910156 C 14.542969 7.328125 13.558594 5.980469 12.191406 5.082031 C 11.570312 4.675781 10.90625 4.382812 10.195312 4.203125 C 9.875 4.121094 9.585938 4.070312 9.25 4.03125 C 9.039062 4.007812 8.226562 3.996094 8.011719 4.015625 Z M 8.011719 4.015625 "/>
<path style=" stroke:none;fill-rule:nonzero;fill:rgb(0%,0%,0%);fill-opacity:1;" d="M 8.363281 9.339844 C 8.226562 9.355469 8.085938 9.398438 7.957031 9.460938 C 7.59375 9.636719 7.339844 9.945312 7.234375 10.351562 C 7.203125 10.472656 7.191406 10.722656 7.210938 10.863281 C 7.289062 11.394531 7.671875 11.820312 8.203125 11.964844 C 8.292969 11.988281 8.335938 11.992188 8.542969 11.992188 C 8.765625 11.992188 8.789062 11.988281 8.894531 11.957031 C 9.363281 11.816406 9.710938 11.464844 9.832031 11.003906 C 9.863281 10.894531 9.867188 10.859375 9.867188 10.667969 C 9.867188 10.480469 9.863281 10.441406 9.832031 10.332031 C 9.660156 9.675781 9.03125 9.25 8.363281 9.339844 Z M 8.363281 9.339844 "/>
</g>
</svg>
