<?xml version="1.0" standalone="no"?>
<!DOCTYPE svg PUBLIC "-//W3C//DTD SVG 20010904//EN"
 "http://www.w3.org/TR/2001/REC-SVG-20010904/DTD/svg10.dtd">
<svg version="1.0" xmlns="http://www.w3.org/2000/svg"
 width="1280.000000pt" height="1280.000000pt" viewBox="0 0 1280.000000 1280.000000"
 preserveAspectRatio="xMidYMid meet">
<metadata>
Created by potrace 1.16, written by Peter Selinger 2001-2019
</metadata>
<g transform="translate(0.000000,1280.000000) scale(0.100000,-0.100000)"
fill="#000000" stroke="none">
<path d="M6410 9589 c-1130 -95 -2141 -510 -3020 -1238 -63 -52 -214 -194
-336 -315 -287 -287 -467 -504 -670 -808 l-91 -136 -787 495 c-433 272 -789
493 -791 491 -3 -2 802 -3502 840 -3656 3 -12 12 -22 20 -22 13 0 889 202
2980 686 369 86 672 158 674 160 2 2 2 6 0 8 -2 2 -454 286 -1004 630 -550
345 -1002 631 -1004 637 -4 14 110 185 222 332 635 835 1562 1406 2597 1601
557 105 1147 96 1703 -25 1630 -356 2920 -1660 3255 -3289 30 -143 30 -145 56
-142 47 5 1028 181 1032 184 7 8 -65 342 -106 491 -346 1263 -1132 2343 -2227
3061 -496 325 -1028 560 -1598 704 -255 65 -485 107 -755 138 -169 19 -820 28
-990 13z"/>
<path d="M6692 5329 c-111 -14 -222 -47 -326 -97 -292 -140 -493 -387 -578
-712 -26 -98 -35 -299 -18 -411 62 -425 367 -764 793 -881 72 -20 105 -23 272
-22 177 0 196 2 280 27 377 114 653 394 752 765 24 87 27 115 27 267 0 152 -3
181 -27 270 -139 524 -641 864 -1175 794z"/>
</g>
</svg>
