<svg width="1280" height="1280" xmlns="http://www.w3.org/2000/svg" preserveAspectRatio="xMidYMid meet">
 <metadata>Created by potrace 1.16, written by Peter Selinger 2001-2019</metadata>

 <g>
  <title>background</title>
  <rect fill="none" id="canvas_background" height="402" width="582" y="-1" x="-1"/>
 </g>
 <g>
  <title>Layer 1</title>
  <g id="svg_1" fill="#000000" transform="rotate(180 636.299072265625,644.1630249023438) translate(0,1280) scale(0.10000000149011612,-0.10000000149011612) ">
   <path id="svg_2" d="m5488.888885,11574.555553c-1869,-70 -3557,-1142 -4431,-2814c-645,-1235 -764,-2710 -324,-4040c274,-829 747,-1571 1389,-2174c806,-757 1831,-1240 2921,-1375c406,-51 889,-51 1300,-1c892,108 1763,461 2490,1009c289,218 620,528 837,786c588,698 972,1487 1147,2358c34,166 71,414 71,470c0,37 3,34 353,-316l352,-352l330,330l330,330l-903,903l-902,902l-902,-903l-903,-902l330,-330l330,-329l320,313c176,173 321,312 323,311c7,-6 -40,-253 -74,-395c-263,-1101 -964,-2064 -1941,-2666c-1256,-774 -2855,-839 -4168,-169c-1217,621 -2071,1772 -2300,3100c-47,276 -59,421 -59,735c0,314 12,459 59,735c294,1705 1609,3083 3301,3459c263,58 664,106 894,106l40,0l0,465c0,256 -3,464 -7,463c-5,-1 -96,-5 -203,-9z"/>
   <path id="svg_3" d="m3225.888885,9007.555553l-227,-227l403,-403c221,-221 407,-402 412,-402c6,0 111,101 235,225l225,225l-405,405c-223,223 -407,405 -410,405c-3,0 -107,-102 -233,-228z"/>
   <path id="svg_4" d="m5298.888885,7407.555553l0,-1727l897,-908l897,-908l348,348l348,348l-760,760l-760,760l0,1528l0,1527l-485,0l-485,0l0,-1728z"/>
   <path id="svg_5" d="m1948.888885,6280.555553l0,-325l575,0l575,0l0,325l0,325l-575,0l-575,0l0,-325z"/>
   <path id="svg_6" d="m3400.888885,4182.555553l-402,-402l230,-230l230,-230l407,408l408,407l-225,225c-124,124 -229,225 -235,225c-6,0 -191,-181 -413,-403z"/>
   <path id="svg_7" d="m5638.888885,2990.555553l0,-575l325,0l325,0l0,575l0,575l-325,0l-325,0l0,-575z"/>
  </g>
 </g>
</svg>