<?xml version="1.0" encoding="UTF-8"?>
<svg xmlns="http://www.w3.org/2000/svg" xmlns:xlink="http://www.w3.org/1999/xlink" width="16pt" height="16pt" viewBox="0 0 16 16" version="1.1">
<g id="surface1">
<path style=" stroke:none;fill-rule:nonzero;fill:rgb(0%,0%,0%);fill-opacity:1;" d="M 9.046875 14.574219 C 11.382812 14.484375 13.492188 13.144531 14.585938 11.054688 C 15.390625 9.511719 15.539062 7.667969 14.988281 6.003906 C 14.648438 4.96875 14.054688 4.042969 13.253906 3.289062 C 12.246094 2.339844 10.964844 1.738281 9.601562 1.570312 C 9.09375 1.503906 8.492188 1.503906 7.976562 1.566406 C 6.863281 1.703125 5.773438 2.144531 4.863281 2.828125 C 4.503906 3.101562 4.089844 3.488281 3.820312 3.8125 C 3.082031 4.683594 2.605469 5.667969 2.386719 6.757812 C 2.34375 6.964844 2.296875 7.277344 2.296875 7.347656 C 2.296875 7.390625 2.292969 7.386719 1.855469 6.949219 L 1.414062 6.511719 L 0.589844 7.335938 L 2.847656 9.59375 L 3.972656 8.464844 L 5.101562 7.335938 L 4.691406 6.921875 L 4.277344 6.511719 L 3.878906 6.902344 C 3.65625 7.121094 3.476562 7.292969 3.472656 7.292969 C 3.464844 7.285156 3.523438 6.976562 3.566406 6.796875 C 3.894531 5.421875 4.769531 4.21875 5.992188 3.464844 C 7.5625 2.5 9.5625 2.417969 11.203125 3.253906 C 12.722656 4.03125 13.792969 5.46875 14.078125 7.128906 C 14.136719 7.476562 14.152344 7.65625 14.152344 8.046875 C 14.152344 8.441406 14.136719 8.621094 14.078125 8.96875 C 13.710938 11.097656 12.066406 12.820312 9.953125 13.292969 C 9.621094 13.363281 9.121094 13.421875 8.832031 13.421875 L 8.785156 13.421875 L 8.785156 14.003906 C 8.785156 14.324219 8.789062 14.585938 8.792969 14.582031 C 8.800781 14.582031 8.914062 14.578125 9.046875 14.574219 Z M 9.046875 14.574219 "/>
<path style=" stroke:none;fill-rule:nonzero;fill:rgb(0%,0%,0%);fill-opacity:1;" d="M 11.875 11.363281 L 12.160156 11.078125 L 11.65625 10.574219 C 11.378906 10.300781 11.144531 10.074219 11.140625 10.074219 C 11.132812 10.074219 11 10.199219 10.847656 10.355469 L 10.566406 10.636719 L 11.070312 11.140625 C 11.351562 11.421875 11.582031 11.648438 11.582031 11.648438 C 11.585938 11.648438 11.71875 11.519531 11.875 11.363281 Z M 11.875 11.363281 "/>
<path style=" stroke:none;fill-rule:nonzero;fill:rgb(0%,0%,0%);fill-opacity:1;" d="M 9.285156 9.363281 L 9.285156 7.203125 L 8.164062 6.070312 L 7.042969 4.933594 L 6.171875 5.804688 L 8.070312 7.703125 L 8.070312 11.523438 L 9.285156 11.523438 Z M 9.285156 9.363281 "/>
<path style=" stroke:none;fill-rule:nonzero;fill:rgb(0%,0%,0%);fill-opacity:1;" d="M 13.472656 7.953125 L 13.472656 7.546875 L 12.035156 7.546875 L 12.035156 8.359375 L 13.472656 8.359375 Z M 13.472656 7.953125 "/>
<path style=" stroke:none;fill-rule:nonzero;fill:rgb(0%,0%,0%);fill-opacity:1;" d="M 11.65625 5.332031 L 12.160156 4.828125 L 11.871094 4.542969 L 11.582031 4.253906 L 11.074219 4.765625 L 10.566406 5.273438 L 10.847656 5.554688 C 11 5.710938 11.132812 5.835938 11.140625 5.835938 C 11.148438 5.835938 11.378906 5.609375 11.65625 5.332031 Z M 11.65625 5.332031 "/>
<path style=" stroke:none;fill-rule:nonzero;fill:rgb(0%,0%,0%);fill-opacity:1;" d="M 8.859375 3.84375 L 8.859375 3.125 L 8.046875 3.125 L 8.046875 4.5625 L 8.859375 4.5625 Z M 8.859375 3.84375 "/>
</g>
</svg>
