<?xml version="1.0" encoding="UTF-8"?>
<svg xmlns="http://www.w3.org/2000/svg" xmlns:xlink="http://www.w3.org/1999/xlink" width="16pt" height="16pt" viewBox="0 0 16 16" version="1.1">
<g id="surface1">
<path style=" stroke:none;fill-rule:nonzero;fill:rgb(0%,0%,0%);fill-opacity:1;" d="M 12.808594 2.054688 C 12.898438 2.054688 12.984375 2.082031 13.050781 2.152344 C 13.878906 3.039062 14.734375 4.917969 14.640625 6.105469 C 14.273438 10.578125 10.207031 11.230469 7.015625 11.273438 L 7.015625 13.609375 C 7.015625 13.746094 6.9375 13.867188 6.8125 13.917969 C 6.6875 13.96875 6.542969 13.941406 6.449219 13.847656 L 1.449219 8.851562 C 1.386719 8.789062 1.351562 8.703125 1.351562 8.613281 C 1.351562 8.527344 1.386719 8.441406 1.449219 8.378906 L 6.449219 3.382812 C 6.542969 3.285156 6.6875 3.257812 6.8125 3.308594 C 6.9375 3.359375 7.015625 3.484375 7.015625 3.617188 L 7.015625 6.269531 C 9.191406 6.558594 10.753906 6.230469 11.628906 5.304688 C 12.410156 4.476562 12.523438 3.292969 12.476562 2.429688 C 12.472656 2.40625 12.46875 2.398438 12.46875 2.378906 C 12.46875 2.195312 12.621094 2.054688 12.804688 2.054688 Z M 6.667969 10.589844 C 6.671875 10.589844 6.675781 10.597656 6.679688 10.597656 C 11.46875 10.59375 13.71875 9.191406 13.976562 6.039062 C 14.035156 5.316406 13.625 4.203125 13.121094 3.359375 C 13.023438 4.335938 12.683594 5.15625 12.113281 5.757812 C 11.316406 6.609375 10.082031 7.039062 8.453125 7.039062 C 7.929688 7.039062 7.351562 6.992188 6.742188 6.902344 L 6.707031 6.90625 C 6.617188 6.910156 6.523438 6.878906 6.457031 6.816406 C 6.390625 6.753906 6.351562 6.664062 6.351562 6.574219 L 6.351562 4.421875 L 2.15625 8.613281 L 6.351562 12.804688 L 6.351562 11.074219 C 6.332031 11.035156 6.304688 10.992188 6.304688 10.945312 C 6.300781 10.832031 6.351562 10.625 6.617188 10.609375 L 6.617188 10.589844 Z M 6.667969 10.589844 "/>
</g>
</svg>
