<svg class="icon" style="width: 1em; height: 1em;vertical-align: middle;fill: currentColor;overflow: hidden;" viewBox="0 0 1024 1024" version="1.1" xmlns="http://www.w3.org/2000/svg"><path d="M808.137329 63.045739H211.308429c-40.523333 0-73.495513 32.944534-73.495512 73.467867v749.346858c0 40.523333 32.971155 73.495513 73.495512 73.495512h596.8289c40.523333 0 73.482202-32.972179 73.482202-73.495512V136.513606c0-40.523333-32.958869-73.467868-73.482202-73.467867z m17.443934 822.814725c0 9.631689-7.825556 17.457245-17.443934 17.457244H211.308429c-9.631689 0-17.457245-7.825556-17.457244-17.457244V136.513606c0-9.604044 7.825556-17.4296 17.457244-17.429599h596.8289c9.618379 0 17.443934 7.825556 17.443934 17.429599v749.346858z" fill="#3E3A39" /><path d="M718.539172 266.895164H448.568256c-15.472955 0-28.018622 12.532356-28.018622 28.019646s12.545667 28.019646 28.018622 28.019645h269.970916c15.472955 0 28.018622-12.532356 28.018622-28.019645s-12.545667-28.019646-28.018622-28.019646zM718.539172 485.849969H448.568256c-15.472955 0-28.018622 12.532356-28.018622 28.018622 0 15.487289 12.545667 28.019646 28.018622 28.019646h269.970916c15.472955 0 28.018622-12.532356 28.018622-28.019646s-12.545667-28.018622-28.018622-28.018622zM718.539172 699.440639H448.568256c-15.472955 0-28.018622 12.532356-28.018622 28.019645s12.545667 28.018622 28.018622 28.018622h269.970916c15.472955 0 28.018622-12.532356 28.018622-28.018622 0-15.487289-12.545667-28.019646-28.018622-28.019645z" fill="#3E3A39" /><path d="M321.933095 294.921977m-46.177228 0a46.177228 46.177228 0 1 0 92.354457 0 46.177228 46.177228 0 1 0-92.354457 0Z" fill="#3E3A39" /><path d="M321.933095 513.881901m-46.177228 0a46.177228 46.177228 0 1 0 92.354457 0 46.177228 46.177228 0 1 0-92.354457 0Z" fill="#3E3A39" /><path d="M321.933095 727.468476m-46.177228 0a46.177228 46.177228 0 1 0 92.354457 0 46.177228 46.177228 0 1 0-92.354457 0Z" fill="#3E3A39" /></svg>