<?xml version="1.0" encoding="UTF-8"?>
<svg xmlns="http://www.w3.org/2000/svg" xmlns:xlink="http://www.w3.org/1999/xlink" width="16pt" height="16pt" viewBox="0 0 16 16" version="1.1">
<g id="surface1">
<path style=" stroke:none;fill-rule:nonzero;fill:rgb(0%,0%,0%);fill-opacity:1;" d="M 8.027344 1.632812 C 11.535156 1.640625 14.371094 4.484375 14.367188 7.980469 C 14.359375 11.484375 11.507812 14.328125 8.019531 14.320312 C 4.515625 14.320312 1.683594 11.484375 1.679688 7.972656 C 1.671875 4.480469 4.53125 1.628906 8.027344 1.632812 Z M 8.613281 9.871094 C 8.628906 9.84375 8.640625 9.832031 8.648438 9.816406 C 8.65625 9.777344 8.664062 9.734375 8.667969 9.6875 C 8.722656 9.011719 9.035156 8.46875 9.496094 7.996094 C 9.671875 7.8125 9.839844 7.621094 10.011719 7.4375 C 10.523438 6.882812 10.648438 6.226562 10.492188 5.507812 C 10.269531 4.511719 9.433594 3.742188 8.40625 3.570312 C 7.4375 3.410156 6.40625 3.882812 5.878906 4.734375 C 5.628906 5.136719 5.484375 5.570312 5.5 6.078125 C 5.816406 6.078125 6.121094 6.078125 6.425781 6.078125 C 6.527344 6.078125 6.625 6.078125 6.730469 6.078125 C 6.746094 6.011719 6.746094 5.96875 6.753906 5.929688 C 6.839844 5.378906 7.273438 4.914062 7.773438 4.832031 C 8.335938 4.734375 8.859375 4.988281 9.136719 5.496094 C 9.40625 5.976562 9.328125 6.519531 8.914062 6.957031 C 8.613281 7.285156 8.296875 7.589844 8.011719 7.921875 C 7.53125 8.476562 7.328125 9.125 7.410156 9.878906 C 7.828125 9.871094 8.230469 9.871094 8.613281 9.871094 Z M 7.421875 11.183594 C 7.421875 11.605469 7.421875 12 7.421875 12.390625 C 7.835938 12.390625 8.230469 12.390625 8.628906 12.390625 C 8.628906 11.984375 8.628906 11.589844 8.628906 11.183594 C 8.222656 11.183594 7.828125 11.183594 7.421875 11.183594 Z M 7.421875 11.183594 "/>
</g>
</svg>
