<?xml version="1.0" encoding="UTF-8"?>
<svg xmlns="http://www.w3.org/2000/svg" xmlns:xlink="http://www.w3.org/1999/xlink" width="16pt" height="16pt" viewBox="0 0 16 16" version="1.1">
<g id="surface1">
<path style=" stroke:none;fill-rule:nonzero;fill:rgb(0%,0%,0%);fill-opacity:1;" d="M 7.976562 13.449219 L 3.074219 13.449219 C 2.773438 13.449219 2.527344 13.207031 2.527344 12.90625 L 2.527344 3.09375 C 2.527344 2.792969 2.773438 2.550781 3.074219 2.550781 L 7.976562 2.550781 C 8.28125 2.550781 8.523438 2.304688 8.523438 2.003906 C 8.523438 1.703125 8.28125 1.460938 7.976562 1.460938 L 3.074219 1.460938 C 2.171875 1.460938 1.4375 2.191406 1.4375 3.09375 L 1.4375 12.90625 C 1.4375 13.808594 2.171875 14.539062 3.074219 14.539062 L 7.976562 14.539062 C 8.28125 14.539062 8.523438 14.296875 8.523438 13.996094 C 8.523438 13.695312 8.28125 13.449219 7.976562 13.449219 Z M 7.976562 13.449219 "/>
<path style=" stroke:none;fill-rule:nonzero;fill:rgb(0%,0%,0%);fill-opacity:1;" d="M 14.398438 7.613281 L 11.085938 4.339844 C 10.871094 4.128906 10.527344 4.132812 10.316406 4.347656 C 10.105469 4.5625 10.105469 4.90625 10.320312 5.117188 L 12.6875 7.453125 L 6.34375 7.453125 C 6.042969 7.453125 5.796875 7.699219 5.796875 8 C 5.796875 8.300781 6.042969 8.546875 6.34375 8.546875 L 12.6875 8.546875 L 10.320312 10.882812 C 10.105469 11.09375 10.105469 11.4375 10.316406 11.652344 C 10.421875 11.761719 10.5625 11.816406 10.703125 11.816406 C 10.84375 11.816406 10.980469 11.761719 11.085938 11.660156 L 14.398438 8.386719 C 14.503906 8.285156 14.5625 8.144531 14.5625 8 C 14.5625 7.855469 14.503906 7.714844 14.398438 7.613281 Z M 14.398438 7.613281 "/>
</g>
</svg>
