<svg width="512" height="512" xmlns="http://www.w3.org/2000/svg">

 <g>
  <title>background</title>
  <rect fill="none" id="canvas_background" height="2050.0466" width="2050.0466" y="-1" x="-1"/>
 </g>
 <g>
  <title>Layer 1</title>
  <g stroke="null" id="svg_22">
   <g stroke="null" id="svg_1">
    <g stroke="null" id="svg_2">
     <path stroke="null" id="svg_3" d="m255.30274,430.41934l-156.97746,0c-9.62801,0 -17.44148,-7.8143 -17.44148,-17.44148l0,-313.9541c0,-9.62801 7.8143,-17.44148 17.44148,-17.44148l156.97746,0c9.64523,0 17.44148,-7.79625 17.44148,-17.44148s-7.79625,-17.44313 -17.44148,-17.44313l-156.97746,0c-28.84875,0 -52.32527,23.47734 -52.32527,52.32609l0,313.95328c0,28.84875 23.47652,52.32527 52.32527,52.32527l156.97746,0c9.64523,0 17.44148,-7.79625 17.44148,-17.44148c0,-9.64523 -7.79625,-17.44148 -17.44148,-17.44148z"/>
    </g>
   </g>
   <g stroke="null" id="svg_4">
    <g stroke="null" id="svg_5">
     <path stroke="null" id="svg_6" d="m460.8025,243.58169l-106.04672,-104.65137c-6.8373,-6.76758 -17.89512,-6.6798 -24.6627,0.17473s-6.69785,17.89512 0.17473,24.6627l75.78457,74.79035l-203.07574,0c-9.64523,0 -17.44148,7.79625 -17.44148,17.44148c0,9.64523 7.79625,17.4423 17.44148,17.4423l203.07574,0l-75.78457,74.79035c-6.87176,6.76758 -6.92426,17.80816 -0.17473,24.6627c3.41824,3.45352 7.91848,5.1975 12.41871,5.1975c4.43051,0 8.8602,-1.67426 12.24398,-5.02359l106.04672,-104.65137c3.31406,-3.27879 5.1975,-7.74457 5.1975,-12.41871c0,-4.6725 -1.86621,-9.12023 -5.1975,-12.41707z"/>
    </g>
   </g>
   <g stroke="null" id="svg_7"/>
   <g stroke="null" id="svg_8"/>
   <g stroke="null" id="svg_9"/>
   <g stroke="null" id="svg_10"/>
   <g stroke="null" id="svg_11"/>
   <g stroke="null" id="svg_12"/>
   <g stroke="null" id="svg_13"/>
   <g stroke="null" id="svg_14"/>
   <g stroke="null" id="svg_15"/>
   <g stroke="null" id="svg_16"/>
   <g stroke="null" id="svg_17"/>
   <g stroke="null" id="svg_18"/>
   <g stroke="null" id="svg_19"/>
   <g stroke="null" id="svg_20"/>
   <g stroke="null" id="svg_21"/>
  </g>
 </g>
</svg>