<?xml version="1.0" encoding="UTF-8"?>
<svg xmlns="http://www.w3.org/2000/svg" xmlns:xlink="http://www.w3.org/1999/xlink" width="16pt" height="16pt" viewBox="0 0 16 16" version="1.1">
<g id="surface1">
<path style=" stroke:none;fill-rule:nonzero;fill:rgb(0%,0%,0%);fill-opacity:1;" d="M 9.707031 13.707031 L 14.707031 8.707031 C 15.097656 8.316406 15.097656 7.683594 14.707031 7.292969 L 9.707031 2.292969 C 9.316406 1.902344 8.683594 1.902344 8.292969 2.292969 C 7.902344 2.683594 7.902344 3.316406 8.292969 3.707031 L 11.585938 7 L 2 7 C 1.449219 7 1 7.449219 1 8 C 1 8.550781 1.449219 9 2 9 L 11.585938 9 L 8.292969 12.292969 C 8.097656 12.488281 8 12.742188 8 13 C 8 13.257812 8.097656 13.511719 8.292969 13.707031 C 8.683594 14.097656 9.316406 14.097656 9.707031 13.707031 Z M 9.707031 13.707031 "/>
</g>
</svg>
