<svg width="499.99999999999994" height="499.99999999999994" xmlns="http://www.w3.org/2000/svg">

 <g>
  <title>background</title>
  <rect fill="none" id="canvas_background" height="502" width="502" y="-1" x="-1"/>
 </g>
 <g>
  <title>Layer 1</title>
  <g stroke="null" id="svg_1">
   <g id="svg_12">
    <path fill="#000000" stroke="null" id="svg_2" d="m459.27656,94.54893l-17.39969,-5.79517l8.20392,-16.40076l-27.2614,-27.2614l-16.40076,8.20392l-5.79517,-17.39969l-38.5471,0l-5.79517,17.39969l-16.40076,-8.20392l-27.2614,27.2614l8.20392,16.40076l-17.40677,5.79517l0,38.5471l17.39969,5.79517l-8.20392,16.40076l27.2614,27.2614l16.40076,-8.20392l5.79517,17.40677l38.5471,0l5.79517,-17.39969l16.40076,8.20392l27.2614,-27.2614l-8.20392,-16.40076l17.40677,-5.79517l0,-38.55419zm-14.16912,28.33825l-16.26616,5.41969l-1.19021,3.13846c-0.34714,0.91391 -0.70846,1.79948 -1.09102,2.67796l-1.37441,3.06762l7.65841,15.31682l-12.81597,12.81597l-15.31682,-7.65841l-3.06762,1.37441c-0.87849,0.38965 -1.76406,0.74388 -2.67796,1.09102l-3.13846,1.19021l-5.41969,16.26616l-18.12939,0l-5.41969,-16.26616l-3.13846,-1.19021c-0.91391,-0.34714 -1.79948,-0.70846 -2.67796,-1.09102l-3.06762,-1.37441l-15.31682,7.65841l-12.81597,-12.81597l7.65841,-15.31682l-1.37441,-3.06762c-0.38965,-0.87849 -0.74388,-1.76406 -1.09102,-2.67796l-1.19021,-3.13846l-16.25907,-5.41969l0,-18.12939l16.26616,-5.41969l1.19021,-3.13846c0.34714,-0.91391 0.70846,-1.79948 1.09102,-2.67796l1.37441,-3.06762l-7.65841,-15.30974l12.81597,-12.81597l15.31682,7.65841l3.06762,-1.37441c0.87849,-0.38965 1.76406,-0.74388 2.67796,-1.09102l3.13846,-1.19021l5.41969,-16.26616l18.12939,0l5.41969,16.26616l3.13846,1.19021c0.91391,0.34714 1.79948,0.70846 2.67796,1.09102l3.06762,1.37441l15.31682,-7.65841l12.81597,12.81597l-7.65841,15.31682l1.37441,3.06762c0.38965,0.87849 0.74388,1.76406 1.09102,2.67796l1.19021,3.13846l16.25907,5.41969l0,18.12231z"/>
    <path fill="#000000" stroke="null" id="svg_3" d="m381.34637,78.40322c-19.53214,0 -35.42281,15.89067 -35.42281,35.42281s15.89067,35.42281 35.42281,35.42281s35.42281,-15.89067 35.42281,-35.42281s-15.89067,-35.42281 -35.42281,-35.42281zm0,56.6765c-11.71787,0 -21.25369,-9.53582 -21.25369,-21.25369s9.53582,-21.25369 21.25369,-21.25369s21.25369,9.53582 21.25369,21.25369s-9.53582,21.25369 -21.25369,21.25369z"/>
    <path fill="#000000" stroke="null" id="svg_4" d="m187.38804,344.70097l-27.2614,-27.2614l-16.40076,8.20392l-5.79517,-17.39969l-38.55419,0l-5.79517,17.39969l-16.40076,-8.20392l-27.2614,27.2614l8.20392,16.40076l-17.39969,5.79517l0,38.5471l17.39969,5.79517l-8.20392,16.40076l27.2614,27.2614l16.40076,-8.20392l5.79517,17.40677l38.5471,0l5.79517,-17.39969l16.40076,8.20392l27.2614,-27.2614l-8.20392,-16.40076l17.40677,-5.79517l0,-38.5471l-17.39969,-5.79517l8.20392,-16.40785zm-4.97336,32.41187l0,18.12939l-16.26616,5.41969l-1.19021,3.13846c-0.34714,0.91391 -0.70846,1.79948 -1.09102,2.67796l-1.37441,3.06762l7.65841,15.31682l-12.81597,12.81597l-15.31682,-7.65841l-3.06762,1.37441c-0.87849,0.38965 -1.76406,0.74388 -2.67796,1.09102l-3.13846,1.19021l-5.41969,16.25907l-18.12939,0l-5.41969,-16.26616l-3.13846,-1.19021c-0.91391,-0.34714 -1.79948,-0.70846 -2.67796,-1.09102l-3.06762,-1.37441l-15.30974,7.65841l-12.81597,-12.81597l7.65841,-15.31682l-1.37441,-3.06762c-0.38965,-0.87849 -0.74388,-1.76406 -1.09102,-2.67796l-1.19021,-3.13846l-16.26616,-5.41969l0,-18.12939l16.26616,-5.41969l1.19021,-3.13846c0.34714,-0.91391 0.70846,-1.79948 1.09102,-2.67796l1.37441,-3.06762l-7.65841,-15.30974l12.81597,-12.81597l15.31682,7.65841l3.06762,-1.37441c0.87849,-0.38965 1.76406,-0.74388 2.67796,-1.09102l3.13846,-1.19021l5.41969,-16.26616l18.12939,0l5.41969,16.26616l3.13846,1.19021c0.91391,0.34714 1.79948,0.70846 2.67796,1.09102l3.06762,1.37441l15.31682,-7.65841l12.81597,12.81597l-7.65841,15.31682l1.37441,3.06762c0.38965,0.87849 0.74388,1.76406 1.09102,2.67796l1.19021,3.13846l16.25907,5.41969z"/>
    <path fill="#000000" stroke="null" id="svg_5" d="m118.65362,350.75118c-19.53214,0 -35.42281,15.89067 -35.42281,35.42281s15.89067,35.42281 35.42281,35.42281s35.42281,-15.89067 35.42281,-35.42281s-15.89067,-35.42281 -35.42281,-35.42281zm0,56.6765c-11.71787,0 -21.25369,-9.53582 -21.25369,-21.25369s9.53582,-21.25369 21.25369,-21.25369s21.25369,9.53582 21.25369,21.25369s-9.53582,21.25369 -21.25369,21.25369z"/>
    <path fill="#000000" stroke="null" id="svg_7" d="m400.3262,223.62419c-3.78316,-5.66057 -10.10259,-9.04699 -16.91085,-9.04699s-13.12769,3.38642 -16.91085,9.04699l-36.75471,55.12498c-1.96951,2.96843 -3.01094,6.41153 -3.01094,9.96798c0,9.89713 8.06223,17.95937 17.95937,17.95937l10.37888,0l0,56.6765l-120.43756,0l0,14.16912l120.43756,0c7.81427,0 14.16912,-6.35485 14.16912,-14.16912l0,-70.84562l-24.54801,0c-2.08995,0 -3.79024,-1.70029 -3.79024,-3.79024c0,-0.75096 0.21962,-1.48067 0.63761,-2.10412l36.75471,-55.12498c2.28123,-3.42893 7.95596,-3.42893 10.23719,0l36.75471,55.12498c0.41799,0.62344 0.63761,1.34607 0.63761,2.10412c-0.00708,2.08995 -1.70738,3.79024 -3.79733,3.79024l-24.54801,0l0,85.01475c0,15.62854 -12.7097,28.33825 -28.33825,28.33825l-134.60668,0l0,14.16912l134.60668,0c23.44282,0 42.50737,-19.06456 42.50737,-42.50737l0,-70.84562l10.37888,0c9.89713,0 17.95937,-8.06223 17.95937,-17.95937c0,-3.55645 -1.04143,-6.99955 -3.01802,-9.96089l-36.74762,-55.13206z"/>
    <path fill="#000000" stroke="null" id="svg_9" d="m98.29448,278.44481c3.78316,5.66057 10.10259,9.04699 16.91085,9.04699s13.12769,-3.38642 16.91085,-9.04699l36.75471,-55.12498c1.96951,-2.96843 3.01094,-6.41153 3.01094,-9.96798c0,-9.89713 -8.06223,-17.95937 -17.95937,-17.95937l-10.37888,0l0,-56.6765l120.43756,0l0,-14.16912l-120.43756,0c-7.81427,0 -14.16912,6.35485 -14.16912,14.16912l0,70.84562l24.54801,0c2.08995,0 3.79024,1.70029 3.79024,3.79024c0,0.75096 -0.21962,1.48067 -0.63761,2.10412l-36.75471,55.12498c-2.28123,3.42893 -7.95596,3.42893 -10.23719,0l-36.74762,-55.12498c-0.41799,-0.62344 -0.63761,-1.34607 -0.63761,-2.10412c0,-2.08995 1.70029,-3.79024 3.79024,-3.79024l24.54801,0l0,-85.01475c0,-15.62854 12.7097,-28.33825 28.33825,-28.33825l134.60668,0l0,-14.16912l-134.60668,0c-23.44282,0 -42.50737,19.06456 -42.50737,42.50737l0,70.84562l-10.37888,0c-9.89713,0 -17.95937,8.06223 -17.95937,17.95937c0,3.55645 1.04143,6.99955 3.01802,9.96089l36.74762,55.13206z"/>
   </g>
  </g>
  <g stroke="null" transform="matrix(5.479960458410063,0,0,5.409519675531153,-505.75353841324096,-488.75371629808467) " id="svg_25">
   <title fill="#ff0000" stroke="null" transform="translate(-3.3979690074920654,0) translate(0,3.3982739448547363) translate(-1.4210854715202004e-14,-0.000007791205462126527) translate(-0.0000030764222174184397,0) translate(-8.360814094543457,0) translate(-1.4210854715202004e-14,8.811014175415039) translate(-1.4210854715202004e-14,0) translate(21.4058780670166,21.68461799621582) translate(-1.4210854715202004e-14,0) translate(-0.5135429501533508,0) translate(1.4210854715202004e-14,-0.8383159637451172) translate(-1.709539532661438,1.6163471937179565) translate(0.6838158369064331,-1.8472540378570557) translate(-3.6470179557800293,-3.579054355621338) translate(1.4210854715202004e-14,318.24017333984375) translate(499.4001159667969,0) translate(1.4210854715202004e-14,0.05642211437225342) translate(-0.02755592204630375,0) translate(113.05754852294922,0) translate(1.4210854715202004e-14,79.20103454589844) translate(-14.86380672454834,-4.498257160186768) translate(0.4889409840106964,-1.0756702423095703) translate(0,-165.5519256591797) translate(0,-165.55191040039062) translate(0,331.10382080078125) translate(-255.55191040039062,0) translate(-255.5519256591797,0) translate(511.1038513183594,0) translate(-511.10382080078125,0) translate(0,-331.1037902832031) translate(0,216.49954223632812) translate(511.1038818359375,0) translate(-267.7755126953125,0) translate(15.548324584960938,-7.823055744171143) translate(-7.7252678871154785,-25.033781051635742) translate(3.6181633472442627,-6.454021453857422) translate(0.39115282893180847,0.4889409840106964) translate(0.39115282893180847,-12.125737190246582) translate(-254.55191040039062,0) translate(0,-164.55191040039062) ">Layer 1</title>
   <g stroke="null" id="svg_19">
    <path stroke="null" d="m140.19645,109.56224l0,-8.66498l-4.57113,0l0,8.66498c-13.1272,1.10379 -23.60987,11.5878 -24.71232,24.71904l-8.66766,0l0,4.57112l8.66766,0c1.10245,13.1272 11.58512,23.60853 24.71232,24.71232l0,8.66901l4.57113,0l0,-8.66901c13.12989,-1.10379 23.61256,-11.58511 24.71501,-24.71231l8.66766,0l0,-4.57113l-8.66766,0c-1.1038,-13.13124 -11.58647,-23.61525 -24.71501,-24.71904zm0,49.43001l0,-6.91047l-4.57113,0l0,6.91047c-10.60905,-1.07421 -19.06697,-9.53214 -20.13984,-20.13985l6.90912,0l0,-4.57112l-6.91047,0c1.07153,-10.61308 9.53215,-19.0737 20.13985,-20.14657l0,6.91181l4.57112,0l0,-6.91181c10.61174,1.07421 19.06967,9.53483 20.14254,20.14657l-6.90912,0l0,4.57112l6.90912,0c-1.07287,10.60771 -9.5308,19.06564 -20.14119,20.13985z" fill="#ff0000" id="svg_21"/>
    <path stroke="null" d="m137.91088,132.26192c-2.3716,0 -4.30089,1.93063 -4.30089,4.30089s1.93063,4.30089 4.30089,4.30089s4.3009,-1.93063 4.3009,-4.30089s-1.92929,-4.30089 -4.3009,-4.30089zm-0.27023,4.30223c0,-0.14789 0.121,-0.27023 0.27023,-0.27023s0.27024,0.12234 0.27024,0.27023c0.00134,0.29444 -0.54047,0.29713 -0.54047,0z" fill="#ff0000" id="svg_20"/>
   </g>
  </g>
 </g>
</svg>