<svg class="icon" style="width: 1em; height: 1em;vertical-align: middle;fill: currentColor;overflow: hidden;" viewBox="0 0 1024 1024" version="1.1" xmlns="http://www.w3.org/2000/svg"><path d="M767.104 862.88l-95.68 0c-17.6 0-31.904-14.24-31.904-31.872l0-63.808c0-17.568 14.304-31.872 31.904-31.872l63.776 0 0-159.488-223.264 0 0 159.488 31.872 0c17.632 0 31.904 14.304 31.904 31.872l0 63.808c0 17.632-14.272 31.872-31.904 31.872l-95.68 0c-17.6 0-31.872-14.24-31.872-31.872l0-63.808c0-17.568 14.272-31.872 31.872-31.872l31.936 0 0-159.488-223.296 0 0 159.488 63.776 0c17.632 0 31.904 14.304 31.904 31.872l0 63.808c0 17.632-14.272 31.872-31.904 31.872l-95.648 0c-17.632 0-31.904-14.24-31.904-31.872l0-63.808c0-17.568 14.272-31.872 31.904-31.872l0-191.36 255.168 0 0-127.584-95.68 0c-17.632 0-31.904-14.272-31.904-31.904l0-159.488c0-17.6 14.272-31.904 31.904-31.904l223.264 0c17.632 0 31.872 14.272 31.872 31.904l0 159.456c0 17.6-14.24 31.904-31.872 31.904l-95.68 0 0 127.584 255.168 0 0 191.36c17.6 0 31.904 14.304 31.904 31.872l0 63.808c-0.032 17.664-14.368 31.904-31.936 31.904zM224.896 767.2l0 63.808 95.648 0 0-63.808-95.648 0zM607.616 384.48l0-159.488-223.264 0 0 159.456 223.264 0zM448.128 767.2l0 63.808 95.68 0 0-63.808-95.68 0zM767.104 767.2l-95.68 0 0 63.808 95.68 0 0-63.808z" /></svg>