<?xml version="1.0" encoding="UTF-8"?>
<svg xmlns="http://www.w3.org/2000/svg" xmlns:xlink="http://www.w3.org/1999/xlink" width="16pt" height="16pt" viewBox="0 0 16 16" version="1.1">
<g id="surface1">
<path style=" stroke:none;fill-rule:nonzero;fill:rgb(0%,0%,0%);fill-opacity:1;" d="M 11.984375 13.484375 L 10.492188 13.484375 C 10.214844 13.484375 9.992188 13.261719 9.992188 12.984375 L 9.992188 11.988281 C 9.992188 11.714844 10.214844 11.488281 10.492188 11.488281 L 11.488281 11.488281 L 11.488281 8.996094 L 8 8.996094 L 8 11.488281 L 8.496094 11.488281 C 8.773438 11.488281 8.996094 11.714844 8.996094 11.988281 L 8.996094 12.984375 C 8.996094 13.261719 8.773438 13.484375 8.496094 13.484375 L 7.003906 13.484375 C 6.726562 13.484375 6.503906 13.261719 6.503906 12.984375 L 6.503906 11.988281 C 6.503906 11.714844 6.726562 11.488281 7.003906 11.488281 L 7.5 11.488281 L 7.5 8.996094 L 4.011719 8.996094 L 4.011719 11.488281 L 5.007812 11.488281 C 5.285156 11.488281 5.507812 11.714844 5.507812 11.988281 L 5.507812 12.984375 C 5.507812 13.261719 5.285156 13.484375 5.007812 13.484375 L 3.515625 13.484375 C 3.238281 13.484375 3.015625 13.261719 3.015625 12.984375 L 3.015625 11.988281 C 3.015625 11.714844 3.238281 11.488281 3.515625 11.488281 L 3.515625 8.5 L 7.5 8.5 L 7.5 6.507812 L 6.007812 6.507812 C 5.730469 6.507812 5.507812 6.28125 5.507812 6.007812 L 5.507812 3.515625 C 5.507812 3.242188 5.730469 3.015625 6.007812 3.015625 L 9.496094 3.015625 C 9.769531 3.015625 9.992188 3.238281 9.992188 3.515625 L 9.992188 6.007812 C 9.992188 6.28125 9.769531 6.503906 9.496094 6.503906 L 8 6.503906 L 8 8.5 L 11.988281 8.5 L 11.988281 11.488281 C 12.261719 11.488281 12.484375 11.710938 12.484375 11.988281 L 12.484375 12.984375 C 12.484375 13.261719 12.261719 13.484375 11.984375 13.484375 Z M 3.515625 11.988281 L 3.515625 12.984375 L 5.007812 12.984375 L 5.007812 11.988281 Z M 9.492188 6.007812 L 9.492188 3.515625 L 6.003906 3.515625 L 6.003906 6.007812 Z M 7.003906 11.988281 L 7.003906 12.984375 L 8.496094 12.984375 L 8.496094 11.988281 Z M 11.984375 11.988281 L 10.492188 11.988281 L 10.492188 12.984375 L 11.984375 12.984375 Z M 11.984375 11.988281 "/>
</g>
</svg>
