<svg width="512" height="512" xmlns="http://www.w3.org/2000/svg">

 <g>
  <title>Layer 1</title>
  <g stroke="null" id="svg_1">
   <path stroke="null" id="svg_2" d="m448.89453,58.83789l-385.78906,0c-14.11886,0 -25.60547,11.48661 -25.60547,25.60547l0,254.34766c0,14.11886 11.48661,25.60547 25.60547,25.60547l125.4668,0l0,63.16016l-69.13477,0c-7.07052,0 -12.80273,5.73221 -12.80273,12.80273s5.73221,12.80273 12.80273,12.80273l273.125,0c7.07052,0 12.80273,-5.73221 12.80273,-12.80273s-5.73221,-12.80273 -12.80273,-12.80273l-69.13477,0l0,-63.16016l125.4668,0c14.11886,0 25.60547,-11.48661 25.60547,-25.60547l0,-254.34766c0,-14.11886 -11.48661,-25.60547 -25.60547,-25.60547zm-151.07227,368.71875l-83.64453,0l0,-63.16016l83.64453,0l0,63.16016zm151.07227,-88.76563c-11.22971,0 -376.78959,0 -385.78906,0l0,-254.34766l385.78906,0c0.01622,259.87161 0.08535,254.34766 0,254.34766z"/>
  </g>
 </g>
</svg>