<?xml version="1.0" encoding="UTF-8"?>
<svg xmlns="http://www.w3.org/2000/svg" xmlns:xlink="http://www.w3.org/1999/xlink" width="16pt" height="16pt" viewBox="0 0 16 16" version="1.1">
<g id="surface1">
<path style=" stroke:none;fill-rule:nonzero;fill:rgb(0%,0%,0%);fill-opacity:1;" d="M 14.027344 1.839844 L 1.972656 1.839844 C 1.53125 1.839844 1.171875 2.199219 1.171875 2.640625 L 1.171875 10.585938 C 1.171875 11.027344 1.53125 11.386719 1.972656 11.386719 L 5.894531 11.386719 L 5.894531 13.359375 L 3.730469 13.359375 C 3.511719 13.359375 3.332031 13.539062 3.332031 13.761719 C 3.332031 13.980469 3.511719 14.160156 3.730469 14.160156 L 12.265625 14.160156 C 12.488281 14.160156 12.667969 13.980469 12.667969 13.761719 C 12.667969 13.539062 12.488281 13.359375 12.265625 13.359375 L 10.105469 13.359375 L 10.105469 11.386719 L 14.027344 11.386719 C 14.46875 11.386719 14.828125 11.027344 14.828125 10.585938 L 14.828125 2.640625 C 14.828125 2.199219 14.46875 1.839844 14.027344 1.839844 Z M 9.308594 13.359375 L 6.691406 13.359375 L 6.691406 11.386719 L 9.308594 11.386719 Z M 14.027344 10.585938 C 13.675781 10.585938 2.253906 10.585938 1.972656 10.585938 L 1.972656 2.640625 L 14.027344 2.640625 C 14.027344 10.761719 14.03125 10.585938 14.027344 10.585938 Z M 14.027344 10.585938 "/>
</g>
</svg>
