<svg width="1024" height="1024" xmlns="http://www.w3.org/2000/svg" class="icon">

 <g>
  <title>background</title>
  <rect fill="none" id="canvas_background" height="602" width="802" y="-1" x="-1"/>
 </g>
 <g>
  <title>Layer 1</title>
  <g stroke="null" id="svg_4">
   <path stroke="null" id="svg_1" d="m377.61336,622.82534c-6.98112,6.98112 -6.98112,18.61633 0,25.59745s18.61633,6.98112 25.59745,0l254.22926,-258.88335c6.98112,-6.98112 6.98112,-18.61633 0,-25.59745s-18.61633,-6.98112 -25.59745,0l-254.22926,258.88335z"/>
   <path stroke="null" id="svg_2" d="m631.84262,648.42279c6.98112,6.98112 18.61633,6.98112 25.59745,0s6.98112,-18.61633 0,-25.59745l-254.22926,-258.88335c-6.98112,-6.98112 -18.61633,-6.98112 -25.59745,0s-6.98112,18.61633 0,25.59745l254.22926,258.88335z"/>
   <path stroke="null" id="svg_3" d="m512,878.21812c-201.87083,0 -365.92725,-164.05641 -365.92725,-365.92725s164.05641,-366.50901 365.92725,-366.50901s365.92725,164.05641 365.92725,365.92725s-164.05641,366.50901 -365.92725,366.50901zm0,-697.53064c-182.67274,0 -331.02163,148.93064 -331.02163,331.60339s148.34888,331.02163 331.02163,331.02163s331.02163,-148.34888 331.02163,-331.02163s-148.34888,-331.60339 -331.02163,-331.60339z"/>
  </g>
 </g>
</svg>