<svg height="496pt" viewBox="0 0 496 496" width="496pt" xmlns="http://www.w3.org/2000/svg"><path d="m248 8c-132.546875 0-240 107.453125-240 240s107.453125 240 240 240 240-107.453125 240-240-107.453125-240-240-240zm107.480469 347.480469-107.480469-107.480469-107.480469 107.480469 107.480469-107.480469-107.480469-107.480469 107.480469 107.480469 107.480469-107.480469-107.480469 107.480469zm0 0" fill="#ff6243"/><g fill="#231f20"><path d="m248 0c-136.964844 0-248 111.035156-248 248s111.035156 248 248 248 248-111.035156 248-248c-.160156-136.902344-111.097656-247.839844-248-248zm0 480c-128.128906 0-232-103.871094-232-232s103.871094-232 232-232 232 103.871094 232 232c-.140625 128.070312-103.929688 231.859375-232 232zm0 0"/><path d="m361.136719 134.863281c-3.125-3.121093-8.1875-3.121093-11.3125 0l-101.824219 101.824219-101.824219-101.824219c-2.007812-2.078125-4.984375-2.914062-7.78125-2.179687-2.796875.730468-4.980469 2.914062-5.710937 5.710937-.734375 2.796875.101562 5.773438 2.179687 7.78125l101.824219 101.824219-101.824219 101.824219c-2.078125 2.007812-2.914062 4.984375-2.179687 7.78125.730468 2.796875 2.914062 4.980469 5.710937 5.710937 2.796875.734375 5.773438-.101562 7.78125-2.179687l101.824219-101.824219 101.824219 101.824219c3.140625 3.03125 8.128906 2.988281 11.214843-.097657 3.085938-3.085937 3.128907-8.074218.097657-11.214843l-101.824219-101.824219 101.824219-101.824219c3.121093-3.125 3.121093-8.1875 0-11.3125zm0 0"/></g></svg>