<?xml version="1.0" encoding="UTF-8"?>
<svg xmlns="http://www.w3.org/2000/svg" xmlns:xlink="http://www.w3.org/1999/xlink" width="16pt" height="16pt" viewBox="0 0 16 16" version="1.1">
<g id="surface1">
<path style=" stroke:none;fill-rule:nonzero;fill:rgb(100%,0%,0%);fill-opacity:1;" d="M 8.402344 3.253906 L 8.402344 1.730469 L 7.597656 1.730469 L 7.597656 3.253906 C 5.289062 3.445312 3.445312 5.289062 3.253906 7.597656 L 1.730469 7.597656 L 1.730469 8.402344 L 3.253906 8.402344 C 3.445312 10.710938 5.289062 12.554688 7.597656 12.746094 L 7.597656 14.269531 L 8.402344 14.269531 L 8.402344 12.746094 C 10.710938 12.554688 12.554688 10.710938 12.746094 8.402344 L 14.269531 8.402344 L 14.269531 7.597656 L 12.746094 7.597656 C 12.554688 5.289062 10.710938 3.445312 8.402344 3.253906 Z M 8.402344 11.941406 L 8.402344 10.726562 L 7.597656 10.726562 L 7.597656 11.941406 C 5.734375 11.753906 4.246094 10.265625 4.058594 8.402344 L 5.273438 8.402344 L 5.273438 7.597656 L 4.054688 7.597656 C 4.246094 5.730469 5.734375 4.246094 7.597656 4.054688 L 7.597656 5.269531 L 8.402344 5.269531 L 8.402344 4.054688 C 10.265625 4.246094 11.753906 5.734375 11.941406 7.597656 L 10.726562 7.597656 L 10.726562 8.402344 L 11.941406 8.402344 C 11.753906 10.265625 10.265625 11.753906 8.402344 11.941406 Z M 8.402344 11.941406 "/>
<path style=" stroke:none;fill-rule:nonzero;fill:rgb(100%,0%,0%);fill-opacity:1;" d="M 8 7.242188 C 7.582031 7.242188 7.242188 7.582031 7.242188 8 C 7.242188 8.417969 7.582031 8.753906 8 8.753906 C 8.417969 8.753906 8.757812 8.417969 8.757812 8 C 8.757812 7.582031 8.417969 7.242188 8 7.242188 Z M 7.953125 8 C 7.953125 7.972656 7.972656 7.953125 8 7.953125 C 8.027344 7.953125 8.046875 7.972656 8.046875 8 C 8.046875 8.050781 7.953125 8.050781 7.953125 8 Z M 7.953125 8 "/>
</g>
</svg>
