<?xml version="1.0" encoding="UTF-8"?>
<svg xmlns="http://www.w3.org/2000/svg" xmlns:xlink="http://www.w3.org/1999/xlink" width="16pt" height="16pt" viewBox="0 0 16 16" version="1.1">
<g id="surface1">
<path style=" stroke:none;fill-rule:nonzero;fill:rgb(0%,74.901961%,37.254902%);fill-opacity:1;" d="M 6.320312 2.125 C 6.496094 2.125 6.675781 1.992188 6.675781 1.769531 C 6.675781 1.550781 6.542969 1.417969 6.320312 1.417969 C 3.671875 1.417969 1.460938 3.582031 1.460938 6.277344 C 1.460938 6.453125 1.59375 6.628906 1.816406 6.628906 C 2.035156 6.628906 2.167969 6.496094 2.167969 6.277344 C 2.125 3.980469 4.023438 2.125 6.320312 2.125 Z M 3.449219 6.320312 C 3.449219 4.730469 4.730469 3.449219 6.320312 3.449219 C 6.496094 3.449219 6.675781 3.316406 6.675781 3.097656 C 6.675781 2.875 6.542969 2.742188 6.320312 2.742188 C 4.378906 2.742188 2.785156 4.332031 2.785156 6.277344 C 2.785156 6.453125 2.917969 6.628906 3.140625 6.628906 C 3.359375 6.628906 3.449219 6.496094 3.449219 6.320312 Z M 6.320312 4.023438 C 5.085938 4.023438 4.023438 5.039062 4.023438 6.320312 C 4.023438 6.496094 4.15625 6.675781 4.378906 6.675781 C 4.597656 6.675781 4.730469 6.542969 4.730469 6.320312 C 4.730469 5.4375 5.4375 4.730469 6.320312 4.730469 C 6.496094 4.730469 6.675781 4.597656 6.675781 4.378906 C 6.675781 4.15625 6.496094 4.023438 6.320312 4.023438 Z M 12.59375 3.359375 C 12.460938 3.226562 12.242188 3.226562 12.109375 3.359375 L 7.957031 7.515625 L 6.894531 6.453125 C 6.941406 6.234375 6.894531 6.054688 6.71875 5.878906 C 6.453125 5.613281 6.101562 5.613281 5.835938 5.878906 C 5.570312 6.144531 5.570312 6.496094 5.835938 6.761719 C 6.011719 6.941406 6.1875 6.984375 6.410156 6.941406 L 7.46875 8 L 3.316406 12.152344 C 3.183594 12.285156 3.183594 12.507812 3.316406 12.640625 C 4.554688 13.875 6.1875 14.582031 7.957031 14.582031 C 9.722656 14.582031 11.359375 13.921875 12.59375 12.640625 C 13.832031 11.402344 14.539062 9.765625 14.539062 8 C 14.539062 6.234375 13.832031 4.597656 12.59375 3.359375 Z M 12.152344 12.152344 C 11.046875 13.257812 9.546875 13.875 8 13.875 C 6.542969 13.875 5.171875 13.347656 4.066406 12.375 L 12.375 4.066406 C 13.347656 5.171875 13.875 6.542969 13.875 8 C 13.875 9.546875 13.257812 11.046875 12.152344 12.152344 Z M 12.152344 12.152344 "/>
</g>
</svg>
