<?xml version="1.0" encoding="UTF-8"?>
<svg xmlns="http://www.w3.org/2000/svg" xmlns:xlink="http://www.w3.org/1999/xlink" width="16pt" height="16pt" viewBox="0 0 16 16" version="1.1">
<g id="surface1">
<path style=" stroke:none;fill-rule:nonzero;fill:rgb(50.980392%,50.980392%,50.980392%);fill-opacity:1;" d="M 12.015625 3.980469 C 12.105469 4.066406 12.148438 4.175781 12.148438 4.300781 C 12.148438 4.429688 12.105469 4.535156 12.015625 4.625 L 10.890625 5.746094 C 11.464844 6.320312 11.835938 6.917969 12.011719 7.539062 L 14.105469 7.546875 C 14.234375 7.546875 14.339844 7.589844 14.425781 7.675781 C 14.515625 7.761719 14.558594 7.871094 14.558594 7.996094 C 14.5625 8.121094 14.515625 8.226562 14.425781 8.320312 C 14.335938 8.410156 14.230469 8.453125 14.105469 8.449219 L 12.121094 8.453125 C 12.121094 8.488281 12.117188 8.535156 12.113281 8.59375 C 12.105469 8.65625 12.082031 8.773438 12.042969 8.949219 C 12.003906 9.125 11.957031 9.292969 11.902344 9.457031 C 11.84375 9.621094 11.753906 9.808594 11.636719 10.015625 C 11.515625 10.222656 11.375 10.40625 11.214844 10.566406 L 6.714844 6.070312 L 6.070312 6.710938 L 10.570312 11.210938 C 10.398438 11.382812 10.207031 11.527344 9.992188 11.652344 C 9.777344 11.777344 9.578125 11.867188 9.390625 11.921875 C 9.203125 11.980469 9.027344 12.027344 8.863281 12.058594 C 8.699219 12.09375 8.574219 12.109375 8.480469 12.113281 L 8.335938 12.121094 L 8.457031 14.078125 C 8.460938 14.214844 8.414062 14.332031 8.320312 14.425781 C 8.242188 14.503906 8.140625 14.550781 8.023438 14.558594 C 7.902344 14.5625 7.792969 14.523438 7.699219 14.4375 C 7.605469 14.355469 7.554688 14.25 7.542969 14.128906 L 7.417969 11.972656 C 6.839844 11.785156 6.285156 11.425781 5.75 10.890625 L 4.625 12.015625 C 4.539062 12.101562 4.433594 12.144531 4.304688 12.144531 C 4.175781 12.144531 4.070312 12.101562 3.984375 12.015625 C 3.894531 11.925781 3.851562 11.820312 3.851562 11.691406 C 3.851562 11.566406 3.894531 11.457031 3.984375 11.371094 L 5.109375 10.246094 L 3.632812 8.769531 L 1.894531 8.769531 C 1.765625 8.769531 1.660156 8.726562 1.574219 8.640625 C 1.484375 8.554688 1.441406 8.445312 1.441406 8.320312 C 1.441406 8.191406 1.484375 8.085938 1.574219 7.996094 C 1.660156 7.910156 1.765625 7.867188 1.894531 7.867188 L 3.632812 7.867188 L 7.871094 3.628906 L 7.871094 1.890625 C 7.871094 1.765625 7.914062 1.65625 8 1.570312 C 8.085938 1.484375 8.195312 1.441406 8.320312 1.441406 C 8.449219 1.441406 8.554688 1.484375 8.644531 1.570312 C 8.730469 1.65625 8.773438 1.765625 8.773438 1.890625 L 8.773438 3.628906 L 10.25 5.105469 L 11.375 3.980469 C 11.460938 3.894531 11.566406 3.851562 11.695312 3.851562 C 11.824219 3.851562 11.929688 3.894531 12.015625 3.980469 Z M 6.714844 3.5 L 3.5 6.710938 C 3.054688 6.265625 2.832031 5.730469 2.832031 5.105469 C 2.832031 4.480469 3.054688 3.945312 3.5 3.5 C 3.945312 3.054688 4.480469 2.832031 5.109375 2.832031 C 5.734375 2.832031 6.269531 3.054688 6.714844 3.5 Z M 6.714844 3.5 "/>
</g>
</svg>
