<?xml version="1.0" encoding="UTF-8"?>
<svg xmlns="http://www.w3.org/2000/svg" xmlns:xlink="http://www.w3.org/1999/xlink" width="16pt" height="16pt" viewBox="0 0 16 16" version="1.1">
<g id="surface1">
<path style=" stroke:none;fill-rule:nonzero;fill:rgb(100%,100%,100%);fill-opacity:1;" d="M 13.257812 14.492188 L 11.402344 14.492188 C 11.058594 14.492188 10.78125 14.21875 10.78125 13.875 L 10.78125 12.636719 C 10.78125 12.296875 11.058594 12.019531 11.402344 12.019531 L 12.636719 12.019531 L 12.636719 8.929688 L 8.308594 8.929688 L 8.308594 12.019531 L 8.925781 12.019531 C 9.269531 12.019531 9.546875 12.296875 9.546875 12.636719 L 9.546875 13.875 C 9.546875 14.21875 9.269531 14.492188 8.925781 14.492188 L 7.070312 14.492188 C 6.730469 14.492188 6.453125 14.21875 6.453125 13.875 L 6.453125 12.636719 C 6.453125 12.296875 6.730469 12.019531 7.070312 12.019531 L 7.691406 12.019531 L 7.691406 8.929688 L 3.359375 8.929688 L 3.359375 12.019531 L 4.597656 12.019531 C 4.9375 12.019531 5.214844 12.296875 5.214844 12.636719 L 5.214844 13.875 C 5.214844 14.21875 4.9375 14.492188 4.597656 14.492188 L 2.742188 14.492188 C 2.402344 14.492188 2.125 14.21875 2.125 13.875 L 2.125 12.636719 C 2.125 12.296875 2.402344 12.019531 2.742188 12.019531 L 2.742188 8.308594 L 7.691406 8.308594 L 7.691406 5.835938 L 5.835938 5.835938 C 5.492188 5.835938 5.214844 5.558594 5.214844 5.21875 L 5.214844 2.125 C 5.214844 1.785156 5.492188 1.507812 5.835938 1.507812 L 10.164062 1.507812 C 10.507812 1.507812 10.78125 1.78125 10.78125 2.125 L 10.78125 5.214844 C 10.78125 5.558594 10.507812 5.835938 10.164062 5.835938 L 8.308594 5.835938 L 8.308594 8.308594 L 13.257812 8.308594 L 13.257812 12.019531 C 13.597656 12.019531 13.875 12.296875 13.875 12.636719 L 13.875 13.875 C 13.875 14.21875 13.597656 14.492188 13.257812 14.492188 Z M 2.742188 12.636719 L 2.742188 13.875 L 4.597656 13.875 L 4.597656 12.636719 Z M 10.164062 5.21875 L 10.164062 2.125 L 5.835938 2.125 L 5.835938 5.214844 L 10.164062 5.214844 Z M 7.070312 12.636719 L 7.070312 13.875 L 8.925781 13.875 L 8.925781 12.636719 Z M 13.257812 12.636719 L 11.402344 12.636719 L 11.402344 13.875 L 13.257812 13.875 Z M 13.257812 12.636719 "/>
<path style=" stroke:none;fill-rule:nonzero;fill:rgb(100%,0%,0%);fill-opacity:1;" d="M 8.460938 2.535156 L 8.460938 0.78125 L 7.539062 0.78125 L 7.539062 2.535156 C 4.882812 2.757812 2.761719 4.882812 2.535156 7.539062 L 0.785156 7.539062 L 0.785156 8.460938 L 2.535156 8.460938 C 2.761719 11.117188 4.882812 13.238281 7.539062 13.464844 L 7.539062 15.21875 L 8.460938 15.21875 L 8.460938 13.464844 C 11.117188 13.238281 13.238281 11.117188 13.464844 8.460938 L 15.214844 8.460938 L 15.214844 7.539062 L 13.464844 7.539062 C 13.238281 4.882812 11.117188 2.757812 8.460938 2.535156 Z M 8.460938 12.539062 L 8.460938 11.140625 L 7.539062 11.140625 L 7.539062 12.539062 C 5.390625 12.320312 3.679688 10.609375 3.460938 8.460938 L 4.859375 8.460938 L 4.859375 7.539062 L 3.460938 7.539062 C 3.679688 5.390625 5.390625 3.679688 7.535156 3.460938 L 7.535156 4.859375 L 8.460938 4.859375 L 8.460938 3.460938 C 10.609375 3.679688 12.320312 5.390625 12.539062 7.539062 L 11.140625 7.539062 L 11.140625 8.460938 L 12.539062 8.460938 C 12.320312 10.609375 10.609375 12.320312 8.460938 12.539062 Z M 8.460938 12.539062 "/>
</g>
</svg>
