<svg width="16" height="16" xmlns="http://www.w3.org/2000/svg" version="1.1" xml:space="preserve">
 <g>
  <title>Layer 1</title>
  <g stroke="null" id="svg_24">
   <path fill="#ffffff" stroke="null" d="m8.12667,12.92584c0,-0.73507 -0.53683,-1.34548 -1.23865,-1.46402l0,-1.01327c0,-0.81961 -0.66639,-1.48638 -1.48551,-1.48638l-2.72589,0l0,0.49546l2.72589,0c0.54587,0 0.99005,0.44455 0.99005,0.99092l0,1.01327c-0.70182,0.11848 -1.23865,0.72894 -1.23865,1.46402c0,0.81961 0.66676,1.48638 1.48638,1.48638s1.48638,-0.66676 1.48638,-1.48638zm-2.47729,0c0,-0.54637 0.44455,-0.99092 0.99092,-0.99092s0.99092,0.44455 0.99092,0.99092s-0.44455,0.99092 -0.99092,0.99092s-0.99092,-0.44455 -0.99092,-0.99092z" id="svg_4"/>
   <path fill="#ffffff" stroke="null" d="m11.84129,6.40604l0,-0.99092c0.81961,0 1.48638,-0.66676 1.48638,-1.48638s-0.66676,-1.48638 -1.48638,-1.48638s-1.48638,0.66676 -1.48638,1.48638c0,0.64571 0.41451,1.19498 0.99092,1.39967l0,1.07762c0,0.54637 -0.44517,0.99092 -0.9924,0.99092l-7.67812,0l0,0.49546l7.67812,0c0.82042,0 1.48786,-0.66676 1.48786,-1.48638zm-0.99092,-2.47729c0,-0.54637 0.44455,-0.99092 0.99092,-0.99092s0.99092,0.44455 0.99092,0.99092s-0.44455,0.99092 -0.99092,0.99092s-0.99092,-0.44455 -0.99092,-0.99092z" id="svg_5"/>
   <path fill="#ffffff" stroke="null" d="m8.12238,5.55146l0,-1.01327c0.70182,-0.11854 1.23865,-0.72894 1.23865,-1.46402c0,-0.81961 -0.66676,-1.48638 -1.48638,-1.48638s-1.48638,0.66676 -1.48638,1.48638c0,0.73507 0.53683,1.34548 1.23865,1.46402l0,1.01327c0,0.54637 -0.44492,0.99092 -0.99178,0.99092l-3.9628,0l0,0.49546l3.9628,0c0.81998,0 1.48724,-0.66676 1.48724,-1.48638zm-1.23865,-2.47729c0,-0.54637 0.44455,-0.99092 0.99092,-0.99092s0.99092,0.44455 0.99092,0.99092s-0.44455,0.99092 -0.99092,0.99092c-0.54637,0 -0.99092,-0.44455 -0.99092,-0.99092z" id="svg_6"/>
   <g stroke="null" id="svg_8"/>
   <g stroke="null" id="svg_9"/>
   <g stroke="null" id="svg_10"/>
   <g stroke="null" id="svg_11"/>
   <g stroke="null" id="svg_12"/>
   <g stroke="null" id="svg_13"/>
   <g stroke="null" id="svg_14"/>
   <g stroke="null" id="svg_15"/>
   <g stroke="null" id="svg_16"/>
   <g stroke="null" id="svg_17"/>
   <g stroke="null" id="svg_18"/>
   <g stroke="null" id="svg_19"/>
   <g stroke="null" id="svg_20"/>
   <g stroke="null" id="svg_21"/>
   <g stroke="null" id="svg_22"/>
   <path fill="#ffffff" stroke="null" d="m11.81262,9.65115l0,0.98053c0.81657,0 1.48087,0.65978 1.48087,1.4708s-0.66429,1.4708 -1.48087,1.4708s-1.48087,-0.65978 -1.48087,-1.4708c0,-0.63894 0.41298,-1.18246 0.98724,-1.385l0,-1.06633c0,-0.54064 -0.44352,-0.98053 -0.98873,-0.98053l-7.64966,0l0,-0.49027l7.64966,0c0.81738,0 1.48235,0.65978 1.48235,1.4708l0,0zm-0.98724,2.45133c0,0.54064 0.4429,0.98053 0.98724,0.98053s0.98724,-0.43989 0.98724,-0.98053s-0.4429,-0.98053 -0.98724,-0.98053s-0.98724,0.43989 -0.98724,0.98053z" id="svg_23"/>
  </g>
 </g>

</svg>