<?xml version="1.0" encoding="UTF-8"?>
<svg xmlns="http://www.w3.org/2000/svg" xmlns:xlink="http://www.w3.org/1999/xlink" width="16pt" height="16pt" viewBox="0 0 16 16" version="1.1">
<g id="surface1">
<path style=" stroke:none;fill-rule:nonzero;fill:rgb(100%,100%,100%);fill-opacity:1;" d="M 13.828125 8.5625 L 13.578125 8.5625 L 13.578125 12.363281 C 13.578125 13.472656 13.828125 14.417969 13.828125 14.417969 C 13.828125 14.691406 13.605469 14.914062 13.332031 14.914062 L 2.621094 14.914062 C 2.347656 14.914062 2.121094 14.691406 2.121094 14.417969 C 2.121094 14.417969 2.371094 13.507812 2.371094 12.414062 L 2.371094 8.5625 L 2.121094 8.5625 C 1.847656 8.5625 1.625 8.339844 1.625 8.066406 L 1.625 5.574219 C 1.625 5.300781 1.847656 5.078125 2.121094 5.078125 L 6.355469 5.078125 L 6.355469 2.335938 C 6.355469 1.652344 6.917969 1.09375 7.601562 1.09375 L 8.347656 1.09375 C 9.035156 1.09375 9.59375 1.652344 9.59375 2.335938 L 9.59375 5.078125 L 13.828125 5.078125 C 14.101562 5.078125 14.328125 5.300781 14.328125 5.574219 L 14.328125 8.066406 C 14.328125 8.339844 14.101562 8.5625 13.828125 8.5625 Z M 5.234375 14.417969 L 5.234375 11.117188 C 5.234375 11.019531 5.324219 10.929688 5.421875 10.929688 L 5.546875 10.929688 C 5.644531 10.929688 5.734375 11.019531 5.734375 11.117188 L 5.734375 14.417969 L 7.851562 14.417969 L 7.851562 11.117188 C 7.851562 11.019531 7.9375 10.929688 8.039062 10.929688 L 8.160156 10.929688 C 8.261719 10.929688 8.347656 11.019531 8.347656 11.117188 L 8.347656 14.417969 L 10.339844 14.417969 L 10.339844 11.117188 C 10.339844 11.019531 10.429688 10.929688 10.527344 10.929688 L 10.652344 10.929688 C 10.753906 10.929688 10.839844 11.019531 10.839844 11.117188 L 10.839844 14.417969 L 13.332031 14.417969 C 13.332031 14.417969 13.082031 13.519531 13.082031 12.414062 L 13.082031 8.5625 L 2.871094 8.5625 L 2.871094 12.414062 C 2.871094 13.519531 2.621094 14.417969 2.621094 14.417969 Z M 13.828125 5.824219 C 13.828125 5.6875 13.714844 5.574219 13.578125 5.574219 L 9.097656 5.574219 L 9.097656 2.460938 C 9.097656 1.976562 8.710938 1.589844 8.222656 1.589844 L 7.726562 1.589844 C 7.242188 1.589844 6.855469 1.976562 6.855469 2.460938 L 6.855469 5.574219 L 2.371094 5.574219 C 2.234375 5.574219 2.121094 5.6875 2.121094 5.824219 L 2.121094 7.816406 C 2.121094 7.953125 2.234375 8.066406 2.371094 8.066406 L 13.578125 8.066406 C 13.714844 8.066406 13.828125 7.953125 13.828125 7.816406 Z M 13.828125 8.5625 L 13.578125 8.5625 L 13.578125 12.363281 C 13.578125 13.472656 13.828125 14.417969 13.828125 14.417969 C 13.828125 14.691406 13.605469 14.914062 13.332031 14.914062 L 2.621094 14.914062 C 2.347656 14.914062 2.121094 14.691406 2.121094 14.417969 C 2.121094 14.417969 2.371094 13.507812 2.371094 12.414062 L 2.371094 8.5625 L 2.121094 8.5625 C 1.847656 8.5625 1.625 8.339844 1.625 8.066406 L 1.625 5.574219 C 1.625 5.300781 1.847656 5.078125 2.121094 5.078125 L 6.355469 5.078125 L 6.355469 2.335938 C 6.355469 1.652344 6.917969 1.09375 7.601562 1.09375 L 8.347656 1.09375 C 9.035156 1.09375 9.59375 1.652344 9.59375 2.335938 L 9.59375 5.078125 L 13.828125 5.078125 C 14.101562 5.078125 14.328125 5.300781 14.328125 5.574219 L 14.328125 8.066406 C 14.328125 8.339844 14.101562 8.5625 13.828125 8.5625 Z M 5.234375 14.257812 L 5.234375 11.117188 C 5.234375 11.019531 5.324219 10.929688 5.421875 10.929688 L 5.546875 10.929688 C 5.644531 10.929688 5.734375 11.019531 5.734375 11.117188 L 5.734375 14.257812 L 7.851562 14.257812 L 7.851562 11.117188 C 7.851562 11.019531 7.9375 10.929688 8.039062 10.929688 L 8.160156 10.929688 C 8.261719 10.929688 8.347656 11.019531 8.347656 11.117188 L 8.347656 14.257812 L 10.339844 14.257812 L 10.339844 11.117188 C 10.339844 11.019531 10.429688 10.929688 10.527344 10.929688 L 10.652344 10.929688 C 10.753906 10.929688 10.839844 11.019531 10.839844 11.117188 L 10.839844 14.257812 L 13.171875 14.257812 C 13.171875 14.257812 12.921875 13.519531 12.921875 12.414062 L 12.921875 8.5625 L 3.027344 8.5625 L 3.027344 12.414062 C 3.027344 13.519531 2.78125 14.257812 2.78125 14.257812 L 5.234375 14.257812 L 5.234375 14.417969 Z M 13.667969 5.984375 C 13.667969 5.847656 13.558594 5.734375 13.417969 5.734375 L 8.9375 5.734375 L 8.9375 2.460938 C 8.9375 1.976562 8.550781 1.75 8.066406 1.75 L 7.886719 1.75 C 7.402344 1.75 7.015625 1.976562 7.015625 2.460938 L 7.015625 5.734375 L 2.53125 5.734375 C 2.394531 5.734375 2.28125 5.847656 2.28125 5.984375 L 2.28125 7.65625 C 2.28125 7.792969 2.394531 7.90625 2.53125 7.90625 L 13.417969 7.90625 C 13.558594 7.90625 13.667969 7.792969 13.667969 7.65625 L 13.667969 5.984375 L 13.828125 5.984375 Z M 13.828125 5.824219 "/>
</g>
</svg>
