<?xml version="1.0" encoding="UTF-8"?>
<svg xmlns="http://www.w3.org/2000/svg" xmlns:xlink="http://www.w3.org/1999/xlink" width="16pt" height="16pt" viewBox="0 0 16 16" version="1.1">
<g id="surface1">
<path style=" stroke:none;fill-rule:nonzero;fill:rgb(100%,100%,100%);fill-opacity:1;" d="M 13.101562 5.085938 L 2.898438 5.085938 C 2.496094 5.085938 2.167969 4.757812 2.167969 4.355469 L 2.167969 2.898438 C 2.167969 2.496094 2.496094 2.167969 2.898438 2.167969 L 13.101562 2.167969 C 13.503906 2.167969 13.832031 2.496094 13.832031 2.898438 L 13.832031 4.355469 C 13.832031 4.757812 13.503906 5.085938 13.101562 5.085938 Z M 2.898438 2.652344 C 2.761719 2.652344 2.652344 2.761719 2.652344 2.898438 L 2.652344 4.355469 C 2.652344 4.488281 2.761719 4.597656 2.898438 4.597656 L 13.101562 4.597656 C 13.238281 4.597656 13.347656 4.488281 13.347656 4.355469 L 13.347656 2.898438 C 13.347656 2.761719 13.238281 2.652344 13.101562 2.652344 Z M 2.898438 2.652344 "/>
<path style=" stroke:none;fill-rule:nonzero;fill:rgb(100%,100%,100%);fill-opacity:1;" d="M 13.589844 6.679688 L 8.730469 6.679688 C 8.59375 6.679688 8.484375 6.570312 8.484375 6.4375 C 8.484375 6.300781 8.59375 6.191406 8.730469 6.191406 L 13.589844 6.191406 C 13.722656 6.191406 13.832031 6.300781 13.832031 6.4375 C 13.832031 6.570312 13.722656 6.679688 13.589844 6.679688 Z M 13.589844 6.679688 "/>
<path style=" stroke:none;fill-rule:nonzero;fill:rgb(100%,100%,100%);fill-opacity:1;" d="M 13.589844 8.984375 L 8.730469 8.984375 C 8.59375 8.984375 8.484375 8.875 8.484375 8.738281 C 8.484375 8.605469 8.59375 8.496094 8.730469 8.496094 L 13.589844 8.496094 C 13.722656 8.496094 13.832031 8.605469 13.832031 8.738281 C 13.832031 8.875 13.722656 8.984375 13.589844 8.984375 Z M 13.589844 8.984375 "/>
<path style=" stroke:none;fill-rule:nonzero;fill:rgb(100%,100%,100%);fill-opacity:1;" d="M 13.589844 11.269531 L 8.730469 11.269531 C 8.59375 11.269531 8.484375 11.160156 8.484375 11.027344 C 8.484375 10.890625 8.59375 10.78125 8.730469 10.78125 L 13.589844 10.78125 C 13.722656 10.78125 13.832031 10.890625 13.832031 11.027344 C 13.832031 11.160156 13.722656 11.269531 13.589844 11.269531 Z M 13.589844 11.269531 "/>
<path style=" stroke:none;fill-rule:nonzero;fill:rgb(100%,100%,100%);fill-opacity:1;" d="M 13.589844 13.707031 L 8.730469 13.707031 C 8.59375 13.707031 8.484375 13.597656 8.484375 13.464844 C 8.484375 13.328125 8.59375 13.222656 8.730469 13.222656 L 13.589844 13.222656 C 13.722656 13.222656 13.832031 13.328125 13.832031 13.464844 C 13.832031 13.597656 13.722656 13.707031 13.589844 13.707031 Z M 13.589844 13.707031 "/>
<path style=" stroke:none;fill-rule:nonzero;fill:rgb(100%,100%,100%);fill-opacity:1;" d="M 6.785156 9.457031 L 2.898438 9.457031 C 2.496094 9.457031 2.167969 9.132812 2.167969 8.730469 L 2.167969 6.785156 C 2.167969 6.382812 2.496094 6.054688 2.898438 6.054688 L 6.785156 6.054688 C 7.1875 6.054688 7.515625 6.382812 7.515625 6.785156 L 7.515625 8.730469 C 7.515625 9.132812 7.1875 9.457031 6.785156 9.457031 Z M 2.898438 6.542969 C 2.761719 6.542969 2.652344 6.652344 2.652344 6.785156 L 2.652344 8.730469 C 2.652344 8.863281 2.761719 8.972656 2.898438 8.972656 L 6.785156 8.972656 C 6.917969 8.972656 7.027344 8.863281 7.027344 8.730469 L 7.027344 6.785156 C 7.027344 6.652344 6.917969 6.542969 6.785156 6.542969 Z M 2.898438 6.542969 "/>
<path style=" stroke:none;fill-rule:nonzero;fill:rgb(100%,100%,100%);fill-opacity:1;" d="M 6.785156 13.832031 L 2.898438 13.832031 C 2.496094 13.832031 2.167969 13.503906 2.167969 13.101562 L 2.167969 11.160156 C 2.167969 10.757812 2.496094 10.429688 2.898438 10.429688 L 6.785156 10.429688 C 7.1875 10.429688 7.515625 10.757812 7.515625 11.160156 L 7.515625 13.101562 C 7.515625 13.503906 7.1875 13.832031 6.785156 13.832031 Z M 2.898438 10.914062 C 2.761719 10.914062 2.652344 11.023438 2.652344 11.160156 L 2.652344 13.101562 C 2.652344 13.238281 2.761719 13.347656 2.898438 13.347656 L 6.785156 13.347656 C 6.917969 13.347656 7.027344 13.238281 7.027344 13.101562 L 7.027344 11.160156 C 7.027344 11.023438 6.917969 10.914062 6.785156 10.914062 Z M 2.898438 10.914062 "/>
</g>
</svg>
