<?xml version="1.0" encoding="UTF-8"?>
<svg xmlns="http://www.w3.org/2000/svg" xmlns:xlink="http://www.w3.org/1999/xlink" width="16pt" height="16pt" viewBox="0 0 16 16" version="1.1">
<defs>
<linearGradient id="linear0" gradientUnits="userSpaceOnUse" x1="0" y1="256" x2="512" y2="256" gradientTransform="matrix(0.03125,0,0,0.03125,0,0)">
<stop offset="0" style="stop-color:rgb(50.196078%,84.705882%,100%);stop-opacity:1;"/>
<stop offset="1" style="stop-color:rgb(91.764706%,50.196078%,98.823529%);stop-opacity:1;"/>
</linearGradient>
</defs>
<g id="surface1">
<path style=" stroke:none;fill-rule:nonzero;fill:url(#linear0);" d="M 11.535156 5.460938 C 11.78125 5.707031 11.78125 6.101562 11.535156 6.34375 L 7.34375 10.539062 C 7.097656 10.78125 6.703125 10.78125 6.460938 10.539062 L 4.464844 8.542969 C 4.21875 8.296875 4.21875 7.902344 4.464844 7.660156 C 4.707031 7.414062 5.101562 7.414062 5.347656 7.660156 L 6.902344 9.210938 L 10.652344 5.460938 C 10.898438 5.21875 11.292969 5.21875 11.535156 5.460938 Z M 16 8 C 16 12.421875 12.421875 16 8 16 C 3.578125 16 0 12.421875 0 8 C 0 3.578125 3.578125 0 8 0 C 12.421875 0 16 3.578125 16 8 Z M 14.75 8 C 14.75 4.269531 11.730469 1.25 8 1.25 C 4.269531 1.25 1.25 4.269531 1.25 8 C 1.25 11.730469 4.269531 14.75 8 14.75 C 11.730469 14.75 14.75 11.730469 14.75 8 Z M 14.75 8 "/>
</g>
</svg>
