<?xml version="1.0" encoding="UTF-8"?>
<svg xmlns="http://www.w3.org/2000/svg" xmlns:xlink="http://www.w3.org/1999/xlink" width="16pt" height="16pt" viewBox="0 0 16 16" version="1.1">
<g id="surface1">
<path style=" stroke:none;fill-rule:nonzero;fill:rgb(100%,100%,100%);fill-opacity:1;" d="M 12.628906 0.984375 L 3.300781 0.984375 C 2.667969 0.984375 2.152344 1.5 2.152344 2.132812 L 2.152344 13.839844 C 2.152344 14.476562 2.667969 14.988281 3.300781 14.988281 L 12.628906 14.988281 C 13.261719 14.988281 13.773438 14.476562 13.773438 13.839844 L 13.773438 2.132812 C 13.773438 1.5 13.261719 0.984375 12.628906 0.984375 Z M 12.898438 13.839844 C 12.898438 13.992188 12.777344 14.113281 12.628906 14.113281 L 3.300781 14.113281 C 3.152344 14.113281 3.027344 13.992188 3.027344 13.839844 L 3.027344 2.132812 C 3.027344 1.984375 3.152344 1.859375 3.300781 1.859375 L 12.628906 1.859375 C 12.777344 1.859375 12.898438 1.984375 12.898438 2.132812 Z M 12.898438 13.839844 "/>
<path style=" stroke:none;fill-rule:nonzero;fill:rgb(100%,100%,100%);fill-opacity:1;" d="M 11.226562 4.171875 L 7.007812 4.171875 C 6.765625 4.171875 6.570312 4.367188 6.570312 4.609375 C 6.570312 4.851562 6.765625 5.046875 7.007812 5.046875 L 11.226562 5.046875 C 11.46875 5.046875 11.664062 4.851562 11.664062 4.609375 C 11.664062 4.367188 11.46875 4.171875 11.226562 4.171875 Z M 11.226562 7.589844 L 7.007812 7.589844 C 6.765625 7.589844 6.570312 7.789062 6.570312 8.027344 C 6.570312 8.269531 6.765625 8.46875 7.007812 8.46875 L 11.226562 8.46875 C 11.46875 8.46875 11.664062 8.269531 11.664062 8.027344 C 11.664062 7.789062 11.46875 7.589844 11.226562 7.589844 Z M 11.226562 10.929688 L 7.007812 10.929688 C 6.765625 10.929688 6.570312 11.125 6.570312 11.367188 C 6.570312 11.609375 6.765625 11.804688 7.007812 11.804688 L 11.226562 11.804688 C 11.46875 11.804688 11.664062 11.609375 11.664062 11.367188 C 11.664062 11.125 11.46875 10.929688 11.226562 10.929688 Z M 11.226562 10.929688 "/>
<path style=" stroke:none;fill-rule:nonzero;fill:rgb(100%,100%,100%);fill-opacity:1;" d="M 4.308594 4.609375 C 4.308594 5.007812 4.632812 5.328125 5.03125 5.328125 C 5.429688 5.328125 5.75 5.007812 5.75 4.609375 C 5.75 4.210938 5.429688 3.886719 5.03125 3.886719 C 4.632812 3.886719 4.308594 4.210938 4.308594 4.609375 Z M 4.308594 4.609375 "/>
<path style=" stroke:none;fill-rule:nonzero;fill:rgb(100%,100%,100%);fill-opacity:1;" d="M 4.308594 8.03125 C 4.308594 8.429688 4.632812 8.75 5.03125 8.75 C 5.429688 8.75 5.75 8.429688 5.75 8.03125 C 5.75 7.628906 5.429688 7.308594 5.03125 7.308594 C 4.632812 7.308594 4.308594 7.628906 4.308594 8.03125 Z M 4.308594 8.03125 "/>
<path style=" stroke:none;fill-rule:nonzero;fill:rgb(100%,100%,100%);fill-opacity:1;" d="M 4.308594 11.367188 C 4.308594 11.765625 4.632812 12.089844 5.03125 12.089844 C 5.429688 12.089844 5.75 11.765625 5.75 11.367188 C 5.75 10.96875 5.429688 10.644531 5.03125 10.644531 C 4.632812 10.644531 4.308594 10.96875 4.308594 11.367188 Z M 4.308594 11.367188 "/>
</g>
</svg>
