<svg width="16" height="16" xmlns="http://www.w3.org/2000/svg" xml:space="preserve" version="1.1">

 <g>
  <title>Layer 1</title>
  <g stroke="null" id="svg_1">
   <g stroke="null" id="svg_2">
    <path fill="#ffffff" stroke="null" id="svg_3" d="m8.45463,10.22952c-0.22731,-0.19993 -0.59704,-0.1698 -0.79697,0.05751l-2.10882,2.37721l0,-9.50064c0,-0.31221 -0.25744,-0.56966 -0.56966,-0.56966s-0.56966,0.25744 -0.56966,0.56966l0,9.50064l-2.10882,-2.37721c-0.22731,-0.22731 -0.56966,-0.25744 -0.79697,-0.05751c-0.22731,0.22731 -0.25744,0.56966 -0.05751,0.79697l3.10572,3.47544c0.23279,0.28757 0.6436,0.24375 0.8271,0l3.1331,-3.47544c0.19993,-0.22458 0.17254,-0.59704 -0.05751,-0.79697z"/>
    <path fill="#ffffff" stroke="null" id="svg_4" d="m14.55377,4.9876l-3.07833,-3.47544c-0.27387,-0.27661 -0.61621,-0.29304 -0.85448,0l-3.1331,3.47544c-0.19993,0.22731 -0.1698,0.59704 0.05751,0.79697c0.35056,0.27935 0.70385,0.08764 0.79697,-0.05751l2.10882,-2.37721l0,9.47326c0,0.31221 0.25744,0.56966 0.56966,0.56966s0.56966,-0.22731 0.56966,-0.54227l0,-9.4979l2.10882,2.37721c0.22731,0.22731 0.56966,0.25744 0.79697,0.05751c0.22731,-0.23005 0.25744,-0.57239 0.05751,-0.79971z"/>
   </g>
  </g>
  <g id="svg_5"/>
  <g id="svg_6"/>
  <g id="svg_7"/>
  <g id="svg_8"/>
  <g id="svg_9"/>
  <g id="svg_10"/>
  <g id="svg_11"/>
  <g id="svg_12"/>
  <g id="svg_13"/>
  <g id="svg_14"/>
  <g id="svg_15"/>
  <g id="svg_16"/>
  <g id="svg_17"/>
  <g id="svg_18"/>
  <g id="svg_19"/>
 </g>
</svg>