<?xml version="1.0" encoding="UTF-8"?>
<svg xmlns="http://www.w3.org/2000/svg" xmlns:xlink="http://www.w3.org/1999/xlink" width="16pt" height="16pt" viewBox="0 0 16 16" version="1.1">
<g id="surface1">
<path style=" stroke:none;fill-rule:nonzero;fill:rgb(100%,100%,100%);fill-opacity:1;" d="M 14.695312 3.027344 L 14.140625 2.839844 L 14.402344 2.316406 L 13.53125 1.441406 L 13.003906 1.707031 L 12.820312 1.148438 L 11.585938 1.148438 L 11.402344 1.707031 L 10.875 1.441406 L 10.003906 2.316406 L 10.265625 2.839844 L 9.710938 3.027344 L 9.710938 4.257812 L 10.265625 4.445312 L 10.003906 4.96875 L 10.875 5.839844 L 11.402344 5.578125 L 11.585938 6.136719 L 12.820312 6.136719 L 13.003906 5.578125 L 13.53125 5.84375 L 14.402344 4.96875 L 14.140625 4.445312 L 14.695312 4.257812 Z M 14.242188 3.933594 L 13.722656 4.105469 L 13.683594 4.207031 C 13.671875 4.234375 13.664062 4.265625 13.648438 4.292969 L 13.605469 4.390625 L 13.851562 4.878906 L 13.441406 5.289062 L 12.949219 5.046875 L 12.851562 5.089844 C 12.824219 5.101562 12.796875 5.113281 12.765625 5.125 L 12.667969 5.164062 L 12.492188 5.683594 L 11.914062 5.683594 L 11.738281 5.164062 L 11.640625 5.125 C 11.609375 5.113281 11.582031 5.101562 11.554688 5.089844 L 11.457031 5.046875 L 10.964844 5.289062 L 10.554688 4.878906 L 10.800781 4.390625 L 10.757812 4.292969 C 10.742188 4.265625 10.730469 4.234375 10.722656 4.207031 L 10.683594 4.105469 L 10.164062 3.933594 L 10.164062 3.351562 L 10.683594 3.179688 L 10.722656 3.078125 C 10.734375 3.050781 10.742188 3.019531 10.757812 2.992188 L 10.800781 2.894531 L 10.554688 2.40625 L 10.964844 1.996094 L 11.457031 2.238281 L 11.554688 2.195312 C 11.582031 2.183594 11.609375 2.171875 11.640625 2.160156 L 11.738281 2.121094 L 11.914062 1.601562 L 12.492188 1.601562 L 12.667969 2.121094 L 12.765625 2.160156 C 12.796875 2.171875 12.824219 2.183594 12.851562 2.195312 L 12.949219 2.238281 L 13.441406 1.996094 L 13.851562 2.40625 L 13.605469 2.894531 L 13.648438 2.992188 C 13.664062 3.019531 13.675781 3.050781 13.683594 3.078125 L 13.722656 3.179688 L 14.242188 3.351562 Z M 14.242188 3.933594 "/>
<path style=" stroke:none;fill-rule:nonzero;fill:rgb(100%,100%,100%);fill-opacity:1;" d="M 12.203125 2.507812 C 11.578125 2.507812 11.070312 3.015625 11.070312 3.640625 C 11.070312 4.265625 11.578125 4.777344 12.203125 4.777344 C 12.828125 4.777344 13.335938 4.265625 13.335938 3.640625 C 13.335938 3.015625 12.828125 2.507812 12.203125 2.507812 Z M 12.203125 4.324219 C 11.828125 4.324219 11.523438 4.015625 11.523438 3.640625 C 11.523438 3.265625 11.828125 2.960938 12.203125 2.960938 C 12.578125 2.960938 12.882812 3.265625 12.882812 3.640625 C 12.882812 4.015625 12.578125 4.324219 12.203125 4.324219 Z M 12.203125 4.324219 "/>
<path style=" stroke:none;fill-rule:nonzero;fill:rgb(100%,100%,100%);fill-opacity:1;" d="M 5.996094 11.03125 L 5.125 10.15625 L 4.597656 10.421875 L 4.414062 9.863281 L 3.179688 9.863281 L 2.996094 10.421875 L 2.46875 10.15625 L 1.597656 11.03125 L 1.859375 11.554688 L 1.304688 11.742188 L 1.304688 12.972656 L 1.859375 13.160156 L 1.597656 13.683594 L 2.46875 14.558594 L 2.996094 14.292969 L 3.179688 14.851562 L 4.414062 14.851562 L 4.597656 14.292969 L 5.125 14.558594 L 5.996094 13.683594 L 5.734375 13.160156 L 6.289062 12.972656 L 6.289062 11.742188 L 5.734375 11.554688 Z M 5.835938 12.066406 L 5.835938 12.648438 L 5.316406 12.820312 L 5.277344 12.921875 C 5.265625 12.949219 5.257812 12.980469 5.242188 13.007812 L 5.199219 13.105469 L 5.445312 13.59375 L 5.035156 14.003906 L 4.542969 13.761719 L 4.445312 13.804688 C 4.417969 13.816406 4.390625 13.828125 4.359375 13.839844 L 4.261719 13.878906 L 4.085938 14.398438 L 3.507812 14.398438 L 3.332031 13.878906 L 3.234375 13.839844 C 3.203125 13.828125 3.175781 13.816406 3.148438 13.804688 L 3.050781 13.761719 L 2.558594 14.003906 L 2.148438 13.59375 L 2.394531 13.105469 L 2.351562 13.007812 C 2.335938 12.980469 2.328125 12.949219 2.316406 12.921875 L 2.277344 12.820312 L 1.757812 12.648438 L 1.757812 12.066406 L 2.277344 11.894531 L 2.316406 11.792969 C 2.328125 11.765625 2.335938 11.734375 2.351562 11.707031 L 2.394531 11.609375 L 2.148438 11.121094 L 2.558594 10.710938 L 3.050781 10.953125 L 3.148438 10.910156 C 3.175781 10.898438 3.203125 10.886719 3.234375 10.875 L 3.332031 10.835938 L 3.507812 10.316406 L 4.085938 10.316406 L 4.261719 10.835938 L 4.359375 10.875 C 4.390625 10.886719 4.417969 10.898438 4.445312 10.910156 L 4.542969 10.953125 L 5.035156 10.710938 L 5.445312 11.121094 L 5.199219 11.609375 L 5.242188 11.707031 C 5.257812 11.734375 5.269531 11.765625 5.277344 11.792969 L 5.316406 11.894531 Z M 5.835938 12.066406 "/>
<path style=" stroke:none;fill-rule:nonzero;fill:rgb(100%,100%,100%);fill-opacity:1;" d="M 3.796875 11.222656 C 3.171875 11.222656 2.664062 11.734375 2.664062 12.359375 C 2.664062 12.984375 3.171875 13.492188 3.796875 13.492188 C 4.421875 13.492188 4.929688 12.984375 4.929688 12.359375 C 4.929688 11.734375 4.421875 11.222656 3.796875 11.222656 Z M 3.796875 13.039062 C 3.421875 13.039062 3.117188 12.734375 3.117188 12.359375 C 3.117188 11.984375 3.421875 11.675781 3.796875 11.675781 C 4.171875 11.675781 4.476562 11.984375 4.476562 12.359375 C 4.476562 12.734375 4.171875 13.039062 3.796875 13.039062 Z M 3.796875 13.039062 "/>
<path style=" stroke:none;fill-rule:nonzero;fill:rgb(100%,100%,100%);fill-opacity:1;" d="M 12.808594 7.15625 C 12.6875 6.976562 12.488281 6.867188 12.269531 6.867188 C 12.050781 6.867188 11.847656 6.976562 11.726562 7.15625 L 10.550781 8.921875 C 10.488281 9.015625 10.457031 9.125 10.457031 9.238281 C 10.457031 9.554688 10.714844 9.8125 11.03125 9.8125 L 11.363281 9.8125 L 11.363281 11.628906 L 7.507812 11.628906 L 7.507812 12.082031 L 11.363281 12.082031 C 11.613281 12.082031 11.816406 11.878906 11.816406 11.628906 L 11.816406 9.359375 L 11.03125 9.359375 C 10.964844 9.359375 10.910156 9.304688 10.910156 9.238281 C 10.910156 9.214844 10.917969 9.191406 10.929688 9.171875 L 12.105469 7.40625 C 12.179688 7.296875 12.359375 7.296875 12.433594 7.40625 L 13.609375 9.171875 C 13.621094 9.191406 13.628906 9.214844 13.628906 9.238281 C 13.628906 9.304688 13.574219 9.359375 13.507812 9.359375 L 12.722656 9.359375 L 12.722656 12.082031 C 12.722656 12.582031 12.316406 12.988281 11.816406 12.988281 L 7.507812 12.988281 L 7.507812 13.441406 L 11.816406 13.441406 C 12.566406 13.441406 13.175781 12.832031 13.175781 12.082031 L 13.175781 9.8125 L 13.507812 9.8125 C 13.824219 9.8125 14.082031 9.554688 14.082031 9.238281 C 14.082031 9.125 14.050781 9.015625 13.988281 8.921875 Z M 12.808594 7.15625 "/>
<path style=" stroke:none;fill-rule:nonzero;fill:rgb(100%,100%,100%);fill-opacity:1;" d="M 3.144531 8.910156 C 3.265625 9.089844 3.46875 9.199219 3.6875 9.199219 C 3.90625 9.199219 4.105469 9.089844 4.226562 8.910156 L 5.402344 7.144531 C 5.46875 7.050781 5.5 6.941406 5.5 6.828125 C 5.5 6.511719 5.242188 6.253906 4.925781 6.253906 L 4.59375 6.253906 L 4.59375 4.4375 L 8.449219 4.4375 L 8.449219 3.984375 L 4.59375 3.984375 C 4.34375 3.984375 4.140625 4.1875 4.140625 4.4375 L 4.140625 6.707031 L 4.925781 6.707031 C 4.992188 6.707031 5.046875 6.761719 5.046875 6.828125 C 5.046875 6.851562 5.039062 6.875 5.027344 6.894531 L 3.851562 8.660156 C 3.777344 8.769531 3.59375 8.769531 3.523438 8.660156 L 2.347656 6.894531 C 2.332031 6.875 2.328125 6.851562 2.328125 6.828125 C 2.328125 6.761719 2.378906 6.707031 2.449219 6.707031 L 3.234375 6.707031 L 3.234375 3.984375 C 3.234375 3.484375 3.640625 3.078125 4.140625 3.078125 L 8.449219 3.078125 L 8.449219 2.625 L 4.140625 2.625 C 3.390625 2.625 2.78125 3.234375 2.78125 3.984375 L 2.78125 6.253906 L 2.449219 6.253906 C 2.132812 6.253906 1.871094 6.511719 1.871094 6.828125 C 1.871094 6.941406 1.90625 7.050781 1.96875 7.144531 Z M 3.144531 8.910156 "/>
</g>
</svg>
