<svg width="30.000000000000004" height="30.000000000000004" xmlns="http://www.w3.org/2000/svg">

 <g>
  <title>background</title>
  <rect fill="none" id="canvas_background" height="602" width="802" y="-1" x="-1"/>
 </g>
 <g>
  <title>Layer 1</title>
  <path stroke="null" id="svg_1" fill="#ffffff" d="m12.05585,4.69549c0.30991,0 0.61982,-0.23243 0.61982,-0.61982s-0.23243,-0.61982 -0.61982,-0.61982c-4.64865,0 -8.52252,3.7964 -8.52252,8.52252c0,0.30991 0.23243,0.61982 0.61982,0.61982s0.61982,-0.23243 0.61982,-0.61982c-0.07748,-4.02883 3.25405,-7.28288 7.28288,-7.28288zm-5.03604,7.36036c0,-2.78919 2.24685,-5.03604 5.03604,-5.03604c0.30991,0 0.61982,-0.23243 0.61982,-0.61982s-0.23243,-0.61982 -0.61982,-0.61982c-3.40901,0 -6.1982,2.78919 -6.1982,6.1982c0,0.30991 0.23243,0.61982 0.61982,0.61982s0.54234,-0.23243 0.54234,-0.54234zm5.03604,-4.02883c-2.16937,0 -4.02883,1.78198 -4.02883,4.02883c0,0.30991 0.23243,0.61982 0.61982,0.61982s0.61982,-0.23243 0.61982,-0.61982c0,-1.54955 1.23964,-2.78919 2.78919,-2.78919c0.30991,0 0.61982,-0.23243 0.61982,-0.61982s-0.30991,-0.61982 -0.61982,-0.61982zm11.0018,-1.16216c-0.23243,-0.23243 -0.61982,-0.23243 -0.85225,0l-7.28288,7.28288l-1.85946,-1.85946c0.07748,-0.38739 0,-0.6973 -0.30991,-1.00721c-0.46486,-0.46486 -1.08468,-0.46486 -1.54955,0c-0.46486,0.46486 -0.46486,1.08468 0,1.54955c0.30991,0.30991 0.61982,0.38739 1.00721,0.30991l1.85946,1.85946l-7.28288,7.28288c-0.23243,0.23243 -0.23243,0.61982 0,0.85225c2.16937,2.16937 5.03604,3.40901 8.13514,3.40901s5.96577,-1.16216 8.13514,-3.40901c2.16937,-2.16937 3.40901,-5.03604 3.40901,-8.13514s-1.23964,-5.96577 -3.40901,-8.13514zm-0.77477,15.41802c-1.93694,1.93694 -4.57117,3.02162 -7.28288,3.02162c-2.55676,0 -4.95856,-0.92973 -6.8955,-2.63423l14.56577,-14.56577c1.7045,1.93694 2.63423,4.33874 2.63423,6.8955c0,2.71171 -1.08468,5.34595 -3.02162,7.28288z"/>
 </g>
</svg>