<svg width="30.000000000000004" height="30.000000000000004" xmlns="http://www.w3.org/2000/svg">

 <g>
  <title>background</title>
  <rect fill="none" id="canvas_background" height="602" width="802" y="-1" x="-1"/>
 </g>
 <g>
  <title>Layer 1</title>
  <path stroke="null" id="svg_1" fill="#ff0000" d="m11.85208,3.98228c0.33136,0 0.66272,-0.24852 0.66272,-0.66272s-0.24852,-0.66272 -0.66272,-0.66272c-4.9704,0 -9.1124,4.05916 -9.1124,9.1124c0,0.33136 0.24852,0.66272 0.66272,0.66272s0.66272,-0.24852 0.66272,-0.66272c-0.08284,-4.30768 3.47928,-7.78696 7.78696,-7.78696zm-5.3846,7.8698c0,-2.98224 2.40236,-5.3846 5.3846,-5.3846c0.33136,0 0.66272,-0.24852 0.66272,-0.66272s-0.24852,-0.66272 -0.66272,-0.66272c-3.64496,0 -6.6272,2.98224 -6.6272,6.6272c0,0.33136 0.24852,0.66272 0.66272,0.66272s0.57988,-0.24852 0.57988,-0.57988zm5.3846,-4.30768c-2.31952,0 -4.30768,1.90532 -4.30768,4.30768c0,0.33136 0.24852,0.66272 0.66272,0.66272s0.66272,-0.24852 0.66272,-0.66272c0,-1.6568 1.32544,-2.98224 2.98224,-2.98224c0.33136,0 0.66272,-0.24852 0.66272,-0.66272s-0.33136,-0.66272 -0.66272,-0.66272zm11.76328,-1.2426c-0.24852,-0.24852 -0.66272,-0.24852 -0.91124,0l-7.78696,7.78696l-1.98816,-1.98816c0.08284,-0.4142 0,-0.74556 -0.33136,-1.07692c-0.49704,-0.49704 -1.15976,-0.49704 -1.6568,0c-0.49704,0.49704 -0.49704,1.15976 0,1.6568c0.33136,0.33136 0.66272,0.4142 1.07692,0.33136l1.98816,1.98816l-7.78696,7.78696c-0.24852,0.24852 -0.24852,0.66272 0,0.91124c2.31952,2.31952 5.3846,3.64496 8.6982,3.64496s6.37868,-1.2426 8.6982,-3.64496c2.31952,-2.31952 3.64496,-5.3846 3.64496,-8.6982s-1.32544,-6.37868 -3.64496,-8.6982zm-0.8284,16.48516c-2.071,2.071 -4.88756,3.23076 -7.78696,3.23076c-2.73372,0 -5.30176,-0.99408 -7.37276,-2.81656l15.57392,-15.57392c1.82248,2.071 2.81656,4.63904 2.81656,7.37276c0,2.8994 -1.15976,5.71596 -3.23076,7.78696z"/>
 </g>
</svg>