<?xml version="1.0" encoding="UTF-8"?>
<svg xmlns="http://www.w3.org/2000/svg" xmlns:xlink="http://www.w3.org/1999/xlink" width="16pt" height="16pt" viewBox="0 0 16 16" version="1.1">
<g id="surface1">
<path style=" stroke:none;fill-rule:nonzero;fill:rgb(100%,100%,100%);fill-opacity:1;" d="M 6.429688 2.503906 C 6.59375 2.503906 6.761719 2.378906 6.761719 2.171875 C 6.761719 1.96875 6.636719 1.84375 6.429688 1.84375 C 3.949219 1.84375 1.882812 3.867188 1.882812 6.386719 C 1.882812 6.554688 2.007812 6.71875 2.214844 6.71875 C 2.421875 6.71875 2.546875 6.59375 2.546875 6.386719 C 2.503906 4.238281 4.28125 2.503906 6.429688 2.503906 Z M 3.742188 6.429688 C 3.742188 4.941406 4.941406 3.742188 6.429688 3.742188 C 6.59375 3.742188 6.761719 3.621094 6.761719 3.414062 C 6.761719 3.207031 6.636719 3.082031 6.429688 3.082031 C 4.613281 3.082031 3.125 4.570312 3.125 6.386719 C 3.125 6.554688 3.246094 6.71875 3.453125 6.71875 C 3.660156 6.71875 3.742188 6.59375 3.742188 6.429688 Z M 6.429688 4.28125 C 5.273438 4.28125 4.28125 5.230469 4.28125 6.429688 C 4.28125 6.59375 4.40625 6.761719 4.613281 6.761719 C 4.816406 6.761719 4.941406 6.636719 4.941406 6.429688 C 4.941406 5.601562 5.601562 4.941406 6.429688 4.941406 C 6.59375 4.941406 6.761719 4.816406 6.761719 4.613281 C 6.761719 4.40625 6.59375 4.28125 6.429688 4.28125 Z M 12.296875 3.660156 C 12.171875 3.539062 11.96875 3.539062 11.84375 3.660156 L 7.957031 7.546875 L 6.96875 6.554688 C 7.007812 6.347656 6.96875 6.183594 6.800781 6.015625 C 6.554688 5.769531 6.222656 5.769531 5.976562 6.015625 C 5.726562 6.265625 5.726562 6.59375 5.976562 6.84375 C 6.140625 7.007812 6.304688 7.050781 6.511719 7.007812 L 7.503906 8 L 3.621094 11.882812 C 3.496094 12.007812 3.496094 12.214844 3.621094 12.339844 C 4.777344 13.496094 6.304688 14.15625 7.957031 14.15625 C 9.613281 14.15625 11.140625 13.535156 12.296875 12.339844 C 13.453125 11.183594 14.117188 9.652344 14.117188 8 C 14.117188 6.347656 13.453125 4.816406 12.296875 3.660156 Z M 11.882812 11.882812 C 10.851562 12.917969 9.445312 13.496094 8 13.496094 C 6.636719 13.496094 5.355469 13 4.324219 12.089844 L 12.089844 4.324219 C 13 5.355469 13.496094 6.636719 13.496094 8 C 13.496094 9.445312 12.917969 10.851562 11.882812 11.882812 Z M 11.882812 11.882812 "/>
</g>
</svg>
