<svg width="500" height="500" xmlns="http://www.w3.org/2000/svg">

 <g>
  <title>background</title>
  <rect fill="none" id="canvas_background" height="502" width="502" y="-1" x="-1"/>
 </g>
 <g>
  <title>Layer 1</title>
  <g stroke="null" id="svg_25">
   <g stroke="null" id="svg_1">
    <g stroke="null" id="svg_2">
     <path fill="#ffffff" stroke="null" id="svg_3" d="m149.5,206.89855l-86.11883,0c-7.90544,0 -14.29707,6.39163 -14.38117,14.38117l0,215.29706c0,7.98954 6.47573,14.38117 14.38117,14.38117l86.11883,0c7.98954,0 14.38117,-6.47573 14.38117,-14.38117l0,-215.29706c0,-7.98954 -6.47573,-14.38117 -14.38117,-14.38117z"/>
    </g>
   </g>
   <g stroke="null" id="svg_4">
    <g stroke="null" id="svg_5">
     <path fill="#ffffff" stroke="null" id="svg_6" d="m293.05941,49.04207l-86.11883,0c-7.90544,0 -14.38117,6.39163 -14.38117,14.29707l0,373.23764c0,7.98954 6.47573,14.38117 14.38117,14.38117l86.11883,0c7.98954,0 14.38117,-6.47573 14.38117,-14.38117l0,-373.15354c0,-7.98954 -6.47573,-14.38117 -14.38117,-14.38117z"/>
    </g>
   </g>
   <g stroke="null" id="svg_7">
    <g stroke="null" id="svg_8">
     <path fill="#ffffff" stroke="null" id="svg_9" d="m436.61882,163.83914l-86.11883,0c-7.98954,0 -14.38117,6.39163 -14.38117,14.38117l0,258.35648c0,7.98954 6.47573,14.38117 14.38117,14.38117l86.11883,0c7.98954,0 14.38117,-6.47573 14.38117,-14.38117l0,-258.35648c0,-7.98954 -6.47573,-14.38117 -14.38117,-14.38117z"/>
    </g>
   </g>
   <g stroke="null" id="svg_10"/>
   <g stroke="null" id="svg_11"/>
   <g stroke="null" id="svg_12"/>
   <g stroke="null" id="svg_13"/>
   <g stroke="null" id="svg_14"/>
   <g stroke="null" id="svg_15"/>
   <g stroke="null" id="svg_16"/>
   <g stroke="null" id="svg_17"/>
   <g stroke="null" id="svg_18"/>
   <g stroke="null" id="svg_19"/>
   <g stroke="null" id="svg_20"/>
   <g stroke="null" id="svg_21"/>
   <g stroke="null" id="svg_22"/>
   <g stroke="null" id="svg_23"/>
   <g stroke="null" id="svg_24"/>
  </g>
  <path stroke="null" id="svg_34" fill="#bf0000" d="m264.66186,76.67261l0,-55.61842l-29.34098,0l0,55.61842c-84.26033,7.08496 -151.54605,74.37929 -158.62242,158.66555l-55.63561,0l0,29.34091l55.63561,0c7.07636,84.26033 74.36209,151.53745 158.62242,158.62242l0,55.64429l29.34098,0l0,-55.64429c84.27759,-7.08496 151.56332,-74.36202 158.63968,-158.62235l55.63561,0l0,-29.34098l-55.63561,0c-7.08502,-84.28626 -74.37075,-151.58058 -158.63968,-158.66555zm0,317.2793l0,-44.35664l-29.34098,0l0,44.35664c-68.09694,-6.89509 -122.38628,-61.1845 -129.27277,-129.27283l44.34797,0l0,-29.34091l-44.35664,0c6.8779,-68.1228 61.18457,-122.42948 129.27283,-129.31596l0,44.36524l29.34091,0l0,-44.36524c68.1142,6.89509 122.40361,61.20178 129.2901,129.31596l-44.34797,0l0,29.34091l44.34797,0c-6.8865,68.08833 -61.1759,122.37773 -129.28144,129.27283l0.00002,0z"/>
 </g>
</svg>