<?xml version="1.0" encoding="UTF-8"?>
<svg xmlns="http://www.w3.org/2000/svg" xmlns:xlink="http://www.w3.org/1999/xlink" width="16pt" height="16pt" viewBox="0 0 16 16" version="1.1">
<g id="surface1">
<path style=" stroke:none;fill-rule:nonzero;fill:rgb(100%,100%,100%);fill-opacity:1;" d="M 7.160156 0.96875 C 3.746094 0.96875 0.96875 3.746094 0.96875 7.160156 C 0.96875 10.578125 3.746094 13.355469 7.160156 13.355469 C 10.578125 13.355469 13.355469 10.578125 13.355469 7.160156 C 13.355469 3.746094 10.578125 0.96875 7.160156 0.96875 Z M 7.160156 12.210938 C 4.378906 12.210938 2.113281 9.945312 2.113281 7.160156 C 2.113281 4.378906 4.378906 2.113281 7.160156 2.113281 C 9.945312 2.113281 12.210938 4.378906 12.210938 7.160156 C 12.210938 9.945312 9.945312 12.210938 7.160156 12.210938 Z M 7.160156 12.210938 "/>
<path style=" stroke:none;fill-rule:nonzero;fill:rgb(100%,100%,100%);fill-opacity:1;" d="M 14.863281 14.054688 L 11.585938 10.777344 C 11.363281 10.554688 11 10.554688 10.777344 10.777344 C 10.554688 11 10.554688 11.363281 10.777344 11.585938 L 14.054688 14.863281 C 14.167969 14.976562 14.3125 15.03125 14.460938 15.03125 C 14.605469 15.03125 14.753906 14.976562 14.863281 14.863281 C 15.085938 14.640625 15.085938 14.277344 14.863281 14.054688 Z M 14.863281 14.054688 "/>
<path style=" stroke:none;fill-rule:nonzero;fill:rgb(100%,100%,100%);fill-opacity:1;" d="M 10.417969 10.664062 L 9.289062 10.664062 C 9.082031 10.664062 8.910156 10.496094 8.910156 10.289062 L 8.910156 9.535156 C 8.910156 9.328125 9.082031 9.160156 9.289062 9.160156 L 10.039062 9.160156 L 10.039062 7.277344 L 7.40625 7.277344 L 7.40625 9.160156 L 7.78125 9.160156 C 7.992188 9.160156 8.160156 9.328125 8.160156 9.535156 L 8.160156 10.289062 C 8.160156 10.496094 7.992188 10.664062 7.78125 10.664062 L 6.652344 10.664062 C 6.445312 10.664062 6.277344 10.496094 6.277344 10.289062 L 6.277344 9.535156 C 6.277344 9.328125 6.445312 9.160156 6.652344 9.160156 L 7.03125 9.160156 L 7.03125 7.277344 L 4.394531 7.277344 L 4.394531 9.160156 L 5.148438 9.160156 C 5.355469 9.160156 5.523438 9.328125 5.523438 9.535156 L 5.523438 10.289062 C 5.523438 10.496094 5.355469 10.664062 5.148438 10.664062 L 4.019531 10.664062 C 3.8125 10.664062 3.644531 10.496094 3.644531 10.289062 L 3.644531 9.535156 C 3.644531 9.328125 3.8125 9.160156 4.019531 9.160156 L 4.019531 6.902344 L 7.03125 6.902344 L 7.03125 5.398438 L 5.902344 5.398438 C 5.695312 5.398438 5.523438 5.230469 5.523438 5.019531 L 5.523438 3.140625 C 5.523438 2.929688 5.695312 2.761719 5.902344 2.761719 L 8.535156 2.761719 C 8.742188 2.761719 8.910156 2.929688 8.910156 3.140625 L 8.910156 5.019531 C 8.910156 5.226562 8.742188 5.398438 8.535156 5.398438 L 7.40625 5.398438 L 7.40625 6.902344 L 10.417969 6.902344 L 10.417969 9.160156 C 10.625 9.160156 10.792969 9.328125 10.792969 9.535156 L 10.792969 10.289062 C 10.792969 10.496094 10.625 10.664062 10.417969 10.664062 Z M 4.019531 9.535156 L 4.019531 10.289062 L 5.148438 10.289062 L 5.148438 9.535156 Z M 8.535156 5.019531 L 8.535156 3.140625 L 5.902344 3.140625 L 5.902344 5.019531 Z M 6.652344 9.535156 L 6.652344 10.289062 L 7.78125 10.289062 L 7.78125 9.535156 Z M 10.417969 9.535156 L 9.289062 9.535156 L 9.289062 10.289062 L 10.417969 10.289062 Z M 10.417969 9.535156 "/>
</g>
</svg>
