<svg width="500" height="500" xmlns="http://www.w3.org/2000/svg">

 <g>
  <title>background</title>
  <rect fill="none" id="canvas_background" height="502" width="502" y="-1" x="-1"/>
 </g>
 <g>
  <title>Layer 1</title>
  <g stroke="null" id="svg_2">
   <g stroke="null" id="svg_3">
    <path fill="#ffffff" stroke="null" id="svg_4" d="m225.46621,120.5522l-34.6203,0c-5.09886,0 -9.23202,4.13316 -9.23202,9.23202l0,130.17158c0,5.09886 4.13316,9.23202 9.23202,9.23202l34.6203,0c5.09886,0 9.23202,-4.13316 9.23202,-9.23202l0,-130.17158c0,-5.09798 -4.13404,-9.23202 -9.23202,-9.23202zm-9.23202,130.17158l-16.15626,0l0,-111.70754l16.15626,0l0,111.70754z"/>
    <path fill="#ffffff" stroke="null" id="svg_5" d="m251.31569,160.25015c-5.09886,0 -9.23202,4.13316 -9.23202,9.23202l0,90.47362c0,5.09886 4.13316,9.23202 9.23202,9.23202l34.6203,0c5.09886,0 9.23202,-4.13316 9.23202,-9.23202l0,-90.47362c0,-5.09886 -4.13316,-9.23202 -9.23202,-9.23202l-34.6203,0zm25.38739,90.47362l-16.15626,0l0,-72.00958l16.15626,0l0,72.00958z"/>
    <path fill="#ffffff" stroke="null" id="svg_6" d="m164.53435,201.3326l-34.15821,0c-5.09886,0 -9.23202,4.13316 -9.23202,9.23202l0,49.39118c0,5.09886 4.13316,9.23202 9.23202,9.23202l34.15821,0c5.09886,0 9.23202,-4.13316 9.23202,-9.23202l0,-49.39118c0,-5.09886 -4.13316,-9.23202 -9.23202,-9.23202zm-9.23202,49.39118l-15.69417,0l0,-30.92714l15.69417,0l0,30.92714z"/>
    <path fill="#ffffff" stroke="null" id="svg_7" d="m212.07983,79.46975c-73.16613,-0.25446 -132.68522,58.85203 -132.93968,132.01816c-0.25446,73.16613 58.85203,132.68434 132.01727,132.93968c73.16613,0.25446 132.68434,-58.85203 132.93968,-132.01727c0.00088,-0.30747 0.00088,-0.61405 0,-0.92152c-0.25357,-72.80741 -59.21163,-131.76547 -132.01727,-132.01904zm113.55323,132.01816c-0.25092,62.68479 -50.87021,113.50994 -113.55323,114.01532c-62.9684,0.25534 -114.22118,-50.58394 -114.47564,-113.55235s50.58394,-114.22118 113.55235,-114.47652c62.9684,-0.25534 114.22118,50.58394 114.47564,113.55235c0.00088,0.15373 0.00088,0.30747 0.00088,0.4612z"/>
    <path fill="#ffffff" stroke="null" id="svg_8" d="m437.31144,387.79043c-0.14313,-0.14578 -0.28715,-0.2898 -0.43293,-0.43293l-64.16206,-64.62414c-3.89991,-3.16746 -9.48648,-3.16746 -13.38639,0l-11.5398,12.00189l-18.46404,-18.46404c58.15934,-65.29739 52.37221,-165.37854 -12.92518,-223.53788s-165.37854,-52.37221 -223.53788,12.92518s-52.37221,165.37854 12.92518,223.537c60.02536,53.46337 150.58734,53.46337 210.6127,0l18.46404,18.46404l-12.00189,12.00189c-3.56947,3.27437 -3.80802,8.82295 -0.53277,12.39153c0.16964,0.18554 0.34811,0.36313 0.53277,0.53277l64.62414,64.62414c6.62825,6.56464 15.59786,10.21893 24.92619,10.15531c9.27973,0.03181 18.1495,-3.81774 24.46499,-10.61651c13.63908,-13.39964 13.83345,-35.31917 0.43293,-48.95825zm-225.23161,-36.89981c-76.99005,0.25534 -139.60946,-61.95058 -139.86392,-138.94063c-0.25534,-76.99005 61.95058,-139.60946 138.94063,-139.86392c76.99005,-0.25534 139.60946,61.95058 139.86392,138.94063c0.00088,0.15373 0.00088,0.30747 0.00088,0.4612c-0.25181,76.70555 -62.23684,138.89733 -138.94151,139.40271zm211.91502,72.89223c-0.01325,0.01325 -0.02739,0.02739 -0.04064,0.04064c-6.47805,6.50102 -17.00003,6.5187 -23.50105,0.04064c-0.01325,-0.01325 -0.02739,-0.02739 -0.04064,-0.04064l-57.69991,-57.69991l23.5417,-23.5417l57.69991,57.69991c6.50014,6.47894 6.5187,17.00003 0.04064,23.50105z"/>
   </g>
  </g>
  <g id="svg_9"/>
  <g id="svg_10"/>
  <g id="svg_11"/>
  <g id="svg_12"/>
  <g id="svg_13"/>
  <g id="svg_14"/>
  <g id="svg_15"/>
  <g id="svg_16"/>
  <g id="svg_17"/>
  <g id="svg_18"/>
  <g id="svg_19"/>
  <g id="svg_20"/>
  <g id="svg_21"/>
  <g id="svg_22"/>
  <g id="svg_23"/>
  <text font-weight="bold" stroke="null" transform="matrix(5.421622440860218,0,0,5.421622440860218,-698.7401357054664,-2199.5670346100046) " xml:space="preserve" text-anchor="start" font-family="Helvetica, Arial, sans-serif" font-size="24" id="svg_24" y="488.44087" x="138.13151" stroke-opacity="null" stroke-width="0" fill="#ffffff">C</text>
 </g>
</svg>