<svg width="512" height="512" xmlns="http://www.w3.org/2000/svg">

 <g>
  <title>background</title>
  <rect fill="none" id="canvas_background" height="602" width="802" y="-1" x="-1"/>
 </g>
 <g>
  <title>Layer 1</title>
  <g id="svg_7"/>
  <g id="svg_8"/>
  <g id="svg_9"/>
  <g id="svg_10"/>
  <g id="svg_11"/>
  <g id="svg_12"/>
  <g id="svg_13"/>
  <g id="svg_14"/>
  <g id="svg_15"/>
  <g id="svg_16"/>
  <g id="svg_17"/>
  <g id="svg_18"/>
  <g id="svg_19"/>
  <g id="svg_20"/>
  <g id="svg_21"/>
  <g stroke="null" id="svg_22">
   <g stroke="null" id="svg_1">
    <g stroke="null" id="svg_2">
     <path fill="#ffffff" stroke="null" id="svg_3" d="m229.1704,30.99998c-109.26827,0 -198.17052,88.90225 -198.17052,198.17052c0,109.27442 88.90225,198.17052 198.17052,198.17052c109.27442,0 198.17052,-88.8961 198.17052,-198.17052c0,-109.26827 -88.8961,-198.17052 -198.17052,-198.17052zm0,359.75657c-89.09737,0 -161.58517,-72.4878 -161.58517,-161.58517s72.4878,-161.58605 161.58517,-161.58605s161.58517,72.4878 161.58517,161.58517s-72.4878,161.58605 -161.58517,161.58605z"/>
    </g>
   </g>
   <g stroke="null" id="svg_4">
    <g stroke="null" id="svg_5">
     <path fill="#ffffff" stroke="null" id="svg_6" d="m475.64034,449.77423l-104.87813,-104.87813c-7.14639,-7.14639 -18.71983,-7.14639 -25.86621,0c-7.14639,7.14023 -7.14639,18.72598 0,25.86621l104.87813,104.87813c3.57275,3.57275 8.25029,5.35957 12.93311,5.35957c4.67666,0 9.35947,-1.78682 12.93311,-5.35957c7.14639,-7.14023 7.14639,-18.72598 0,-25.86621z"/>
    </g>
   </g>
  </g>
  <g stroke="null" id="svg_27">
   <path fill="#ffffff" stroke="null" id="svg_26" d="m333.35878,341.30251l-36.12733,0c-6.6455,0 -12.04647,-5.37681 -12.04647,-12.03439l0,-24.09294c0,-6.63341 5.40098,-12.03439 12.04647,-12.03439l24.08086,0l0,-60.22027l-84.30113,0l0,60.22027l12.03439,0c6.65758,0 12.04647,5.40098 12.04647,12.03439l0,24.09294c0,6.65758 -5.38889,12.03439 -12.04647,12.03439l-36.12733,0c-6.6455,0 -12.03439,-5.37681 -12.03439,-12.03439l0,-24.09294c0,-6.63341 5.38889,-12.03439 12.03439,-12.03439l12.05855,0l0,-60.22027l-84.31322,0l0,60.22027l24.08086,0c6.65758,0 12.04647,5.40098 12.04647,12.03439l0,24.09294c0,6.65758 -5.38889,12.03439 -12.04647,12.03439l-36.11525,0c-6.65758,0 -12.04647,-5.37681 -12.04647,-12.03439l0,-24.09294c0,-6.63341 5.38889,-12.03439 12.04647,-12.03439l0,-72.25466l96.34761,0l0,-48.1738l-36.12733,0c-6.65758,0 -12.04647,-5.38889 -12.04647,-12.04647l0,-60.22027c0,-6.6455 5.38889,-12.04647 12.04647,-12.04647l84.30113,0c6.65758,0 12.03439,5.38889 12.03439,12.04647l0,60.20819c0,6.6455 -5.37681,12.04647 -12.03439,12.04647l-36.12733,0l0,48.1738l96.34761,0l0,72.25466c6.6455,0 12.04647,5.40098 12.04647,12.03439l0,24.09294c-0.01208,6.66966 -5.42514,12.04647 -12.05855,12.04647zm-204.7296,-36.12733l0,24.09294l36.11525,0l0,-24.09294l-36.11525,0zm144.50932,-144.50932l0,-60.22027l-84.30113,0l0,60.20819l84.30113,0l0,0.01208zm-60.22027,144.50932l0,24.09294l36.12733,0l0,-24.09294l-36.12733,0zm120.44055,0l-36.12733,0l0,24.09294l36.12733,0l0,-24.09294z"/>
  </g>
  <line stroke-linecap="null" stroke-linejoin="null" id="svg_31" y2="461" x2="951.5" y1="461" x1="963.5" stroke-opacity="null" stroke-width="10" stroke="#000" fill="none"/>
  <path stroke="#000000" id="svg_33" d="m18.32249,424.68794l35.69292,0l0,-35.69293l36.61416,0l0,35.69293l35.69292,0l0,36.61417l-35.69292,0l0,35.69292l-36.61416,0l0,-35.69292l-35.69292,0l0,-36.61417z" stroke-width="0" fill="#ffffff"/>
 </g>
</svg>