<svg width="1024" height="1024" xmlns="http://www.w3.org/2000/svg" class="icon">

 <g>
  <title>background</title>
  <rect fill="none" id="canvas_background" height="402" width="582" y="-1" x="-1"/>
 </g>
 <g>
  <title>Layer 1</title>
  <path fill="#ffffff" id="svg_1" d="m615.56421,406.57081m269.47132,141.54678l-15.94004,0l0,243.09662c0,70.93763 15.94004,131.51736 15.94004,131.51736c0,17.53026 -14.34675,31.88213 -31.88315,31.88213l-685.46268,0c-17.53231,0 -31.87804,-14.35187 -31.87804,-31.88213c0,0 15.94004,-58.1903 15.94004,-128.32976l0,-246.28422l-15.94004,0c-17.53742,0 -31.88315,-14.34982 -31.88315,-31.88827l0,-159.4045c0,-17.53742 14.34573,-31.88417 31.88315,-31.88417l270.99502,0l0,-175.35068c0,-43.83844 35.86791,-79.70532 79.70737,-79.70532l47.82217,0c43.83843,0 79.70429,35.86688 79.70429,79.70532l0,175.34966l270.99604,0c17.53743,0 31.88213,14.34675 31.88213,31.88417l0,159.41064c-0.00102,17.53333 -14.34573,31.88315 -31.88315,31.88315l0,0l0,0zm-549.96364,374.60886l0,-211.21756c0,-6.37417 5.58316,-11.95119 11.95631,-11.95119l7.96644,0c6.38032,0 11.96143,5.57702 11.96143,11.95119l0,211.21756l135.49597,0l0,-211.21756c0,-6.37417 5.58111,-11.95119 11.95426,-11.95119l7.96542,0c6.38543,0 11.96245,5.57702 11.96245,11.95119l0,211.21756l127.52646,0l0,-211.21756c0,-6.37417 5.57702,-11.95119 11.9512,-11.95119l7.97258,0c6.37724,0 11.95528,5.57702 11.95528,11.95119l0,211.21756l159.41166,0c0,0 -15.93901,-57.38803 -15.93901,-128.32464l0,-246.28422l-653.57851,0l0,246.28422c0,70.93661 -15.94516,128.32464 -15.94516,128.32464l167.38322,0l0,0l0,0zm549.96364,-549.96465c0,-8.76871 -7.17133,-15.93697 -15.94004,-15.93697l-286.93915,-0.00001l0,-199.26227c0,-31.086 -24.70875,-55.79373 -55.79475,-55.79373l-31.87803,0c-31.08498,0 -55.79884,24.70773 -55.79884,55.79373l0,199.26228l-286.93404,-0.00001c-8.76973,0 -15.94004,7.16826 -15.94004,15.93698l0,127.52851c0,8.76973 7.17031,15.94004 15.94004,15.94004l31.88315,0l653.57851,0l31.88213,0c8.76871,0 15.94004,-7.17031 15.94004,-15.94004l0,-127.52851l0.00102,0l0,0zm0,0m0,175.35579l-15.94004,0l0,243.09662c0,70.93763 15.94004,131.51736 15.94004,131.51736c0,17.53026 -14.34675,31.88213 -31.88315,31.88213l-685.46268,0c-17.53231,0 -31.87804,-14.35187 -31.87804,-31.88213c0,0 15.94004,-58.1903 15.94004,-128.32976l0,-246.28422l-15.94004,0c-17.53742,0 -31.88315,-14.34982 -31.88315,-31.88827l0,-159.4045c0,-17.53742 14.34573,-31.88417 31.88315,-31.88417l270.99502,0l0,-175.35068c0,-43.83844 35.86791,-79.70532 79.70737,-79.70532l47.82217,0c43.83843,0 79.70429,35.86688 79.70429,79.70532l0,175.34966l270.99604,0c17.53743,0 31.88213,14.34675 31.88213,31.88417l0,159.41064c-0.00102,17.53333 -14.34573,31.88315 -31.88315,31.88315l0,0l0,0zm-549.96364,364.3758l0,-200.9845c0,-6.37417 5.58316,-11.95119 11.95631,-11.95119l7.96644,0c6.38032,0 11.96143,5.57702 11.96143,11.95119l0,200.9845l135.49597,0l0,-200.9845c0,-6.37417 5.58111,-11.95119 11.95426,-11.95119l7.96542,0c6.38543,0 11.96245,5.57702 11.96245,11.95119l0,200.9845l127.52646,0l0,-200.9845c0,-6.37417 5.57702,-11.95119 11.9512,-11.95119l7.97258,0c6.37724,0 11.95528,5.57702 11.95528,11.95119l0,200.9845l149.1786,0c0,0 -15.93901,-47.15497 -15.93901,-118.09158l0,-246.28422l-633.11239,0l0,246.28422c0,70.93661 -15.94515,118.09158 -15.94515,118.09158l157.15015,0l0,10.23306l0,-10.23306zm539.73058,-529.49853c0,-8.76871 -7.17133,-15.93697 -15.94004,-15.93697l-286.93915,0l0,-209.49534c0,-31.086 -24.70876,-45.56066 -55.79475,-45.56066l-11.41191,0c-31.08497,0 -55.79884,14.47466 -55.79884,45.56066l0,209.49534l-286.93404,0c-8.76973,0 -15.94004,7.16826 -15.94004,15.93697l0,107.06239c0,8.76973 7.17031,15.94004 15.94004,15.94004l31.88315,0l633.11239,0l31.88212,0c8.76872,0 15.94004,-7.17031 15.94004,-15.94004l0,-107.06239l10.23307,0l-10.23204,0zm10.23306,-10.23306"/>
 </g>
</svg>