<svg width="1024" height="1024" xmlns="http://www.w3.org/2000/svg" class="icon">

 <g>
  <title>background</title>
  <rect fill="none" id="canvas_background" height="602" width="802" y="-1" x="-1"/>
 </g>
 <g>
  <title>Layer 1</title>
  <path fill="#ffffff" id="svg_1" d="m527.52056,119.04225c50.80925,0 100.08238,9.94345 146.44829,29.55305c44.8001,18.94861 85.0433,46.08052 119.60791,80.64574c34.5646,34.56317 61.69968,74.80473 80.64901,119.60299c19.61042,46.36396 29.55427,95.63413 29.55427,146.44224c0,50.8072 -9.94385,100.07829 -29.55427,146.44122c-18.94933,44.79928 -46.08338,85.03982 -80.64901,119.60299c-34.56461,34.5642 -74.80781,61.69713 -119.60791,80.64574c-46.36693,19.6096 -95.63904,29.55305 -146.44829,29.55305s-100.08135,-9.94345 -146.44828,-29.55305c-44.8001,-18.94861 -85.0433,-46.08052 -119.60791,-80.64574c-34.56461,-34.56317 -61.69968,-74.80473 -80.64799,-119.60299c-19.61144,-46.36396 -29.55427,-95.63413 -29.55427,-146.44122s9.94386,-100.07828 29.55427,-146.44224c18.94933,-44.79928 46.08338,-85.03982 80.64799,-119.60299c34.56563,-34.5642 74.80781,-61.69713 119.60791,-80.64574c46.36693,-19.6096 95.63812,-29.55305 146.44828,-29.55305m0,-32.74578c-225.88979,0 -409.00669,183.10841 -409.00669,408.9899c0,225.88048 183.11588,408.98888 409.00669,408.98888c225.89082,0 409.0067,-183.1084 409.0067,-408.98888c0,-225.8816 -183.11588,-408.9899 -409.0067,-408.9899l0,0zm-99.36291,582.28061l-135.83207,-143.72639l23.80093,-22.49124l112.9685,119.53541l295.23897,-288.27249l22.878,23.42964l-319.05433,311.52507z"/>
 </g>
</svg>