<?xml version="1.0" encoding="UTF-8"?>
<svg xmlns="http://www.w3.org/2000/svg" xmlns:xlink="http://www.w3.org/1999/xlink" width="16pt" height="16pt" viewBox="0 0 16 16" version="1.1">
<g id="surface1">
<path style=" stroke:none;fill-rule:nonzero;fill:rgb(100%,100%,100%);fill-opacity:1;" d="M 8.242188 1.859375 C 9.035156 1.859375 9.804688 2.015625 10.53125 2.320312 C 11.230469 2.617188 11.859375 3.042969 12.398438 3.582031 C 12.941406 4.121094 13.363281 4.75 13.660156 5.449219 C 13.964844 6.175781 14.121094 6.945312 14.121094 7.738281 C 14.121094 8.53125 13.964844 9.300781 13.660156 10.027344 C 13.363281 10.726562 12.941406 11.355469 12.398438 11.894531 C 11.859375 12.4375 11.230469 12.859375 10.53125 13.15625 C 9.804688 13.460938 9.035156 13.617188 8.242188 13.617188 C 7.449219 13.617188 6.679688 13.460938 5.953125 13.15625 C 5.253906 12.859375 4.625 12.4375 4.085938 11.894531 C 3.546875 11.355469 3.121094 10.726562 2.824219 10.027344 C 2.519531 9.300781 2.363281 8.53125 2.363281 7.738281 C 2.363281 6.945312 2.519531 6.175781 2.824219 5.449219 C 3.121094 4.75 3.546875 4.121094 4.085938 3.582031 C 4.625 3.042969 5.253906 2.617188 5.953125 2.320312 C 6.679688 2.015625 7.449219 1.859375 8.242188 1.859375 M 8.242188 1.347656 C 4.714844 1.347656 1.851562 4.210938 1.851562 7.738281 C 1.851562 11.269531 4.714844 14.128906 8.242188 14.128906 C 11.773438 14.128906 14.632812 11.269531 14.632812 7.738281 C 14.632812 4.210938 11.773438 1.347656 8.242188 1.347656 Z M 6.691406 10.445312 L 4.566406 8.199219 L 4.941406 7.847656 L 6.703125 9.71875 L 11.316406 5.210938 L 11.675781 5.578125 Z M 6.691406 10.445312 "/>
</g>
</svg>
