<svg width="500" height="500" xmlns="http://www.w3.org/2000/svg">
 <g>
  <title>background</title>
  <rect x="-1" y="-1" width="502" height="502" id="canvas_background" fill="none"/>
 </g>

 <g>
  <title>Layer 1</title>
  <g stroke="null" id="svg_1">
   <path stroke="null" d="m263.55581,89.74789l0,-51.42274l-27.12759,0l0,51.42274c-77.904,6.55049 -140.1139,68.76835 -146.65645,146.69633l-51.43864,0l0,27.12753l51.43864,0c6.54254,77.904 68.75245,140.10595 146.65645,146.65645l0,51.44666l27.12759,0l0,-51.44666c77.91996,-6.55049 140.12987,-68.75239 146.67241,-146.65639l51.43864,0l0,-27.12759l-51.43864,0c-6.55055,-77.92797 -68.76046,-140.14583 -146.67241,-146.69633zm0,293.34476l0,-41.01052l-27.12759,0l0,41.01052c-62.95992,-6.37495 -113.15385,-56.56894 -119.52085,-119.5209l41.0025,0l0,-27.12753l-41.01052,0c6.35905,-62.98383 56.569,-113.19379 119.5209,-119.56078l0,41.01847l27.12753,0l0,-41.01847c62.97588,6.37495 113.16987,56.58491 119.53687,119.56078l-41.0025,0l0,27.12753l41.0025,0c-6.367,62.95196 -56.56099,113.14595 -119.52886,119.5209z" fill="#ffffff" id="svg_2"/>
   <path stroke="null" d="m249.99199,224.46023c-14.07437,0 -25.52384,11.45742 -25.52384,25.52384s11.45742,25.52384 25.52384,25.52384s25.5239,-11.45742 25.5239,-25.52384s-11.44946,-25.52384 -25.5239,-25.52384zm-1.60369,25.53179c0,-0.87766 0.71808,-1.60369 1.60369,-1.60369s1.60375,0.72603 1.60375,1.60369c0.00795,1.74737 -3.20745,1.76333 -3.20745,0z" fill="#ffffff" id="svg_3"/>
  </g>
 </g>
</svg>