<?xml version="1.0" encoding="UTF-8"?>
<svg xmlns="http://www.w3.org/2000/svg" xmlns:xlink="http://www.w3.org/1999/xlink" width="16pt" height="16pt" viewBox="0 0 16 16" version="1.1">
<g id="surface1">
<path style=" stroke:none;fill-rule:nonzero;fill:rgb(100%,100%,100%);fill-opacity:1;" d="M 8.433594 2.871094 L 8.433594 1.226562 L 7.566406 1.226562 L 7.566406 2.871094 C 5.074219 3.082031 3.082031 5.074219 2.871094 7.566406 L 1.226562 7.566406 L 1.226562 8.433594 L 2.871094 8.433594 C 3.082031 10.925781 5.074219 12.917969 7.566406 13.128906 L 7.566406 14.773438 L 8.433594 14.773438 L 8.433594 13.128906 C 10.925781 12.917969 12.917969 10.925781 13.128906 8.433594 L 14.773438 8.433594 L 14.773438 7.566406 L 13.128906 7.566406 C 12.917969 5.074219 10.925781 3.082031 8.433594 2.871094 Z M 8.433594 12.257812 L 8.433594 10.945312 L 7.566406 10.945312 L 7.566406 12.257812 C 5.550781 12.054688 3.945312 10.449219 3.742188 8.433594 L 5.054688 8.433594 L 5.054688 7.566406 L 3.742188 7.566406 C 3.945312 5.550781 5.550781 3.945312 7.566406 3.742188 L 7.566406 5.054688 L 8.433594 5.054688 L 8.433594 3.742188 C 10.449219 3.945312 12.054688 5.550781 12.257812 7.566406 L 10.945312 7.566406 L 10.945312 8.433594 L 12.257812 8.433594 C 12.054688 10.449219 10.449219 12.054688 8.433594 12.257812 Z M 8.433594 12.257812 "/>
<path style=" stroke:none;fill-rule:nonzero;fill:rgb(100%,100%,100%);fill-opacity:1;" d="M 8 7.183594 C 7.550781 7.183594 7.183594 7.550781 7.183594 8 C 7.183594 8.449219 7.550781 8.816406 8 8.816406 C 8.449219 8.816406 8.816406 8.449219 8.816406 8 C 8.816406 7.550781 8.449219 7.183594 8 7.183594 Z M 7.949219 8 C 7.949219 7.972656 7.972656 7.949219 8 7.949219 C 8.027344 7.949219 8.050781 7.972656 8.050781 8 C 8.050781 8.054688 7.949219 8.054688 7.949219 8 Z M 7.949219 8 "/>
</g>
</svg>
