<?xml version="1.0" encoding="UTF-8"?>
<svg xmlns="http://www.w3.org/2000/svg" xmlns:xlink="http://www.w3.org/1999/xlink" width="16pt" height="16pt" viewBox="0 0 16 16" version="1.1">
<g id="surface1">
<path style=" stroke:none;fill-rule:nonzero;fill:rgb(100%,100%,100%);fill-opacity:1;" d="M 14.5 12.96875 L 11 9.46875 C 10.855469 9.320312 10.675781 9.25 10.5 9.25 C 10.4375 9.25 10.375 9.261719 10.3125 9.28125 L 9.816406 8.785156 C 10.402344 7.996094 10.75 7.023438 10.75 5.96875 C 10.75 3.34375 8.625 1.21875 6 1.21875 C 3.375 1.21875 1.25 3.34375 1.25 5.96875 C 1.25 8.589844 3.375 10.71875 6 10.71875 C 7.058594 10.71875 8.027344 10.367188 8.816406 9.785156 L 9.3125 10.28125 C 9.242188 10.515625 9.300781 10.769531 9.5 10.96875 L 13 14.46875 C 13.144531 14.613281 13.324219 14.6875 13.5 14.6875 C 13.675781 14.6875 13.855469 14.613281 14 14.46875 L 14.5 13.96875 C 14.792969 13.675781 14.792969 13.257812 14.5 12.96875 Z M 6 10.46875 C 3.519531 10.46875 1.5 8.449219 1.5 5.96875 C 1.5 3.484375 3.519531 1.46875 6 1.46875 C 8.480469 1.46875 10.5 3.484375 10.5 5.96875 C 10.5 8.449219 8.480469 10.46875 6 10.46875 Z M 9.433594 10.046875 L 9.019531 9.632812 C 9.253906 9.441406 9.472656 9.222656 9.667969 8.988281 L 10.078125 9.402344 C 10.054688 9.421875 10.027344 9.441406 10 9.46875 L 9.5 9.96875 C 9.472656 9.992188 9.453125 10.019531 9.433594 10.046875 Z M 14.324219 13.789062 L 13.824219 14.289062 C 13.726562 14.386719 13.617188 14.4375 13.5 14.4375 C 13.382812 14.4375 13.273438 14.386719 13.175781 14.289062 L 9.675781 10.789062 C 9.484375 10.597656 9.484375 10.335938 9.675781 10.144531 L 10.175781 9.644531 C 10.273438 9.546875 10.382812 9.5 10.5 9.5 C 10.617188 9.5 10.726562 9.546875 10.824219 9.644531 L 14.324219 13.144531 C 14.515625 13.335938 14.515625 13.597656 14.324219 13.789062 Z M 14.324219 13.789062 "/>
<path style=" stroke:none;fill-rule:nonzero;fill:rgb(100%,100%,100%);fill-opacity:1;" d="M 6 1.96875 C 3.792969 1.96875 2 3.761719 2 5.96875 C 2 8.171875 3.792969 9.96875 6 9.96875 C 8.207031 9.96875 10 8.171875 10 5.96875 C 10 3.761719 8.207031 1.96875 6 1.96875 Z M 6 9.71875 C 3.929688 9.71875 2.25 8.039062 2.25 5.96875 C 2.25 3.894531 3.929688 2.21875 6 2.21875 C 8.070312 2.21875 9.75 3.894531 9.75 5.96875 C 9.75 8.039062 8.070312 9.71875 6 9.71875 Z M 6 9.71875 "/>
<path style=" stroke:none;fill-rule:nonzero;fill:rgb(100%,100%,100%);fill-opacity:1;" d="M 9.085938 5.875 L 8.289062 5.125 C 8.273438 5.109375 8.25 5.101562 8.226562 5.09375 L 7.347656 4.914062 L 7.9375 4.574219 C 7.976562 4.554688 8 4.511719 8 4.46875 L 8 3.46875 C 8 3.398438 7.945312 3.34375 7.875 3.34375 C 7.804688 3.34375 7.75 3.398438 7.75 3.46875 L 7.75 4.394531 L 7.199219 4.707031 C 7.121094 4.488281 6.9375 4.320312 6.714844 4.253906 C 6.664062 4.089844 6.5625 3.953125 6.429688 3.855469 L 6.851562 3.292969 C 6.890625 3.238281 6.878906 3.160156 6.824219 3.117188 C 6.769531 3.078125 6.691406 3.085938 6.648438 3.144531 L 6.195312 3.746094 C 6.132812 3.730469 6.070312 3.71875 6 3.71875 C 5.929688 3.71875 5.867188 3.730469 5.804688 3.746094 L 5.351562 3.140625 C 5.308594 3.085938 5.230469 3.074219 5.175781 3.117188 C 5.121094 3.160156 5.109375 3.238281 5.148438 3.292969 L 5.570312 3.855469 C 5.4375 3.953125 5.332031 4.089844 5.285156 4.253906 C 5.058594 4.320312 4.878906 4.488281 4.800781 4.707031 L 4.25 4.394531 L 4.25 3.46875 C 4.25 3.398438 4.195312 3.34375 4.125 3.34375 C 4.054688 3.34375 4 3.398438 4 3.46875 L 4 4.46875 C 4 4.511719 4.023438 4.554688 4.0625 4.574219 L 4.652344 4.914062 L 3.773438 5.09375 C 3.75 5.101562 3.726562 5.109375 3.710938 5.125 L 2.914062 5.875 C 2.863281 5.921875 2.863281 6.003906 2.910156 6.054688 C 2.933594 6.078125 2.964844 6.09375 3 6.09375 C 3.03125 6.09375 3.0625 6.082031 3.085938 6.058594 L 3.855469 5.332031 L 4.570312 5.183594 C 4.46875 5.332031 4.398438 5.496094 4.351562 5.667969 L 3.648438 6.644531 C 3.636719 6.660156 3.632812 6.675781 3.628906 6.691406 L 3.378906 7.941406 C 3.363281 8.011719 3.40625 8.078125 3.476562 8.089844 C 3.484375 8.09375 3.492188 8.09375 3.5 8.09375 C 3.558594 8.09375 3.609375 8.050781 3.621094 7.992188 L 3.867188 6.769531 L 4.265625 6.21875 C 4.253906 6.382812 4.25 6.550781 4.25 6.71875 C 4.25 7.5 4.707031 8.46875 6 8.46875 C 7.292969 8.46875 7.75 7.453125 7.75 6.71875 C 7.75 6.550781 7.746094 6.382812 7.734375 6.21875 L 8.132812 6.769531 L 8.378906 7.992188 C 8.390625 8.050781 8.441406 8.09375 8.5 8.09375 C 8.507812 8.09375 8.515625 8.09375 8.523438 8.089844 C 8.59375 8.078125 8.636719 8.011719 8.621094 7.941406 L 8.371094 6.691406 C 8.371094 6.675781 8.363281 6.660156 8.351562 6.644531 L 7.648438 5.667969 C 7.601562 5.496094 7.53125 5.332031 7.433594 5.183594 L 8.144531 5.332031 L 8.914062 6.058594 C 8.9375 6.082031 8.96875 6.09375 9 6.09375 C 9.035156 6.09375 9.066406 6.078125 9.089844 6.054688 C 9.136719 6.003906 9.136719 5.921875 9.085938 5.875 Z M 6.429688 4.21875 L 5.570312 4.21875 C 5.65625 4.070312 5.816406 3.96875 6 3.96875 C 6.183594 3.96875 6.34375 4.070312 6.429688 4.21875 Z M 5.5 4.46875 L 6.5 4.46875 C 6.777344 4.46875 7 4.691406 7 4.96875 L 7 4.984375 C 6.359375 5.074219 6 5.46875 6 5.46875 C 6 5.46875 5.65625 5.070312 5 4.984375 L 5 4.96875 C 5 4.691406 5.222656 4.46875 5.5 4.46875 Z M 4.5 6.71875 C 4.5 6.140625 4.527344 5.589844 4.851562 5.21875 C 5.472656 5.257812 5.796875 5.617188 5.808594 5.628906 L 5.875 5.703125 L 5.875 8.210938 C 4.863281 8.152344 4.5 7.382812 4.5 6.71875 Z M 6.125 8.210938 L 6.125 5.699219 L 6.183594 5.636719 C 6.199219 5.621094 6.542969 5.257812 7.148438 5.222656 C 7.472656 5.589844 7.5 6.140625 7.5 6.71875 C 7.5 7.253906 7.203125 8.144531 6.125 8.210938 Z M 6.125 8.210938 "/>
</g>
</svg>
