<svg width="500" height="500" xmlns="http://www.w3.org/2000/svg">

 <g>
  <title>background</title>
  <rect fill="none" id="canvas_background" height="502" width="502" y="-1" x="-1"/>
 </g>
 <g>
  <title>Layer 1</title>
  <g stroke="null" id="svg_6">
   <path fill="#ffffff" stroke="null" id="svg_1" d="m407.69113,449.1888l-315.38227,0c-22.87351,0 -41.49767,-18.60755 -41.49767,-41.49767l0,-315.38227c0,-22.89011 18.62415,-41.49767 41.49767,-41.49767l315.38227,0c22.87351,0 41.49767,18.60755 41.49767,41.49767l0,315.38227c0,22.89011 -18.62415,41.49767 -41.49767,41.49767zm-315.38227,-381.77854c-13.72743,0 -24.8986,11.17117 -24.8986,24.8986l0,315.38227c0,13.72743 11.17117,24.8986 24.8986,24.8986l315.38227,0c13.72743,0 24.8986,-11.17117 24.8986,-24.8986l0,-315.38227c0,-13.72743 -11.17117,-24.8986 -24.8986,-24.8986l-315.38227,0z"/>
   <path fill="#ffffff" stroke="null" id="svg_2" d="m291.49766,316.39626c-2.92144,0 -5.71008,-1.56031 -7.204,-4.18296l-50.89274,-89.05399l0,84.93743c0,4.58134 -3.71819,8.29953 -8.29953,8.29953s-8.29953,-3.71819 -8.29953,-8.29953l0,-116.19347c0,-3.76799 2.52306,-7.0546 6.17485,-8.01735c3.65179,-0.94615 7.46958,0.64736 9.32868,3.90078l50.89274,89.05399l0,-84.93743c0,-4.58134 3.71819,-8.29953 8.29953,-8.29953s8.29953,3.71819 8.29953,8.29953l0,116.19347c0,3.76799 -2.52306,7.0546 -6.17485,8.01735c-0.71376,0.18259 -1.42752,0.28218 -2.12468,0.28218z"/>
   <path fill="#ffffff" stroke="null" id="svg_3" d="m191.90326,258.29953l-66.39627,0c-4.58134,0 -8.29953,-3.71819 -8.29953,-8.29953s3.71819,-8.29953 8.29953,-8.29953l66.39627,0c4.58134,0 8.29953,3.71819 8.29953,8.29953s-3.71819,8.29953 -8.29953,8.29953z"/>
   <path fill="#ffffff" stroke="null" id="svg_4" d="m191.90326,316.39626l-33.19813,0c-22.87351,0 -41.49767,-18.60755 -41.49767,-41.49767l0,-49.7972c0,-22.89011 18.62415,-41.49767 41.49767,-41.49767l33.19813,0c4.58134,0 8.29953,3.71819 8.29953,8.29953s-3.71819,8.29953 -8.29953,8.29953l-33.19813,0c-13.72743,0 -24.8986,11.17117 -24.8986,24.8986l0,49.7972c0,13.72743 11.17117,24.8986 24.8986,24.8986l33.19813,0c4.58134,0 8.29953,3.71819 8.29953,8.29953s-3.71819,8.29953 -8.29953,8.29953z"/>
   <path fill="#ffffff" stroke="null" id="svg_5" d="m357.89393,316.39626l-33.19813,0c-4.58134,0 -8.29953,-3.71819 -8.29953,-8.29953l0,-116.19347c0,-4.58134 3.71819,-8.29953 8.29953,-8.29953l33.19813,0c22.87351,0 41.49767,18.60755 41.49767,41.49767l0,49.7972c0,22.89011 -18.62415,41.49767 -41.49767,41.49767zm-24.8986,-16.59907l24.8986,0c13.72743,0 24.8986,-11.17117 24.8986,-24.8986l0,-49.7972c0,-13.72743 -11.17117,-24.8986 -24.8986,-24.8986l-24.8986,0l0,99.5944z"/>
  </g>
 </g>
</svg>