<svg width="16" height="16" xmlns="http://www.w3.org/2000/svg">

 <g>
  <title>Layer 1</title>
  <path stroke="null" fill="#ffffff" id="svg_1" d="m13.09149,1.58438l-11.43939,0c-0.20189,-0.00038 -0.38686,0.11233 -0.47908,0.29183c-0.0935,0.18191 -0.07709,0.40098 0.04236,0.56712l4.19091,5.90384c0.0014,0.00204 0.00293,0.00394 0.00433,0.00598c0.15227,0.20558 0.23471,0.45466 0.23509,0.71049l0,4.81337c-0.00089,0.14248 0.05508,0.27949 0.15545,0.38062c0.1005,0.10101 0.23713,0.158 0.3796,0.158c0.07238,-0.00013 0.14413,-0.0145 0.21105,-0.04236l2.35497,-0.89787c0.21092,-0.0645 0.35098,-0.26359 0.35098,-0.50326l0,-3.9085c0.00038,-0.25583 0.08282,-0.50491 0.23496,-0.71049c0.0014,-0.00204 0.00293,-0.00394 0.00433,-0.00598l4.19104,-5.90396c0.11945,-0.16601 0.13586,-0.38495 0.04236,-0.56686c-0.0921,-0.17962 -0.2772,-0.29234 -0.47896,-0.29195zm0,0"/>
  <text transform="matrix(1.22104 0 0 1.22104 -2.08367 -3.54433)" stroke="null" xml:space="preserve" text-anchor="start" font-family="sans-serif" font-size="7" stroke-width="0" id="svg_5" y="15.17575" x="9.30103" fill="#ffffff">R</text>
 </g>
</svg>