<?xml version="1.0" encoding="UTF-8"?>
<svg xmlns="http://www.w3.org/2000/svg" xmlns:xlink="http://www.w3.org/1999/xlink" width="16pt" height="16pt" viewBox="0 0 16 16" version="1.1">
<g id="surface1">
<path style=" stroke:none;fill-rule:nonzero;fill:rgb(78.039216%,36.078431%,36.078431%);fill-opacity:1;" d="M 1.019531 8.003906 C 1.019531 11.859375 4.144531 14.988281 8.003906 14.988281 C 11.863281 14.988281 14.988281 11.859375 14.988281 8.003906 C 14.988281 4.144531 11.863281 1.015625 8.003906 1.015625 C 4.144531 1.015625 1.019531 4.144531 1.019531 8.003906 Z M 1.019531 8.003906 "/>
<path style=" stroke:none;fill-rule:nonzero;fill:rgb(13.72549%,12.156863%,12.54902%);fill-opacity:1;" d="M 7.160156 13.691406 C 7.160156 13.691406 3.652344 13.171875 3.652344 10.1875 C 3.652344 7.199219 8.238281 6.914062 7.222656 3.207031 C 7.222656 3.207031 10.65625 4.28125 9.816406 7.625 C 9.816406 7.625 10.269531 7.335938 10.617188 6.773438 C 10.617188 6.773438 12.355469 8.117188 12.355469 10.160156 C 12.355469 12.203125 9.945312 13.703125 8.804688 13.691406 C 8.804688 13.691406 10.039062 12.027344 8.917969 10.957031 C 7.328125 9.433594 8.003906 8.457031 8.003906 8.457031 C 8.003906 8.457031 4.128906 10.351562 7.160156 13.691406 Z M 7.160156 13.691406 "/>
<path style=" stroke:none;fill-rule:nonzero;fill:rgb(96.078431%,81.176471%,52.941176%);fill-opacity:1;" d="M 7.160156 13.253906 C 7.160156 13.253906 3.652344 12.738281 3.652344 9.75 C 3.652344 6.761719 8.238281 6.476562 7.222656 2.769531 C 7.222656 2.769531 10.65625 3.84375 9.816406 7.191406 C 9.816406 7.191406 10.269531 6.898438 10.617188 6.335938 C 10.617188 6.335938 12.355469 7.679688 12.355469 9.722656 C 12.355469 11.765625 9.945312 13.269531 8.804688 13.253906 C 8.804688 13.253906 10.039062 11.589844 8.917969 10.519531 C 7.328125 8.996094 8.003906 8.019531 8.003906 8.019531 C 8.003906 8.019531 4.128906 9.914062 7.160156 13.253906 Z M 7.160156 13.253906 "/>
</g>
</svg>
