<svg width="1024" height="1024" xmlns="http://www.w3.org/2000/svg" class="icon">

 <g>
  <title>background</title>
  <rect fill="none" id="canvas_background" height="402" width="582" y="-1" x="-1"/>
 </g>
 <g>
  <title>Layer 1</title>
  <path id="svg_1" fill="#666666" d="m512.281,512.19m-447.074,0a447.074,447.074 0 1 0 894.148,0a447.074,447.074 0 1 0 -894.148,0z"/>
  <path id="svg_2" fill="#231F20" d="m458.143,876.31s-224.41,-33.207 -224.41,-224.41s293.429,-209.439 228.492,-446.639c0,0 219.709,68.758 166.077,282.845c0,0 29.048,-18.552 51.282,-54.664c0,0 111.245,85.936 111.245,216.712s-154.21,226.962 -227.264,226.06c0,0 78.821,-106.433 7.113,-175.046c-101.793,-97.399 -58.397,-159.945 -58.397,-159.945s-248.047,121.336 -54.138,335.087z"/>
  <path id="svg_3" fill="#444444" d="m458.143,848.368s-224.41,-33.207 -224.41,-224.41s293.429,-209.439 228.492,-446.639c0,0 219.709,68.758 166.077,282.845c0,0 29.048,-18.552 51.282,-54.664c0,0 111.245,85.936 111.245,216.712s-154.21,226.962 -227.264,226.06c0,0 78.821,-106.433 7.113,-175.046c-101.793,-97.399 -58.397,-159.945 -58.397,-159.945s-248.047,121.336 -54.138,335.087z"/>
 </g>
</svg>