<?xml version="1.0" encoding="UTF-8"?>
<svg xmlns="http://www.w3.org/2000/svg" xmlns:xlink="http://www.w3.org/1999/xlink" width="16pt" height="16pt" viewBox="0 0 16 16" version="1.1">
<g id="surface1">
<path style=" stroke:none;fill-rule:nonzero;fill:rgb(100%,100%,100%);fill-opacity:1;" d="M 12.378906 1.882812 C 11.773438 1.519531 11.132812 1.34375 10.410156 1.34375 C 9.550781 1.34375 8.707031 1.597656 7.886719 1.84375 C 7.089844 2.082031 6.335938 2.308594 5.589844 2.308594 C 5.589844 2.308594 5.585938 2.308594 5.585938 2.308594 C 5.089844 2.308594 4.636719 2.203125 4.210938 1.984375 L 4.210938 1.734375 C 4.210938 1.519531 4.039062 1.34375 3.824219 1.34375 C 3.605469 1.34375 3.433594 1.519531 3.433594 1.734375 L 3.433594 14.265625 C 3.433594 14.480469 3.605469 14.65625 3.824219 14.65625 C 4.039062 14.65625 4.210938 14.480469 4.210938 14.265625 L 4.210938 8.140625 C 4.644531 8.308594 5.097656 8.390625 5.589844 8.390625 C 6.449219 8.390625 7.292969 8.136719 8.113281 7.890625 C 8.910156 7.652344 9.664062 7.425781 10.410156 7.425781 C 10.988281 7.425781 11.5 7.566406 11.976562 7.851562 C 12.097656 7.925781 12.246094 7.925781 12.371094 7.855469 C 12.492188 7.789062 12.566406 7.65625 12.566406 7.519531 L 12.566406 2.214844 C 12.566406 2.078125 12.496094 1.953125 12.378906 1.882812 Z M 7.886719 7.144531 C 7.089844 7.382812 6.335938 7.609375 5.589844 7.609375 C 5.089844 7.609375 4.636719 7.503906 4.210938 7.289062 L 4.210938 2.839844 C 4.644531 3.007812 5.097656 3.089844 5.585938 3.089844 C 5.585938 3.089844 5.589844 3.089844 5.589844 3.089844 C 6.449219 3.089844 7.292969 2.835938 8.113281 2.589844 C 8.910156 2.351562 9.664062 2.125 10.410156 2.125 C 10.910156 2.125 11.363281 2.230469 11.789062 2.445312 L 11.789062 6.894531 C 11.355469 6.726562 10.902344 6.644531 10.410156 6.644531 C 9.550781 6.644531 8.707031 6.898438 7.886719 7.144531 Z M 7.886719 7.144531 "/>
</g>
</svg>
