<?xml version="1.0" encoding="UTF-8"?>
<svg xmlns="http://www.w3.org/2000/svg" xmlns:xlink="http://www.w3.org/1999/xlink" width="16pt" height="16pt" viewBox="0 0 16 16" version="1.1">
<g id="surface1">
<path style=" stroke:none;fill-rule:nonzero;fill:rgb(100%,100%,100%);fill-opacity:1;" d="M 14.070312 6.480469 L 12.933594 6.480469 C 12.839844 6.171875 12.714844 5.871094 12.5625 5.585938 L 13.367188 4.78125 C 13.539062 4.609375 13.632812 4.382812 13.632812 4.136719 C 13.632812 3.894531 13.539062 3.664062 13.367188 3.492188 L 12.507812 2.632812 C 12.164062 2.289062 11.5625 2.289062 11.21875 2.632812 L 10.414062 3.4375 C 10.128906 3.285156 9.828125 3.160156 9.519531 3.066406 L 9.519531 1.929688 C 9.519531 1.425781 9.109375 1.019531 8.605469 1.019531 L 7.394531 1.019531 C 6.890625 1.019531 6.480469 1.425781 6.480469 1.929688 L 6.480469 3.066406 C 6.171875 3.160156 5.871094 3.285156 5.585938 3.4375 L 4.78125 2.632812 C 4.425781 2.277344 3.847656 2.277344 3.492188 2.632812 L 2.632812 3.492188 C 2.277344 3.847656 2.277344 4.425781 2.632812 4.78125 L 3.4375 5.585938 C 3.285156 5.871094 3.160156 6.171875 3.066406 6.484375 L 1.929688 6.484375 C 1.425781 6.484375 1.019531 6.890625 1.019531 7.394531 L 1.019531 8.605469 C 1.019531 9.109375 1.425781 9.519531 1.929688 9.519531 L 3.066406 9.519531 C 3.160156 9.828125 3.285156 10.128906 3.4375 10.414062 L 2.632812 11.21875 C 2.277344 11.574219 2.277344 12.152344 2.632812 12.507812 L 3.492188 13.367188 C 3.847656 13.722656 4.425781 13.722656 4.78125 13.367188 L 5.585938 12.5625 C 5.871094 12.714844 6.171875 12.839844 6.484375 12.933594 L 6.484375 14.070312 C 6.484375 14.574219 6.890625 14.980469 7.394531 14.980469 L 8.605469 14.980469 C 9.109375 14.980469 9.519531 14.574219 9.519531 14.070312 L 9.519531 12.933594 C 9.828125 12.839844 10.128906 12.714844 10.414062 12.5625 L 11.21875 13.367188 C 11.5625 13.710938 12.164062 13.710938 12.507812 13.367188 L 13.367188 12.507812 C 13.539062 12.335938 13.632812 12.105469 13.632812 11.863281 C 13.632812 11.617188 13.539062 11.390625 13.367188 11.21875 L 12.5625 10.414062 C 12.714844 10.128906 12.839844 9.828125 12.933594 9.519531 L 14.070312 9.519531 C 14.574219 9.519531 14.980469 9.109375 14.980469 8.605469 L 14.980469 7.394531 C 14.980469 6.890625 14.574219 6.480469 14.070312 6.480469 Z M 14.375 8.605469 C 14.375 8.773438 14.238281 8.910156 14.070312 8.910156 L 12.703125 8.910156 C 12.566406 8.910156 12.445312 9.003906 12.410156 9.136719 C 12.304688 9.550781 12.140625 9.949219 11.925781 10.3125 C 11.855469 10.433594 11.875 10.585938 11.972656 10.683594 L 12.9375 11.648438 C 12.992188 11.703125 13.023438 11.78125 13.023438 11.863281 C 13.023438 11.945312 12.992188 12.019531 12.9375 12.078125 L 12.078125 12.9375 C 11.964844 13.050781 11.761719 13.050781 11.648438 12.9375 L 10.683594 11.972656 C 10.585938 11.875 10.433594 11.855469 10.3125 11.925781 C 9.949219 12.140625 9.550781 12.304688 9.136719 12.410156 C 9.003906 12.445312 8.910156 12.566406 8.910156 12.703125 L 8.910156 14.070312 C 8.910156 14.238281 8.773438 14.375 8.605469 14.375 L 7.394531 14.375 C 7.226562 14.375 7.089844 14.238281 7.089844 14.070312 L 7.089844 12.703125 C 7.089844 12.566406 6.996094 12.445312 6.863281 12.410156 C 6.449219 12.304688 6.050781 12.140625 5.6875 11.925781 C 5.636719 11.894531 5.585938 11.882812 5.53125 11.882812 C 5.453125 11.882812 5.375 11.914062 5.316406 11.972656 L 4.351562 12.9375 C 4.234375 13.054688 4.039062 13.054688 3.921875 12.9375 L 3.0625 12.078125 C 2.945312 11.957031 2.945312 11.765625 3.0625 11.648438 L 4.027344 10.683594 C 4.125 10.585938 4.144531 10.433594 4.074219 10.3125 C 3.859375 9.949219 3.695312 9.554688 3.589844 9.136719 C 3.554688 9.003906 3.433594 8.910156 3.296875 8.910156 L 1.929688 8.910156 C 1.761719 8.910156 1.625 8.773438 1.625 8.605469 L 1.625 7.394531 C 1.625 7.226562 1.761719 7.089844 1.929688 7.089844 L 3.296875 7.089844 C 3.433594 7.089844 3.554688 6.996094 3.589844 6.863281 C 3.695312 6.449219 3.859375 6.050781 4.074219 5.6875 C 4.144531 5.566406 4.125 5.414062 4.027344 5.316406 L 3.0625 4.351562 C 2.945312 4.234375 2.945312 4.042969 3.0625 3.921875 L 3.921875 3.0625 C 4.042969 2.945312 4.234375 2.945312 4.351562 3.0625 L 5.316406 4.027344 C 5.414062 4.125 5.566406 4.144531 5.6875 4.074219 C 6.050781 3.859375 6.445312 3.695312 6.863281 3.589844 C 6.996094 3.554688 7.089844 3.433594 7.089844 3.296875 L 7.089844 1.929688 C 7.089844 1.761719 7.226562 1.625 7.394531 1.625 L 8.605469 1.625 C 8.773438 1.625 8.910156 1.761719 8.910156 1.929688 L 8.910156 3.296875 C 8.910156 3.433594 9.003906 3.554688 9.136719 3.589844 C 9.554688 3.695312 9.949219 3.859375 10.3125 4.074219 C 10.433594 4.144531 10.585938 4.128906 10.683594 4.027344 L 11.648438 3.0625 C 11.761719 2.949219 11.964844 2.949219 12.078125 3.0625 L 12.9375 3.921875 C 12.992188 3.980469 13.023438 4.054688 13.023438 4.136719 C 13.023438 4.21875 12.992188 4.296875 12.9375 4.351562 L 11.972656 5.316406 C 11.875 5.414062 11.855469 5.566406 11.925781 5.6875 C 12.140625 6.050781 12.304688 6.445312 12.410156 6.863281 C 12.445312 6.996094 12.566406 7.089844 12.703125 7.089844 L 14.070312 7.089844 C 14.238281 7.089844 14.375 7.226562 14.375 7.394531 Z M 14.375 8.605469 "/>
<path style=" stroke:none;fill-rule:nonzero;fill:rgb(100%,100%,100%);fill-opacity:1;" d="M 8 5.027344 C 6.359375 5.027344 5.027344 6.359375 5.027344 8 C 5.027344 9.640625 6.359375 10.972656 8 10.972656 C 9.640625 10.972656 10.972656 9.640625 10.972656 8 C 10.972656 6.359375 9.640625 5.027344 8 5.027344 Z M 8 10.3125 C 6.722656 10.3125 5.6875 9.277344 5.6875 8 C 5.6875 6.722656 6.722656 5.6875 8 5.6875 C 9.273438 5.6875 10.3125 6.722656 10.3125 8 C 10.3125 9.277344 9.273438 10.3125 8 10.3125 Z M 8 10.3125 "/>
</g>
</svg>
