<svg width="500.00000000000006" height="500.00000000000006" xmlns="http://www.w3.org/2000/svg">

 <g>
  <title>background</title>
  <rect fill="none" id="canvas_background" height="502" width="502" y="-1" x="-1"/>
 </g>
 <g>
  <title>Layer 1</title>
  <g id="svg_7"/>
  <g id="svg_8"/>
  <g id="svg_9"/>
  <g id="svg_10"/>
  <g id="svg_11"/>
  <g id="svg_12"/>
  <g id="svg_13"/>
  <g id="svg_14"/>
  <g id="svg_15"/>
  <g id="svg_16"/>
  <g id="svg_17"/>
  <g id="svg_18"/>
  <g id="svg_19"/>
  <g id="svg_20"/>
  <g id="svg_21"/>
  <g stroke="null" id="svg_22">
   <g stroke="null" id="svg_1">
    <g stroke="null" id="svg_2">
     <path stroke="null" fill="#ffffff" id="svg_3" d="m439.71007,202.57248l-35.51373,0c-2.97845,-9.72264 -6.87699,-19.11329 -11.61026,-28.05812l25.08916,-25.08916c5.3688,-5.3688 8.32827,-12.52087 8.32827,-20.13772c0,-7.60737 -2.95948,-14.75944 -8.32827,-20.12824l-26.84398,-26.84398c-10.7281,-10.7281 -29.5094,-10.75656 -40.25648,0l-25.08916,25.08916c-8.93534,-4.73327 -18.33548,-8.62232 -28.05812,-11.61026l0,-35.50424c0,-15.68902 -12.76749,-28.45651 -28.45651,-28.45651l-37.94202,0c-15.68902,0 -28.45651,12.76749 -28.45651,28.45651l0,35.51373c-9.72264,2.98793 -19.11329,6.87699 -28.05812,11.61026l-25.09864,-25.08916c-11.09804,-11.09804 -29.15844,-11.09804 -40.25648,0l-26.85346,26.84398c-11.08855,11.09804 -11.08855,29.15844 0,40.25648l25.08916,25.09864c-4.73327,8.93534 -8.62232,18.33548 -11.61026,28.05812l-35.49476,0c-15.68902,0 -28.45651,12.76749 -28.45651,28.45651l0,37.94202c0,15.67954 12.76749,28.44703 28.45651,28.44703l35.51373,0c2.98793,9.72264 6.87699,19.11329 11.61026,28.05812l-25.08916,25.09864c-11.09804,11.09804 -11.09804,29.15844 0,40.25648l26.84398,26.85346c11.09804,11.08855 29.15844,11.08855 40.25648,0l25.09864,-25.08916c8.93534,4.73327 18.33548,8.62232 28.05812,11.61026l0,35.49476c0,15.68902 12.76749,28.45651 28.45651,28.45651l37.94202,0c15.68902,0 28.45651,-12.76749 28.45651,-28.45651l0,-35.51373c9.72264,-2.98793 19.12278,-6.87699 28.05812,-11.61026l25.08916,25.09864c10.75656,10.74708 29.53786,10.7281 40.25648,0l26.84398,-26.84398c5.3688,-5.3688 8.32827,-12.52087 8.32827,-20.12824c0,-7.61686 -2.95948,-14.75944 -8.32827,-20.12824l-25.08916,-25.09864c4.73327,-8.93534 8.62232,-18.33548 11.61026,-28.05812l35.50424,0c15.68902,0 28.45651,-12.76749 28.45651,-28.45651l0,-37.94202c0,-15.68902 -12.76749,-28.45651 -28.45651,-28.45651zm9.4855,66.39853c0,5.22651 -4.24951,9.4855 -9.4855,9.4855l-42.68477,0c-4.32539,0 -8.10062,2.93102 -9.18197,7.11413c-3.35787,12.94771 -8.47056,25.30732 -15.21475,36.72787c-2.19115,3.7278 -1.59356,8.47056 1.46077,11.52489l30.1639,30.17339c1.78327,1.78327 2.76977,4.16414 2.76977,6.71574c0,2.5516 -0.98649,4.93246 -2.76977,6.71574l-26.84398,26.84398c-3.56655,3.56655 -9.85544,3.56655 -13.43147,0l-30.1639,-30.1639c-3.05433,-3.06382 -7.79708,-3.65192 -11.53437,-1.46077c-11.40158,6.73471 -23.76119,11.85688 -36.71839,15.20526c-4.17362,1.07186 -7.10464,4.84709 -7.10464,9.17248l0,42.68477c0,5.22651 -4.24951,9.4855 -9.4855,9.4855l-37.94202,0c-5.22651,0 -9.4855,-4.25899 -9.4855,-9.4855l0,-42.68477c0,-4.32539 -2.93102,-8.10062 -7.11413,-9.18197c-12.94771,-3.34838 -25.30732,-8.46107 -36.72787,-15.20526c-1.49871,-0.89164 -3.15867,-1.31849 -4.81864,-1.31849c-2.45675,0 -4.88503,0.94855 -6.71574,2.77925l-30.1639,30.1639c-3.70883,3.69935 -9.72264,3.69935 -13.43147,0l-26.84398,-26.84398c-3.70883,-3.70883 -3.70883,-9.73213 0,-13.43147l30.1639,-30.1639c3.06382,-3.06382 3.6614,-7.80657 1.46077,-11.52489c-6.73471,-11.42055 -11.85688,-23.77067 -15.20526,-36.72787c-1.07186,-4.18311 -4.84709,-7.11413 -9.17248,-7.11413l-42.68477,0c-5.22651,0 -9.4855,-4.25899 -9.4855,-9.4855l0,-37.94202c0,-5.22651 4.25899,-9.4855 9.4855,-9.4855l42.68477,0c4.32539,0 8.10062,-2.93102 9.18197,-7.11413c3.34838,-12.94771 8.46107,-25.30732 15.20526,-36.72787c2.20064,-3.7278 1.60305,-8.47056 -1.46077,-11.52489l-30.1639,-30.1639c-3.69935,-3.69935 -3.69935,-9.72264 0,-13.43147l26.84398,-26.84398c3.70883,-3.70883 9.72264,-3.69935 13.43147,0l30.1639,30.1639c3.06382,3.06382 7.79708,3.67089 11.52489,1.46077c11.42055,-6.73471 23.77067,-11.85688 36.72787,-15.20526c4.18311,-1.08135 7.11413,-4.85658 7.11413,-9.18197l0,-42.68477c0,-5.22651 4.25899,-9.4855 9.4855,-9.4855l37.94202,0c5.236,0 9.4855,4.25899 9.4855,9.4855l0,42.68477c0,4.32539 2.93102,8.10062 7.11413,9.18197c12.9572,3.34838 25.31681,8.47056 36.71839,15.20526c3.73729,2.20064 8.48004,1.61254 11.53437,-1.46077l30.1639,-30.1639c3.57603,-3.58552 9.86492,-3.57603 13.43147,0l26.84398,26.84398c1.78327,1.78327 2.76977,4.17362 2.76977,6.71574s-0.98649,4.93246 -2.76977,6.71574l-30.1639,30.1639c-3.05433,3.06382 -3.6614,7.80657 -1.46077,11.52489c6.74419,11.42055 11.85688,23.77067 15.21475,36.72787c1.07186,4.18311 4.84709,7.11413 9.17248,7.11413l42.68477,0c5.236,0 9.4855,4.25899 9.4855,9.4855l0,37.94202z"/>
    </g>
   </g>
   <g stroke="null" id="svg_4">
    <g stroke="null" id="svg_5">
     <path fill="#ffffff" stroke="null" id="svg_6" d="m249.99999,157.0533c-51.24461,0 -92.9467,41.70208 -92.9467,92.9467s41.70208,92.9467 92.9467,92.9467c51.25494,0 92.9467,-41.70208 92.9467,-92.9467s-41.69176,-92.9467 -92.9467,-92.9467zm0,165.23857c-39.86381,0 -72.29187,-32.42807 -72.29187,-72.29187s32.42807,-72.29187 72.29187,-72.29187c39.85348,0 72.29187,32.42807 72.29187,72.29187s-32.4384,72.29187 -72.29187,72.29187z"/>
    </g>
   </g>
  </g>
 </g>
</svg>