<svg width="1024" height="1024" xmlns="http://www.w3.org/2000/svg" class="icon">

 <g>
  <title>background</title>
  <rect fill="none" id="canvas_background" height="402" width="582" y="-1" x="-1"/>
 </g>
 <g>
  <title>Layer 1</title>
  <path stroke="null" id="svg_1" fill="#ffffff" d="m442.162706,512.000008c-16.760947,-22.347929 -44.695859,-44.695859 -67.043788,-61.456806c-72.63077,-61.456806 -139.674559,-122.913612 -150.848523,-301.697047l-22.347929,0c-16.760947,0 -33.521894,-16.760947 -33.521894,-33.521894s16.760947,-33.521894 33.521894,-33.521894l620.15504,0c16.760947,0 33.521894,16.760947 33.521894,33.521894s-16.760947,33.521894 -33.521894,33.521894l-22.347929,0c-5.586982,178.783435 -78.217753,234.653259 -150.848523,301.697047c-22.347929,16.760947 -44.695859,39.108876 -67.043788,61.456806c22.347929,22.347929 44.695859,44.695859 67.043788,61.456806c72.63077,61.456806 145.261541,122.913612 150.848523,301.697047l22.347929,0c16.760947,0 33.521894,16.760947 33.521894,33.521894s-16.760947,33.521894 -33.521894,33.521894l-620.15504,0c-16.760947,0 -33.521894,-16.760947 -33.521894,-33.521894s16.760947,-33.521894 33.521894,-33.521894l22.347929,0c5.586982,-178.783435 78.217753,-234.653259 150.848523,-301.697047c22.347929,-16.760947 50.282841,-39.108876 67.043788,-61.456806zm-150.848523,363.153852l27.934912,0l178.783435,-178.783435c5.586982,-5.586982 22.347929,-5.586982 27.934912,0l178.783435,178.783435l27.934912,0c-5.586982,-150.848523 -67.043788,-195.544382 -128.500594,-251.414206c-27.934912,-27.934912 -61.456806,-50.282841 -89.391718,-89.391718c-33.521894,39.108876 -61.456806,61.456806 -94.9787,89.391718c-61.456806,55.869823 -122.913612,100.565682 -128.500594,251.414206zm83.804735,0l279.349117,0l-139.674559,-139.674559l-139.674559,139.674559zm-27.934912,-553.111252l340.805923,0c27.934912,-39.108876 50.282841,-89.391718 50.282841,-173.196453l-446.958588,0c5.586982,83.804735 22.347929,134.087576 55.869823,173.196453zm301.697047,39.108876l-268.175153,0c11.173965,16.760947 27.934912,27.934912 39.108876,39.108876c33.521894,27.934912 61.456806,55.869823 94.9787,94.9787c27.934912,-44.695859 61.456806,-67.043788 94.9787,-94.9787c11.173965,-11.173965 27.934912,-22.347929 39.108876,-39.108876z"/>
 </g>
</svg>