<?xml version="1.0" encoding="UTF-8"?>
<svg xmlns="http://www.w3.org/2000/svg" xmlns:xlink="http://www.w3.org/1999/xlink" width="16pt" height="16pt" viewBox="0 0 16 16" version="1.1">
<g id="surface1">
<path style=" stroke:none;fill-rule:nonzero;fill:rgb(100%,100%,100%);fill-opacity:1;" d="M 6.910156 8 C 6.648438 7.652344 6.210938 7.300781 5.859375 7.039062 C 4.726562 6.078125 3.679688 5.121094 3.503906 2.324219 L 3.15625 2.324219 C 2.894531 2.324219 2.632812 2.0625 2.632812 1.800781 C 2.632812 1.539062 2.894531 1.277344 3.15625 1.277344 L 12.84375 1.277344 C 13.105469 1.277344 13.367188 1.539062 13.367188 1.800781 C 13.367188 2.0625 13.105469 2.324219 12.84375 2.324219 L 12.496094 2.324219 C 12.410156 5.121094 11.273438 5.992188 10.140625 7.039062 C 9.789062 7.300781 9.441406 7.652344 9.089844 8 C 9.441406 8.347656 9.789062 8.699219 10.140625 8.960938 C 11.273438 9.921875 12.410156 10.878906 12.496094 13.675781 L 12.84375 13.675781 C 13.105469 13.675781 13.367188 13.9375 13.367188 14.199219 C 13.367188 14.460938 13.105469 14.722656 12.84375 14.722656 L 3.15625 14.722656 C 2.894531 14.722656 2.632812 14.460938 2.632812 14.199219 C 2.632812 13.9375 2.894531 13.675781 3.15625 13.675781 L 3.503906 13.675781 C 3.589844 10.878906 4.726562 10.007812 5.859375 8.960938 C 6.210938 8.699219 6.648438 8.347656 6.910156 8 Z M 4.550781 13.675781 L 4.988281 13.675781 L 7.78125 10.878906 C 7.867188 10.792969 8.132812 10.792969 8.21875 10.878906 L 11.011719 13.675781 L 11.449219 13.675781 C 11.359375 11.316406 10.402344 10.617188 9.441406 9.746094 C 9.003906 9.308594 8.480469 8.960938 8.042969 8.347656 C 7.519531 8.960938 7.082031 9.308594 6.558594 9.746094 C 5.597656 10.617188 4.640625 11.316406 4.550781 13.675781 Z M 5.859375 13.675781 L 10.226562 13.675781 L 8.042969 11.492188 Z M 5.425781 5.03125 L 10.75 5.03125 C 11.1875 4.421875 11.535156 3.636719 11.535156 2.324219 L 4.550781 2.324219 C 4.640625 3.636719 4.902344 4.421875 5.425781 5.03125 Z M 10.140625 5.644531 L 5.949219 5.644531 C 6.125 5.90625 6.386719 6.078125 6.558594 6.253906 C 7.082031 6.691406 7.519531 7.128906 8.042969 7.738281 C 8.480469 7.039062 9.003906 6.691406 9.527344 6.253906 C 9.703125 6.078125 9.964844 5.90625 10.140625 5.644531 Z M 10.140625 5.644531 "/>
</g>
</svg>
