<?xml version="1.0" encoding="UTF-8"?>
<svg xmlns="http://www.w3.org/2000/svg" xmlns:xlink="http://www.w3.org/1999/xlink" width="16pt" height="16pt" viewBox="0 0 16 16" version="1.1">
<g id="surface1">
<path style=" stroke:none;fill-rule:nonzero;fill:rgb(100%,100%,100%);fill-opacity:1;" d="M 6.292969 13.707031 L 1.292969 8.707031 C 1.105469 8.519531 1 8.265625 1 8 C 1 7.734375 1.105469 7.480469 1.292969 7.292969 L 6.292969 2.292969 C 6.683594 1.902344 7.316406 1.902344 7.707031 2.292969 C 8.097656 2.683594 8.097656 3.316406 7.707031 3.707031 L 4.414062 7 L 14 7 C 14.550781 7 15 7.449219 15 8 C 15 8.550781 14.550781 9 14 9 L 4.414062 9 L 7.707031 12.292969 C 7.894531 12.480469 8 12.734375 8 13 C 8 13.265625 7.894531 13.519531 7.707031 13.707031 C 7.519531 13.894531 7.265625 14 7 14 C 6.734375 14 6.480469 13.894531 6.292969 13.707031 Z M 6.292969 13.707031 "/>
</g>
</svg>
