<svg width="500" height="500" xmlns="http://www.w3.org/2000/svg">
 <g>
  <title>background</title>
  <rect fill="none" id="canvas_background" height="502" width="502" y="-1" x="-1"/>
 </g>

 <g>
  <title>Layer 1</title>
  <g id="svg_5">
   <path fill="#ffffff" id="svg_2" d="m156.39658,74.25774l303.37825,0l0,95.53578l-303.37825,0l0,-95.53578z" stroke="null"/>
   <path fill="#ffffff" id="svg_4" d="m215.94724,201.63877l243.8276,0l0,95.53578l-243.8276,0l0,-95.53578z" stroke="null"/>
   <path fill="#ffffff" id="svg_6" d="m215.94723,330.20648l243.8276,0l0,95.53578l-243.8276,0l0,-95.53578z" stroke="null"/>
   <path stroke="null" fill="#ffffff" stroke-width="null" stroke-opacity="null" fill-opacity="null" d="m41.22519,79.19078l74.96097,42.83485l-74.96097,42.83485l0,-85.6697z" id="svg_10"/>
   <path stroke="null" fill="#ffffff" stroke-width="null" stroke-opacity="null" fill-opacity="null" d="m86.72519,212.19078l74.96097,42.83485l-74.96097,42.83485l0,-85.6697z" id="svg_1"/>
   <path stroke="null" fill="#ffffff" stroke-width="null" stroke-opacity="null" fill-opacity="null" d="m86.72519,338.19078l74.96097,42.83485l-74.96097,42.83485l0,-85.6697z" id="svg_3"/>
  </g>
 </g>
</svg>