<svg width="1024" height="1024" xmlns="http://www.w3.org/2000/svg" class="icon">

 <g>
  <title>background</title>
  <rect fill="none" id="canvas_background" height="602" width="802" y="-1" x="-1"/>
 </g>
 <g>
  <title>Layer 1</title>
  <path fill="#ffffff" id="svg_1" d="m943.37063,813.34935l-237.56053,-209.12797c-4.65707,-4.09016 -9.81044,-7.42 -15.26875,-9.95166c36.3724,-54.40919 57.61214,-119.75138 57.61214,-189.9686c0,-188.97601 -153.74459,-342.71958 -342.7206,-342.71958s-342.72059,153.74357 -342.72059,342.71958c0,188.97702 153.74357,342.72162 342.71957,342.72162c69.54798,0 134.30894,-20.84271 188.405,-56.5827c2.36895,5.13188 5.4972,10.0284 9.39088,14.51765l207.00051,238.88981c10.22795,11.80281 25.30432,18.57096 41.36306,18.57096c15.13675,0 30.00846,-6.04058 40.79411,-16.56835l51.2881,-50.04684c11.59713,-11.33107 18.00815,-27.15957 17.59268,-43.42707c-0.38988,-15.33117 -6.74051,-29.18572 -17.89558,-39.02685zm-834.00683,-409.04823c0,-163.25214 132.81594,-296.06807 296.06807,-296.06807s296.06704,132.81593 296.06704,296.06807c0,163.25315 -132.81491,296.06806 -296.06704,296.06806s-296.06807,-132.81491 -296.06807,-296.06806zm528.38723,253.81984l20.71172,-20.25225c1.81432,-1.77441 3.97963,-2.63706 6.62079,-2.63706c3.39328,0 7.01578,1.47561 9.92095,4.02671l40.8248,35.93851l-41.53395,40.53828l-35.81776,-41.33543c-3.87117,-4.46366 -5.45627,-11.67388 -0.72655,-16.27876zm273.33122,204.30513l-51.27787,50.0366c-2.12131,2.06811 -5.18919,3.30426 -8.21203,3.30426c-1.81023,0 -4.33882,-0.42979 -6.10709,-2.47026l-140.58386,-162.24213l46.04674,-44.94361l161.58005,142.24059c1.66696,1.46947 2.06503,3.64706 2.10494,5.21579c0.08186,3.24388 -1.28221,6.6433 -3.55088,8.85876zm-274.55305,-419.13087c-12.58462,-2.78134 -25.03212,5.15849 -27.81449,17.73595c-22.22621,100.43648 -114.29102,137.88641 -152.84101,149.32595c-12.35028,3.66548 -19.39165,16.64919 -15.72617,28.99845c3.00852,10.13687 12.29195,16.69729 22.35208,16.69729c2.19806,0 4.43194,-0.31416 6.64637,-0.97009c29.62369,-8.79225 73.07225,-26.46373 111.82281,-60.73016c37.96773,-33.57263 62.62736,-75.03699 73.29431,-123.2429c2.78441,-12.57746 -5.15747,-25.03007 -17.7339,-27.81449z"/>
 </g>
</svg>