<?xml version="1.0" encoding="UTF-8"?>
<svg xmlns="http://www.w3.org/2000/svg" xmlns:xlink="http://www.w3.org/1999/xlink" width="16pt" height="16pt" viewBox="0 0 16 16" version="1.1">
<g id="surface1">
<path style=" stroke:none;fill-rule:nonzero;fill:rgb(100%,100%,100%);fill-opacity:1;" d="M 14.738281 12.707031 L 11.027344 9.441406 C 10.957031 9.378906 10.875 9.324219 10.789062 9.285156 C 11.359375 8.433594 11.691406 7.414062 11.691406 6.316406 C 11.691406 3.363281 9.289062 0.960938 6.335938 0.960938 C 3.382812 0.960938 0.980469 3.363281 0.980469 6.316406 C 0.980469 9.269531 3.382812 11.671875 6.335938 11.671875 C 7.421875 11.671875 8.433594 11.347656 9.277344 10.789062 C 9.316406 10.867188 9.363281 10.945312 9.425781 11.015625 L 12.660156 14.746094 C 12.820312 14.933594 13.054688 15.039062 13.304688 15.039062 C 13.542969 15.039062 13.773438 14.945312 13.945312 14.777344 L 14.746094 13.996094 C 14.925781 13.820312 15.027344 13.574219 15.019531 13.320312 C 15.015625 13.078125 14.914062 12.863281 14.738281 12.707031 Z M 1.707031 6.316406 C 1.707031 3.765625 3.785156 1.691406 6.335938 1.691406 C 8.886719 1.691406 10.960938 3.765625 10.960938 6.316406 C 10.960938 8.867188 8.886719 10.941406 6.335938 10.941406 C 3.785156 10.941406 1.707031 8.867188 1.707031 6.316406 Z M 9.964844 10.28125 L 10.289062 9.964844 C 10.316406 9.9375 10.351562 9.925781 10.390625 9.925781 C 10.445312 9.925781 10.5 9.949219 10.546875 9.988281 L 11.183594 10.550781 L 10.535156 11.183594 L 9.976562 10.539062 C 9.914062 10.46875 9.890625 10.355469 9.964844 10.28125 Z M 14.234375 13.476562 L 13.433594 14.257812 C 13.402344 14.289062 13.351562 14.308594 13.304688 14.308594 C 13.277344 14.308594 13.238281 14.300781 13.210938 14.269531 L 11.015625 11.734375 L 11.734375 11.03125 L 14.257812 13.253906 C 14.285156 13.277344 14.289062 13.3125 14.292969 13.335938 C 14.292969 13.386719 14.269531 13.441406 14.234375 13.476562 Z M 9.945312 6.925781 C 9.75 6.882812 9.554688 7.007812 9.511719 7.203125 C 9.164062 8.773438 7.726562 9.359375 7.121094 9.535156 C 6.929688 9.59375 6.820312 9.796875 6.878906 9.988281 C 6.925781 10.148438 7.070312 10.25 7.226562 10.25 C 7.261719 10.25 7.296875 10.246094 7.332031 10.234375 C 7.792969 10.097656 8.472656 9.820312 9.078125 9.285156 C 9.671875 8.761719 10.054688 8.113281 10.222656 7.359375 C 10.265625 7.164062 10.140625 6.96875 9.945312 6.925781 Z M 9.945312 6.925781 "/>
</g>
</svg>
