<svg width="1024" height="1024" xmlns="http://www.w3.org/2000/svg" class="icon">
 <g>
  <title>background</title>
  <rect x="-1" y="-1" width="1026" height="1026" id="canvas_background" fill="none"/>
 </g>

 <g>
  <title>Layer 1</title>
  <path fill="#ffffff" d="m204.37203,892.443593c-5.79413,0 -11.48586,-1.64693 -15.60746,-6.07573c-53.11147,-56.94293 -107.8784,-177.09227 -101.67467,-253.12427c23.38133,-286.3616 283.57973,-327.99573 487.82507,-330.71786l0,-149.632a21.33333,21.33333 0 0 1 36.42026,-15.08694l319.80374,319.80374a21.31627,21.31627 0 0 1 0,30.16533l-319.7952,319.80373a21.33333,21.33333 0 0 1 -36.42027,-15.08693l0,-169.77067c-139.22987,-18.56 -239.22347,2.4576 -295.15093,61.84107c-49.92,52.992 -57.19894,128.81067 -54.25494,184.05547c0.2304,1.26293 0.3584,1.8688 0.3584,3.2c0,11.776 -9.54026,20.62506 -21.30773,20.62506l-0.19627,0zm392.84907,-546.13333c-0.256,0 -0.52907,-0.62293 -0.7936,-0.6144c-306.42347,0.31573 -450.34667,90.05227 -466.80747,291.6864c-3.7888,46.47253 22.44267,117.7344 54.54507,171.52853c6.28053,-62.49813 28.14293,-114.87573 64.54613,-153.5232c51.1488,-54.28053 129.9456,-81.86026 234.19734,-81.86026c33.664,0 70.56213,2.87573 109.66186,8.6016l2.11627,-0.05974a21.3504,21.3504 0 0 1 22.912,21.28214l0,137.6512l268.29653,-268.29654l-268.30506,-268.30506l0,110.7968c1.1264,2.5856 3.0208,5.4272 3.0208,8.4224c0.03413,7.12533 -3.0208,20.47146 -20.08747,21.38453l0,1.3056l-3.3024,0z" id="svg_1"/>
 </g>
</svg>