<svg width="1024" height="1024" xmlns="http://www.w3.org/2000/svg" class="icon">

 <g>
  <title>background</title>
  <rect fill="none" id="canvas_background" height="402" width="582" y="-1" x="-1"/>
 </g>
 <g>
  <title>Layer 1</title>
  <path id="svg_1" fill="#ffffff" d="m477.653328,597.33333a85.33333,85.33333 0 0 1 85.33333,85.33334a85.33333,85.33333 0 0 1 -85.33333,85.33333a85.33333,85.33333 0 0 1 -85.33333,-85.33333a85.33333,85.33333 0 0 1 85.33333,-85.33334m488.96,-219.30666l-67.84,293.97333l-293.12,-67.84l162.13333,-101.54667a340.13867,340.13867 0 0 0 -290.13333,-161.28c-168.53333,0 -308.48,122.02667 -336.21333,282.88l-84.05334,-14.93333c34.56,-200.53333 209.49334,-353.28 420.26667,-353.28c152.74667,0 287.14667,80.64 362.66667,201.38667l126.29333,-79.36z"/>
 </g>
</svg>