<?xml version="1.0" encoding="UTF-8"?>
<svg xmlns="http://www.w3.org/2000/svg" xmlns:xlink="http://www.w3.org/1999/xlink" width="16pt" height="16pt" viewBox="0 0 16 16" version="1.1">
<g id="surface1">
<path style=" stroke:none;fill-rule:nonzero;fill:rgb(100%,100%,100%);fill-opacity:1;" d="M 3.566406 8.304688 L 2.144531 8.304688 L 2.144531 7.507812 L 3.566406 7.507812 Z M 7.554688 4.507812 L 6.757812 4.507812 L 6.757812 3.085938 L 7.554688 3.085938 Z M 3.46875 11.03125 L 4.472656 10.023438 L 5.039062 10.589844 L 4.03125 11.597656 Z M 4.03125 4.214844 L 5.039062 5.222656 L 4.472656 5.785156 L 3.46875 4.777344 Z M 9.433594 5.75 L 7.542969 7.644531 L 7.542969 11.46875 L 6.332031 11.46875 L 6.332031 7.164062 C 6.414062 7.082031 8.578125 4.894531 8.578125 4.894531 Z M 6.828125 14.527344 L 6.828125 13.378906 C 3.863281 13.378906 1.449219 10.964844 1.449219 8 C 1.449219 5.035156 3.863281 2.621094 6.828125 2.621094 C 9.550781 2.621094 11.804688 4.65625 12.15625 7.28125 L 11.335938 6.472656 L 10.527344 7.285156 L 12.769531 9.527344 L 15.015625 7.285156 L 14.203125 6.472656 L 13.320312 7.355469 C 12.996094 4.058594 10.207031 1.472656 6.828125 1.472656 C 3.230469 1.472656 0.300781 4.402344 0.300781 8 C 0.300781 11.597656 3.230469 14.527344 6.828125 14.527344 Z M 6.828125 14.527344 "/>
</g>
</svg>
