<svg width="1024" height="1024" xmlns="http://www.w3.org/2000/svg" class="icon">
 <g>
  <title>background</title>
  <rect x="-1" y="-1" width="1026" height="1026" id="canvas_background" fill="none"/>
 </g>

 <g>
  <title>Layer 1</title>
  <path transform="rotate(180 490.1818542480468,512) " d="m751.99061,492.53539l91.13461,0l0,51.04638l-91.13461,0l0,-51.04638zm-255.23285,242.90199l51.04639,0l0,91.1346l-51.04639,0l0,-91.1346zm261.69947,-417.48304l-64.44062,64.44062l-36.0949,-36.09489l64.44062,-64.44062l36.0949,36.09489zm-36.09173,436.31448l-64.44062,-64.44062l36.09489,-36.09489l64.44062,64.44062l-36.09489,36.09489zm-345.67661,-98.37428l121.04239,-121.09135l0,-244.74073l77.40186,0l0,275.35933c-5.38163,5.38163 -143.67046,145.22771 -143.67046,145.22771l-54.77379,-54.75496zm166.68266,-561.53938l0,73.43343c189.77206,0 344.18129,154.40922 344.18129,344.21047c0,189.7909 -154.40923,344.20107 -344.18129,344.20107c-174.14972,0 -318.42461,-130.08175 -341.00184,-298.1663l52.38238,51.66871l51.93327,-51.93327l-143.48309,-143.48215l-143.85499,143.49251l51.93328,51.93327l56.56923,-56.56923c20.73754,211.02836 199.17202,376.50119 415.54153,376.50119c230.2595,0 417.62508,-187.35523 417.62508,-417.63449c-0.02072,-230.28963 -187.36653,-417.65521 -417.64485,-417.65521z" id="svg_1" stroke="null" fill="#ffffff"/>
 </g>
</svg>