<svg width="16" height="16" xmlns="http://www.w3.org/2000/svg" version="1.1">
 <g>
  <title>Layer 1</title>
  <text fill="#ffffff" stroke-width="0" x="3.7682" y="7.93919" id="svg_5" font-size="19" font-family="'Grandstander'" text-anchor="start" xml:space="preserve" stroke="#000" transform="matrix(0.684007 0 0 0.684007 0.523671 5.57706)">ƒ</text>
  <g stroke="null">
   <g stroke="null">
    <title fill="#ffffff" stroke="null">Layer 1</title>
    <g stroke="null" id="svg_1">
     <path fill="#ffffff" stroke="null" id="svg_21" d="m10.85068,13.53465c0,-0.40308 -0.29437,-0.7378 -0.67922,-0.8028l0,-0.55563c0,-0.44944 -0.36542,-0.81506 -0.81458,-0.81506l-1.49475,0l0,0.27169l1.49475,0c0.29933,0 0.5429,0.24377 0.5429,0.54337l0,0.55563c-0.38484,0.06497 -0.67922,0.39972 -0.67922,0.8028c0,0.44944 0.36562,0.81506 0.81506,0.81506s0.81506,-0.36562 0.81506,-0.81506zm-1.35843,0c0,-0.2996 0.24377,-0.54337 0.54337,-0.54337s0.54337,0.24377 0.54337,0.54337s-0.24377,0.54337 -0.54337,0.54337s-0.54337,-0.24377 -0.54337,-0.54337z"/>
     <path fill="#ffffff" stroke="null" id="svg_20" d="m12.8876,9.9595l0,-0.54337c0.44944,0 0.81506,-0.36562 0.81506,-0.81506s-0.36562,-0.81506 -0.81506,-0.81506s-0.81506,0.36562 -0.81506,0.81506c0,0.35408 0.2273,0.65527 0.54337,0.76751l0,0.59092c0,0.2996 -0.24411,0.54337 -0.54419,0.54337l-4.21032,0l0,0.27169l4.21032,0c0.44988,0 0.81587,-0.36562 0.81587,-0.81506l0,0.00001zm-0.54337,-1.35843c0,-0.2996 0.24377,-0.54337 0.54337,-0.54337s0.54337,0.24377 0.54337,0.54337s-0.24377,0.54337 -0.54337,0.54337s-0.54337,-0.24377 -0.54337,-0.54337z"/>
     <path fill="#ffffff" stroke="null" id="svg_19" d="m10.84832,9.49089l0,-0.55563c0.38484,-0.065 0.67922,-0.39972 0.67922,-0.8028c0,-0.44944 -0.36562,-0.81506 -0.81506,-0.81506s-0.81506,0.36562 -0.81506,0.81506c0,0.40308 0.29437,0.7378 0.67922,0.8028l0,0.55563c0,0.2996 -0.24397,0.54337 -0.54385,0.54337l-2.17301,0l0,0.27169l2.17301,0c0.44964,0 0.81553,-0.36562 0.81553,-0.81506zm-0.67922,-1.35843c0,-0.2996 0.24377,-0.54337 0.54337,-0.54337s0.54337,0.24377 0.54337,0.54337s-0.24377,0.54337 -0.54337,0.54337c-0.2996,0 -0.54337,-0.24377 -0.54337,-0.54337z"/>
     <g stroke="null" id="svg_18"/>
     <g stroke="null" id="svg_17"/>
     <g stroke="null" id="svg_16"/>
     <g stroke="null" id="svg_15"/>
     <g stroke="null" id="svg_14"/>
     <g stroke="null" id="svg_13"/>
     <g stroke="null" id="svg_12"/>
     <g stroke="null" id="svg_11"/>
     <g stroke="null" id="svg_10"/>
     <g stroke="null" id="svg_9"/>
     <g stroke="null" id="svg_8"/>
     <g stroke="null" id="svg_7"/>
     <g stroke="null" id="svg_6"/>
     <g stroke="null" id="svg_4"/>
     <g stroke="null" id="svg_3"/>
     <path fill="#ffffff" stroke="null" id="svg_2" d="m12.87188,11.73897l0,0.53768c0.44777,0 0.81204,0.36179 0.81204,0.80652s-0.36427,0.80652 -0.81204,0.80652s-0.81204,-0.36179 -0.81204,-0.80652c0,-0.35036 0.22646,-0.64841 0.54136,-0.75947l0,-0.58473c0,-0.29646 -0.24321,-0.53768 -0.54217,-0.53768l-4.19471,0l0,-0.26884l4.19471,0c0.44821,0 0.81285,0.36179 0.81285,0.80652l0,0l0.00001,0zm-0.54136,1.34419c0,0.29646 0.24287,0.53768 0.54136,0.53768s0.54136,-0.24121 0.54136,-0.53768s-0.24287,-0.53768 -0.54136,-0.53768s-0.54136,0.24121 -0.54136,0.53768z"/>
    </g>
   </g>
  </g>
  <g>
   <g>
    <title fill="#ffffff">Layer 1</title>
    <text transform="matrix(0.684007 0 0 0.684007 0.523671 5.57706)" stroke="#000" xml:space="preserve" text-anchor="start" font-family="'Grandstander'" font-size="19" id="svg_42" y="7.97912" x="3.86862" stroke-width="0" fill="#ffffff">ƒ</text>
    <g stroke="null">
     <g stroke="null">
      <title fill="#ffffff" stroke="null">Layer 1</title>
      <g id="svg_22" stroke="null">
       <path fill="#ffffff" d="m10.91937,13.56196c0,-0.40308 -0.29437,-0.7378 -0.67922,-0.8028l0,-0.55563c0,-0.44944 -0.36542,-0.81506 -0.81458,-0.81506l-1.49475,0l0,0.27169l1.49475,0c0.29933,0 0.5429,0.24377 0.5429,0.54337l0,0.55563c-0.38484,0.06497 -0.67922,0.39972 -0.67922,0.8028c0,0.44944 0.36562,0.81506 0.81506,0.81506s0.81506,-0.36562 0.81506,-0.81506zm-1.35843,0c0,-0.2996 0.24377,-0.54337 0.54337,-0.54337s0.54337,0.24377 0.54337,0.54337s-0.24377,0.54337 -0.54337,0.54337s-0.54337,-0.24377 -0.54337,-0.54337z" id="svg_41" stroke="null"/>
       <path fill="#ffffff" d="m12.95629,9.98681l0,-0.54337c0.44944,0 0.81506,-0.36562 0.81506,-0.81506s-0.36562,-0.81506 -0.81506,-0.81506s-0.81506,0.36562 -0.81506,0.81506c0,0.35408 0.2273,0.65527 0.54337,0.76751l0,0.59092c0,0.2996 -0.24411,0.54337 -0.54419,0.54337l-4.21032,0l0,0.27169l4.21032,0c0.44988,0 0.81587,-0.36562 0.81587,-0.81506l0,0.00001l0.00001,-0.00001zm-0.54337,-1.35843c0,-0.2996 0.24377,-0.54337 0.54337,-0.54337s0.54337,0.24377 0.54337,0.54337s-0.24377,0.54337 -0.54337,0.54337s-0.54337,-0.24377 -0.54337,-0.54337z" id="svg_40" stroke="null"/>
       <path fill="#ffffff" d="m10.91701,9.5182l0,-0.55563c0.38484,-0.065 0.67922,-0.39972 0.67922,-0.8028c0,-0.44944 -0.36562,-0.81506 -0.81506,-0.81506s-0.81506,0.36562 -0.81506,0.81506c0,0.40308 0.29437,0.7378 0.67922,0.8028l0,0.55563c0,0.2996 -0.24397,0.54337 -0.54385,0.54337l-2.17301,0l0,0.27169l2.17301,0c0.44964,0 0.81553,-0.36562 0.81553,-0.81506zm-0.67922,-1.35843c0,-0.2996 0.24377,-0.54337 0.54337,-0.54337s0.54337,0.24377 0.54337,0.54337s-0.24377,0.54337 -0.54337,0.54337c-0.2996,0 -0.54337,-0.24377 -0.54337,-0.54337z" id="svg_39" stroke="null"/>
       <g id="svg_38" stroke="null"/>
       <g id="svg_37" stroke="null"/>
       <g id="svg_36" stroke="null"/>
       <g id="svg_35" stroke="null"/>
       <g id="svg_34" stroke="null"/>
       <g id="svg_33" stroke="null"/>
       <g id="svg_32" stroke="null"/>
       <g id="svg_31" stroke="null"/>
       <g id="svg_30" stroke="null"/>
       <g id="svg_29" stroke="null"/>
       <g id="svg_28" stroke="null"/>
       <g id="svg_27" stroke="null"/>
       <g id="svg_26" stroke="null"/>
       <g id="svg_25" stroke="null"/>
       <g id="svg_24" stroke="null"/>
       <path fill="#ffffff" d="m12.94057,11.76628l0,0.53768c0.44777,0 0.81204,0.36179 0.81204,0.80652s-0.36427,0.80652 -0.81204,0.80652s-0.81204,-0.36179 -0.81204,-0.80652c0,-0.35036 0.22646,-0.64841 0.54136,-0.75947l0,-0.58473c0,-0.29646 -0.24321,-0.53768 -0.54217,-0.53768l-4.19471,0l0,-0.26884l4.19471,0c0.44821,0 0.81285,0.36179 0.81285,0.80652l0,0l0.00001,0l-0.00001,0zm-0.54136,1.34419c0,0.29646 0.24287,0.53768 0.54136,0.53768s0.54136,-0.24121 0.54136,-0.53768s-0.24287,-0.53768 -0.54136,-0.53768s-0.54136,0.24121 -0.54136,0.53768z" id="svg_23" stroke="null"/>
      </g>
     </g>
    </g>
   </g>
  </g>
 </g>

</svg>