<svg width="500" height="500" xmlns="http://www.w3.org/2000/svg">
 <g>
  <title>background</title>
  <rect fill="none" id="canvas_background" height="502" width="502" y="-1" x="-1"/>
 </g>

 <g>
  <title>Layer 1</title>
  <path fill="#ffffff" stroke="null" id="svg_4" d="m468.80134,399.21013l-47.30471,-21.0171l0,-192.05914c0,-3.46582 -2.0747,-6.67529 -5.37304,-8.07667l-157.37359,-67.68606l0,-64.23733c0,-4.83301 -3.92041,-8.75 -8.75,-8.75c-4.83301,0 -8.75,3.91699 -8.75,8.75l0,64.23733l-157.37359,67.68606c-3.12744,1.29883 -5.37304,4.46729 -5.37304,8.07667l0,192.05914l-47.30471,21.0171c-4.41602,1.96533 -6.40528,7.1333 -4.44337,11.54931c1.94824,4.38868 7.10254,6.41895 11.54932,4.44337l49.00344,-21.77247l159.23638,68.48586c2.10547,0.90575 4.6792,0.96044 6.91456,0l159.23296,-68.48586l49.00344,21.77247c4.46387,1.98242 9.60792,-0.07178 11.54932,-4.44337c1.96191,-4.41601 -0.02734,-9.58399 -4.44337,-11.54932l0,0.00001l-0.00001,0zm-227.55135,-269.78721l0,21.71094c0,4.82959 3.91699,8.75 8.75,8.75c4.82959,0 8.75,-3.92041 8.75,-8.75l0,-21.71094l131.85161,56.71096l-140.60162,60.47414l-140.60162,-60.47414l131.85161,-56.71096l0.00002,0zm-99.23392,230.12167c-1.96533,-4.41601 -7.13672,-6.40186 -11.54931,-4.44336l-34.46681,15.31592l0,-170.99763l145.25005,62.47366l0,178.69831l-132.15581,-56.84083l28.47853,-12.65333c4.41601,-1.96533 6.40527,-7.13672 4.44336,-11.55275zm116.73393,81.0469l0,-178.69831l145.24663,-62.47366l0,170.99763l-34.46338,-15.3125c-4.41945,-1.96191 -9.58741,0.02392 -11.54932,4.44336c-1.96191,4.41602 0.02734,9.58399 4.44336,11.54932l28.47853,12.65333l-132.15581,56.84083zm0,0"/>
  <path stroke="null" id="svg_10" fill="#bf0000" d="m264.50003,78.58555l0,-55.00458l-29.01716,0l0,55.00458c-83.33039,7.00677 -149.87352,73.55841 -156.87179,156.91444l-55.0216,0l0,29.0171l55.0216,0c6.99826,83.33039 73.54139,149.86502 156.87179,156.87179l0,55.03017l29.01716,0l0,-55.03017c83.34747,-7.00677 149.8906,-73.54133 156.88886,-156.87172l55.0216,0l0,-29.01716l-55.0216,0c-7.00683,-83.35604 -73.54996,-149.90767 -156.88886,-156.91444zm0,313.77766l0,-43.8671l-29.01716,0l0,43.8671c-67.34538,-6.819 -121.03557,-60.50924 -127.84606,-127.84612l43.85853,0l0,-29.0171l-43.8671,0c6.80198,-67.37096 60.50931,-121.07829 127.84612,-127.88878l0,43.8756l29.0171,0l0,-43.8756c67.36246,6.819 121.0527,60.52632 127.8632,127.88878l-43.85853,0l0,29.0171l43.85853,0c-6.81049,67.33688 -60.50074,121.02712 -127.85463,127.84612z"/>
 </g>
</svg>