<svg width="500" height="500" xmlns="http://www.w3.org/2000/svg">
 <g>
  <title>background</title>
  <rect x="-1" y="-1" width="502" height="502" id="canvas_background" fill="none"/>
 </g>

 <g>
  <title>Layer 1</title>
  <path fill="#ffffff" d="m457.07985,391.21675l-44.77053,-19.89119l0,-181.77028c0,-3.28015 -1.96356,-6.31769 -5.0852,-7.64399l-148.94288,-64.06003l0,-60.79605c0,-4.5741 -3.71039,-8.28125 -8.28125,-8.28125c-4.5741,0 -8.28125,3.70715 -8.28125,8.28125l0,60.79605l-148.94288,64.06003c-2.9599,1.22925 -5.0852,4.22797 -5.0852,7.64399l0,181.77028l-44.77053,19.89119c-4.17945,1.86004 -6.06214,6.75116 -4.20533,10.9306c1.84387,4.15357 6.72205,6.07508 10.93061,4.20533l46.37826,-20.60609l150.70587,64.81698c1.99268,0.85723 4.42853,0.90899 6.54414,0l150.70264,-64.81698l46.37826,20.60609c4.22473,1.87622 9.09321,-0.06793 10.93061,-4.20533c1.85681,-4.17944 -0.02588,-9.07056 -4.20533,-10.93061l0,0.00001l-0.00001,0zm-215.36112,-255.33435l0,20.54786c0,4.57086 3.70715,8.28125 8.28125,8.28125c4.57086,0 8.28125,-3.71039 8.28125,-8.28125l0,-20.54786l124.78814,53.67288l-133.0694,57.23446l-133.0694,-57.23446l124.78814,-53.67288l0.00002,0zm-93.91783,217.79374c-1.86004,-4.17944 -6.7544,-6.0589 -10.9306,-4.20532l-32.62038,14.49543l0,-161.83706l137.46881,59.12686l0,169.1252l-125.07605,-53.79579l26.9529,-11.97547c4.17944,-1.86004 6.06213,-6.7544 4.20532,-10.93385zm110.48034,76.70511l0,-169.1252l137.46557,-59.12686l0,161.83706l-32.61713,-14.49219c-4.18269,-1.85681 -9.0738,0.02264 -10.93061,4.20532c-1.85681,4.17945 0.02588,9.07056 4.20532,10.93061l26.9529,11.97547l-125.07605,53.79579zm0,0" id="svg_4" stroke="null"/>
  <g transform="matrix(5.19062509425028,0,0,5.19062509425028,-66.38384405926999,-220.90766314646123) " id="svg_14">
   <title fill="#bf0000" transform="translate(-2.986157178878784,0) translate(0,2.793607234954834) translate(-0.21138355135917664,0.42276710271835327) translate(-1.1582906246185303,0) translate(0,-3.6944868564605713) translate(-9.512260437011719,8.032575607299805) translate(28.321020126342773,36.66826629638672) translate(216.43222045898438,0) translate(0,126.40118408203125) translate(0,0.06981635093688965) translate(0.03877473250031471,0) translate(-215.4709930419922,0) translate(0,-125.47100067138672) ">Layer 1</title>
   <g id="svg_8" stroke="null">
    <path d="m63.23715,63.71947l0,-8.66498l-4.57113,0l0,8.66498c-13.1272,1.10379 -23.60987,11.5878 -24.71232,24.71904l-8.66766,0l0,4.57112l8.66766,0c1.10245,13.1272 11.58512,23.60853 24.71232,24.71232l0,8.66901l4.57113,0l0,-8.66901c13.12989,-1.10379 23.61256,-11.58511 24.71501,-24.71231l8.66766,0l0,-4.57113l-8.66766,0c-1.1038,-13.13124 -11.58647,-23.61525 -24.71501,-24.71904zm0,49.43001l0,-6.91047l-4.57113,0l0,6.91047c-10.60905,-1.07421 -19.06697,-9.53214 -20.13984,-20.13985l6.90912,0l0,-4.57112l-6.91047,0c1.07153,-10.61308 9.53215,-19.0737 20.13985,-20.14657l0,6.91181l4.57112,0l0,-6.91181c10.61174,1.07421 19.06967,9.53483 20.14254,20.14657l-6.90912,0l0,4.57112l6.90912,0c-1.07287,10.60771 -9.5308,19.06564 -20.14119,20.13985z" fill="#bf0000" id="svg_10" stroke="null"/>
    <path d="m60.95158,86.41915c-2.3716,0 -4.30089,1.93063 -4.30089,4.30089s1.93063,4.30089 4.30089,4.30089s4.3009,-1.93063 4.3009,-4.30089s-1.92929,-4.30089 -4.3009,-4.30089zm-0.27023,4.30223c0,-0.14789 0.121,-0.27023 0.27023,-0.27023s0.27024,0.12234 0.27024,0.27023c0.00134,0.29444 -0.54047,0.29713 -0.54047,0z" fill="#bf0000" id="svg_9" stroke="null"/>
   </g>
  </g>
 </g>
</svg>