<svg width="511.99989" height="511" xmlns="http://www.w3.org/2000/svg">

 <g>
  <title>background</title>
  <rect fill="none" id="canvas_background" height="602" width="802" y="-1" x="-1"/>
 </g>
 <g>
  <title>Layer 1</title>
  <path fill="#ffffff" stroke="null" id="svg_4" d="m463.0798,396.71674l-44.77053,-19.89119l0,-181.77028c0,-3.28015 -1.96356,-6.31769 -5.0852,-7.64399l-148.94288,-64.06003l0,-60.79605c0,-4.5741 -3.71039,-8.28125 -8.28125,-8.28125c-4.5741,0 -8.28125,3.70715 -8.28125,8.28125l0,60.79605l-148.94288,64.06003c-2.9599,1.22925 -5.0852,4.22797 -5.0852,7.64399l0,181.77028l-44.77053,19.89119c-4.17945,1.86004 -6.06214,6.75116 -4.20533,10.9306c1.84387,4.15357 6.72205,6.07508 10.93061,4.20533l46.37826,-20.60609l150.70587,64.81698c1.99268,0.85723 4.42853,0.90899 6.54414,0l150.70264,-64.81698l46.37826,20.60609c4.22473,1.87622 9.09321,-0.06793 10.93061,-4.20533c1.85681,-4.17944 -0.02588,-9.07056 -4.20533,-10.93061l0,0.00001zm-215.36112,-255.33435l0,20.54786c0,4.57086 3.70715,8.28125 8.28125,8.28125c4.57086,0 8.28125,-3.71039 8.28125,-8.28125l0,-20.54786l124.78814,53.67288l-133.0694,57.23446l-133.0694,-57.23446l124.78814,-53.67288zm-93.91783,217.79374c-1.86004,-4.17944 -6.7544,-6.0589 -10.9306,-4.20532l-32.62038,14.49543l0,-161.83706l137.46881,59.12686l0,169.1252l-125.07605,-53.79579l26.9529,-11.97547c4.17944,-1.86004 6.06213,-6.7544 4.20532,-10.93385zm110.48034,76.70511l0,-169.1252l137.46557,-59.12686l0,161.83706l-32.61713,-14.49219c-4.18269,-1.85681 -9.0738,0.02264 -10.93061,4.20532c-1.85681,4.17945 0.02588,9.07056 4.20532,10.93061l26.9529,11.97547l-125.07605,53.79579zm0,0"/>
 </g>
</svg>