<?xml version="1.0" encoding="UTF-8"?>
<svg xmlns="http://www.w3.org/2000/svg" xmlns:xlink="http://www.w3.org/1999/xlink" width="16pt" height="16pt" viewBox="0 0 16 16" version="1.1">
<g id="surface1">
<path style=" stroke:none;fill-rule:nonzero;fill:rgb(100%,100%,100%);fill-opacity:1;" d="M 15 12.773438 L 13.488281 12.101562 L 13.488281 5.957031 C 13.488281 5.84375 13.421875 5.742188 13.316406 5.699219 L 8.28125 3.53125 L 8.28125 1.476562 C 8.28125 1.320312 8.15625 1.195312 8 1.195312 C 7.84375 1.195312 7.71875 1.320312 7.71875 1.476562 L 7.71875 3.53125 L 2.683594 5.699219 C 2.582031 5.738281 2.511719 5.839844 2.511719 5.957031 L 2.511719 12.101562 L 1 12.773438 C 0.855469 12.835938 0.792969 13.003906 0.855469 13.144531 C 0.917969 13.285156 1.082031 13.351562 1.226562 13.285156 L 2.792969 12.589844 L 7.890625 14.78125 C 7.957031 14.808594 8.039062 14.8125 8.109375 14.78125 L 13.207031 12.589844 L 14.773438 13.285156 C 14.917969 13.351562 15.082031 13.285156 15.144531 13.144531 C 15.207031 13.003906 15.144531 12.835938 15 12.773438 Z M 7.71875 4.140625 L 7.71875 4.835938 C 7.71875 4.992188 7.84375 5.117188 8 5.117188 C 8.15625 5.117188 8.28125 4.992188 8.28125 4.835938 L 8.28125 4.140625 L 12.5 5.957031 L 8 7.890625 L 3.5 5.957031 Z M 4.542969 11.503906 C 4.480469 11.363281 4.316406 11.300781 4.175781 11.363281 L 3.070312 11.851562 L 3.070312 6.382812 L 7.71875 8.378906 L 7.71875 14.097656 L 3.492188 12.28125 L 4.402344 11.875 C 4.542969 11.8125 4.605469 11.648438 4.542969 11.503906 Z M 8.28125 14.097656 L 8.28125 8.378906 L 12.929688 6.382812 L 12.929688 11.851562 L 11.824219 11.363281 C 11.683594 11.300781 11.519531 11.363281 11.457031 11.503906 C 11.394531 11.648438 11.457031 11.8125 11.597656 11.875 L 12.507812 12.28125 Z M 8.28125 14.097656 "/>
<path style=" stroke:none;fill-rule:nonzero;fill:rgb(74.901961%,0%,0%);fill-opacity:1;" d="M 8.464844 2.515625 L 8.464844 0.753906 L 7.535156 0.753906 L 7.535156 2.515625 C 4.867188 2.738281 2.738281 4.867188 2.515625 7.535156 L 0.753906 7.535156 L 0.753906 8.464844 L 2.515625 8.464844 C 2.738281 11.132812 4.867188 13.261719 7.535156 13.484375 L 7.535156 15.246094 L 8.464844 15.246094 L 8.464844 13.484375 C 11.132812 13.261719 13.261719 11.132812 13.484375 8.464844 L 15.246094 8.464844 L 15.246094 7.535156 L 13.484375 7.535156 C 13.261719 4.867188 11.128906 2.738281 8.464844 2.515625 Z M 8.464844 12.554688 L 8.464844 11.152344 L 7.535156 11.152344 L 7.535156 12.554688 C 5.378906 12.335938 3.664062 10.621094 3.445312 8.464844 L 4.847656 8.464844 L 4.847656 7.535156 L 3.445312 7.535156 C 3.660156 5.378906 5.378906 3.660156 7.535156 3.445312 L 7.535156 4.847656 L 8.464844 4.847656 L 8.464844 3.445312 C 10.621094 3.660156 12.335938 5.378906 12.554688 7.535156 L 11.152344 7.535156 L 11.152344 8.464844 L 12.554688 8.464844 C 12.335938 10.621094 10.621094 12.335938 8.464844 12.554688 Z M 8.464844 12.554688 "/>
</g>
</svg>
