<svg width="16" height="16" xmlns="http://www.w3.org/2000/svg" version="1.1" xml:space="preserve">
 <g>
  <title>Layer 1</title>
  <g id="svg_1" stroke="null">
   <g id="svg_2" stroke="null">
    <path fill="#ffffff" d="m14.7586,4.56192l-2.79745,-3.54791c-0.07016,-0.08847 -0.17389,-0.14033 -0.28676,-0.14033l-7.34597,0c-0.11287,0 -0.2166,0.05186 -0.28676,0.14033l-2.79745,3.54791c-0.05186,0.06406 -0.07932,0.14338 -0.07932,0.22575l0,9.97258c0,0.20134 0.16474,0.36608 0.36608,0.36608l12.93781,0c0.20134,0 0.36608,-0.16474 0.36608,-0.36608l0,-9.97258c0.00305,-0.08237 -0.02441,-0.16168 -0.07627,-0.22575l0.00001,0zm-0.99451,-0.07932l-5.3966,0l0,-2.87676l3.12997,0l2.26663,2.87676zm-9.25873,-2.87676l3.12997,0l0,2.87676l-5.3966,0l2.26663,-2.87676zm-2.60831,12.78833l0,-9.17941l12.20565,0l0,9.17941l-12.20565,0l0,0z" id="svg_3" stroke="null"/>
    <path fill="#ffffff" d="m9.73723,8.16168l-2.45272,2.45272l-1.01892,-1.01892c-0.14338,-0.14338 -0.37523,-0.14338 -0.51861,0s-0.14338,0.37523 0,0.51861l1.27822,1.27822c0.07016,0.07016 0.16474,0.10677 0.25931,0.10677s0.18609,-0.03661 0.25931,-0.10677l2.70898,-2.70898c0.14338,-0.14338 0.14338,-0.37523 0,-0.51861c-0.14033,-0.14643 -0.37218,-0.14643 -0.51556,-0.00305l-0.00001,0.00001z" id="svg_4" stroke="null"/>
   </g>
  </g>
  <g id="svg_5"/>
  <g id="svg_6"/>
  <g id="svg_7"/>
  <g id="svg_8"/>
  <g id="svg_9"/>
  <g id="svg_10"/>
  <g id="svg_11"/>
  <g id="svg_12"/>
  <g id="svg_13"/>
  <g id="svg_14"/>
  <g id="svg_15"/>
  <g id="svg_16"/>
  <g id="svg_17"/>
  <g id="svg_18"/>
  <g id="svg_19"/>
 </g>

</svg>