<?xml version="1.0" encoding="UTF-8"?>
<svg xmlns="http://www.w3.org/2000/svg" xmlns:xlink="http://www.w3.org/1999/xlink" width="16pt" height="16pt" viewBox="0 0 16 16" version="1.1">
<g id="surface1">
<path style=" stroke:none;fill-rule:nonzero;fill:rgb(100%,100%,100%);fill-opacity:1;" d="M 12 13 L 10 13 C 9.445312 13 9 12.554688 9 12 L 9 4 C 9 3.445312 9.445312 3 10 3 L 12 3 C 12.554688 3 13 3.445312 13 4 L 13 12 C 13 12.554688 12.554688 13 12 13 Z M 6 13 L 4 13 C 3.445312 13 3 12.554688 3 12 L 3 4 C 3 3.445312 3.445312 3 4 3 L 6 3 C 6.554688 3 7 3.445312 7 4 L 7 12 C 7 12.554688 6.554688 13 6 13 Z M 6 13 "/>
</g>
</svg>
