<svg width="1024" height="1024" xmlns="http://www.w3.org/2000/svg" class="icon">

 <g>
  <title>background</title>
  <rect fill="none" id="canvas_background" height="402" width="582" y="-1" x="-1"/>
 </g>
 <g>
  <title>Layer 1</title>
  <path id="svg_1" fill="#ffffff" d="m768,832l-128,0c-35.392,0 -64,-28.608 -64,-64l0,-512c0,-35.392 28.608,-64 64,-64l128,0c35.392,0 64,28.608 64,64l0,512c0,35.392 -28.608,64 -64,64zm-384,0l-128,0c-35.392,0 -64,-28.608 -64,-64l0,-512c0,-35.392 28.608,-64 64,-64l128,0c35.392,0 64,28.608 64,64l0,512c0,35.392 -28.608,64 -64,64z"/>
 </g>
</svg>