<svg width="1024" height="1024" xmlns="http://www.w3.org/2000/svg" class="icon">

 <g>
  <title>background</title>
  <rect fill="none" id="canvas_background" height="1464.85842" width="1464.85842" y="-1" x="-1"/>
 </g>
 <g>
  <title>Layer 1</title>
  <path fill="#7f7f7f" id="svg_1" d="m819.59817,482.94527l-551.76875,-348.89216c-10.61475,-6.72619 -24.06714,-7.13347 -35.03391,-1.06321c-11.03022,6.07127 -17.85976,17.65305 -17.85976,30.20902l0,697.61035c0,12.54982 6.82954,24.13979 17.85976,30.20902c5.17691,2.85809 10.90333,4.27333 16.62259,4.27333c6.4151,0 12.82816,-1.7867 18.41132,-5.31199l551.76977,-348.74787c9.99975,-6.31789 16.07307,-17.31638 16.07307,-29.14683c-0.00102,-11.82123 -6.07332,-22.82893 -16.07409,-29.13966l0,0zm0,0"/>
 </g>
</svg>