<svg width="1024" height="1024" xmlns="http://www.w3.org/2000/svg" class="icon">

 <g>
  <title>background</title>
  <rect fill="none" id="canvas_background" height="402" width="582" y="-1" x="-1"/>
 </g>
 <g>
  <title>Layer 1</title>
  <path fill="#ffffff" id="svg_1" d="m819.598168,482.945267l-551.768748,-348.892155c-10.614755,-6.726192 -24.067138,-7.133468 -35.033911,-1.063215c-11.030218,6.071276 -17.859763,17.653055 -17.859763,30.209022l0,697.610348c0,12.549827 6.829546,24.139793 17.859763,30.209022c5.176906,2.858094 10.903328,4.273327 16.622586,4.273327c6.415107,0 12.828167,-1.786693 18.411325,-5.311982l551.769772,-348.747869c9.999748,-6.317892 16.07307,-17.316387 16.07307,-29.14683c-0.001023,-11.821234 -6.073322,-22.828939 -16.074094,-29.139668l0,0zm0,0"/>
 </g>
</svg>