<svg width="1024" height="1024" xmlns="http://www.w3.org/2000/svg" class="icon">

 <g>
  <title>background</title>
  <rect fill="none" id="canvas_background" height="402" width="582" y="-1" x="-1"/>
 </g>
 <g>
  <title>Layer 1</title>
  <path fill="#ffffff" id="svg_1" d="m675.04,483.264l-127.04,0l0,-127.264c0,-20.064 -16.288,-36.32 -36.32,-36.32c-20.064,0 -36.32,16.192 -36.32,36.32l0,127.232l-127.072,0c-20.064,0 -36.352,16.32 -36.352,36.352c0,20.064 16.224,36.352 36.352,36.352l127.072,0l0,127.232c0,20 16.256,36.384 36.32,36.384c20.032,0 36.32,-16.256 36.32,-36.384l0,-127.136l127.04,0c19.968,0 36.352,-16.256 36.352,-36.384c-0.032,-20.096 -16.256,-36.384 -36.352,-36.384l0,0zm-163.712,-417.824c-250.24,0 -453.952,203.616 -453.952,453.952c0,250.336 203.712,453.952 453.952,453.952c250.336,0 453.984,-203.584 453.984,-453.952c0,-250.336 -203.616,-453.952 -453.984,-453.952l0,0zm0,851.136c-219.04,0 -397.184,-178.176 -397.184,-397.152c0,-219.104 178.144,-397.216 397.184,-397.216s397.216,178.112 397.216,397.216c0.032,218.944 -178.176,397.152 -397.216,397.152l0,0zm0,0"/>
 </g>
</svg>