<?xml version="1.0" encoding="UTF-8"?>
<svg xmlns="http://www.w3.org/2000/svg" xmlns:xlink="http://www.w3.org/1999/xlink" width="16pt" height="16pt" viewBox="0 0 16 16" version="1.1">
<g id="surface1">
<path style=" stroke:none;fill-rule:nonzero;fill:rgb(100%,100%,100%);fill-opacity:1;" d="M 10.546875 7.550781 L 8.5625 7.550781 L 8.5625 5.5625 C 8.5625 5.25 8.308594 4.996094 7.996094 4.996094 C 7.679688 4.996094 7.425781 5.246094 7.425781 5.5625 L 7.425781 7.550781 L 5.441406 7.550781 C 5.128906 7.550781 4.875 7.804688 4.875 8.117188 C 4.875 8.433594 5.128906 8.6875 5.441406 8.6875 L 7.425781 8.6875 L 7.425781 10.675781 C 7.425781 10.988281 7.679688 11.242188 7.996094 11.242188 C 8.308594 11.242188 8.5625 10.988281 8.5625 10.675781 L 8.5625 8.6875 L 10.546875 8.6875 C 10.859375 8.6875 11.117188 8.433594 11.117188 8.121094 C 11.113281 7.804688 10.863281 7.550781 10.546875 7.550781 Z M 7.988281 1.023438 C 4.078125 1.023438 0.898438 4.203125 0.898438 8.117188 C 0.898438 12.027344 4.078125 15.207031 7.988281 15.207031 C 11.902344 15.207031 15.082031 12.027344 15.082031 8.117188 C 15.082031 4.203125 11.902344 1.023438 7.988281 1.023438 Z M 7.988281 14.320312 C 4.566406 14.320312 1.785156 11.539062 1.785156 8.117188 C 1.785156 4.691406 4.566406 1.910156 7.988281 1.910156 C 11.410156 1.910156 14.195312 4.691406 14.195312 8.117188 C 14.195312 11.535156 11.410156 14.320312 7.988281 14.320312 Z M 7.988281 14.320312 "/>
</g>
</svg>
