<svg width="1024" height="1024" xmlns="http://www.w3.org/2000/svg" class="icon">

 <g>
  <title>background</title>
  <rect fill="none" id="canvas_background" height="402" width="582" y="-1" x="-1"/>
 </g>
 <g>
  <title>Layer 1</title>
  <path id="svg_1" fill="#ffffff" d="m721.594,118.177c12.379,12.379 12.379,32.283 0,44.661l-349.647,349.647l349.647,349.647c12.379,12.379 12.379,32.283 0,44.661c-5.705,5.735 -13.603,9.284 -22.331,9.284c-8.726,0 -16.625,-3.549 -22.33,-9.283l-371.979,-371.979c-5.735,-5.705 -9.284,-13.603 -9.284,-22.331c0,-8.726 3.549,-16.625 9.283,-22.33l371.979,-371.979c12.379,-12.379 32.404,-12.379 44.661,0l0.001,0.002z"/>
 </g>
</svg>