<svg width="1280" height="1280" xmlns="http://www.w3.org/2000/svg" preserveAspectRatio="xMidYMid meet">
 <metadata>Created by potrace 1.16, written by Peter Selinger 2001-2019</metadata>

 <g>
  <title>background</title>
  <rect fill="none" id="canvas_background" height="402" width="582" y="-1" x="-1"/>
 </g>
 <g>
  <title>Layer 1</title>
  <g id="svg_1" fill="#000000" transform="translate(0,1280) scale(0.10000000149011612,-0.10000000149011612) ">
   <path fill="#ffffff" id="svg_2" d="m6410,9589c-1130,-95 -2141,-510 -3020,-1238c-63,-52 -214,-194 -336,-315c-287,-287 -467,-504 -670,-808l-91,-136l-787,495c-433,272 -789,493 -791,491c-3,-2 802,-3502 840,-3656c3,-12 12,-22 20,-22c13,0 889,202 2980,686c369,86 672,158 674,160c2,2 2,6 0,8c-2,2 -454,286 -1004,630c-550,345 -1002,631 -1004,637c-4,14 110,185 222,332c635,835 1562,1406 2597,1601c557,105 1147,96 1703,-25c1630,-356 2920,-1660 3255,-3289c30,-143 30,-145 56,-142c47,5 1028,181 1032,184c7,8 -65,342 -106,491c-346,1263 -1132,2343 -2227,3061c-496,325 -1028,560 -1598,704c-255,65 -485,107 -755,138c-169,19 -820,28 -990,13z"/>
   <path fill="#ffffff" id="svg_3" d="m6692,5329c-111,-14 -222,-47 -326,-97c-292,-140 -493,-387 -578,-712c-26,-98 -35,-299 -18,-411c62,-425 367,-764 793,-881c72,-20 105,-23 272,-22c177,0 196,2 280,27c377,114 653,394 752,765c24,87 27,115 27,267c0,152 -3,181 -27,270c-139,524 -641,864 -1175,794z"/>
  </g>
 </g>
</svg>