<svg width="1024" height="1024" xmlns="http://www.w3.org/2000/svg" class="icon">

 <g>
  <title>background</title>
  <rect fill="none" id="canvas_background" height="602" width="802" y="-1" x="-1"/>
 </g>
 <g>
  <title>Layer 1</title>
  <path id="svg_1" fill="#ffffff" d="m808.13733,63.04574l-596.8289,0c-40.52333,0 -73.49551,32.94453 -73.49551,73.46787l0,749.34685c0,40.52334 32.97115,73.49552 73.49551,73.49552l596.8289,0c40.52333,0 73.4822,-32.97218 73.4822,-73.49552l0,-749.34685c0,-40.52334 -32.95887,-73.46787 -73.4822,-73.46787zm17.44393,822.81472c0,9.63169 -7.82555,17.45725 -17.44393,17.45725l-596.8289,0c-9.63169,0 -17.45725,-7.82556 -17.45724,-17.45725l0,-749.34685c0,-9.60405 7.82555,-17.4296 17.45724,-17.4296l596.8289,0c9.61838,0 17.44393,7.82555 17.44393,17.4296l0,749.34685z"/>
  <path id="svg_2" fill="#ffffff" d="m718.53917,266.89516l-269.97091,0c-15.47296,0 -28.01863,12.53236 -28.01863,28.01965s12.54567,28.01965 28.01863,28.01965l269.97091,0c15.47296,0 28.01862,-12.53236 28.01862,-28.01965s-12.54566,-28.01965 -28.01862,-28.01965zm0,218.95481l-269.97091,0c-15.47296,0 -28.01863,12.53235 -28.01863,28.01862c0,15.48729 12.54567,28.01965 28.01863,28.01965l269.97091,0c15.47296,0 28.01862,-12.53236 28.01862,-28.01965s-12.54566,-28.01862 -28.01862,-28.01862zm0,213.59067l-269.97091,0c-15.47296,0 -28.01863,12.53236 -28.01863,28.01964s12.54567,28.01863 28.01863,28.01863l269.97091,0c15.47296,0 28.01862,-12.53236 28.01862,-28.01863c0,-15.48729 -12.54566,-28.01964 -28.01862,-28.01964z"/>
  <path id="svg_3" fill="#ffffff" d="m321.93309,294.92198m-46.17722,0a46.17723,46.17723 0 1 0 92.35445,0a46.17723,46.17723 0 1 0 -92.35445,0z"/>
  <path id="svg_4" fill="#ffffff" d="m321.93309,513.8819m-46.17722,0a46.17723,46.17723 0 1 0 92.35445,0a46.17723,46.17723 0 1 0 -92.35445,0z"/>
  <path id="svg_5" fill="#ffffff" d="m321.93309,727.46848m-46.17722,0a46.17723,46.17723 0 1 0 92.35445,0a46.17723,46.17723 0 1 0 -92.35445,0z"/>
 </g>
</svg>