<svg width="1024" height="1024" xmlns="http://www.w3.org/2000/svg" class="icon">

 <g>
  <title>background</title>
  <rect fill="none" id="canvas_background" height="602" width="802" y="-1" x="-1"/>
 </g>
 <g>
  <title>Layer 1</title>
  <path fill="#ffffff" stroke="null" id="svg_1" d="m513.64536,104.55939c224.57476,0.43355 406.22886,182.52119 405.79532,406.22886c-0.43355,224.14122 -182.95473,406.22886 -406.22886,405.79532c-224.14122,0 -405.36177,-181.6541 -405.79532,-406.22886c-0.43354,-223.70768 182.52119,-406.22886 406.22886,-405.79532zm37.71816,527.18708c0.86709,-1.73416 1.73417,-2.60125 2.16771,-3.46833c0.43355,-2.60126 0.86709,-5.2025 1.30063,-8.2373c3.46833,-43.35421 23.41126,-78.03756 52.89212,-108.3855c11.27209,-11.70563 22.11065,-23.84481 32.94919,-35.55045c32.9492,-35.55044 40.75295,-77.60401 30.78149,-123.55947c-14.30689,-63.73068 -67.63256,-113.15447 -133.53094,-123.99301c-61.99651,-10.40501 -127.89489,19.94293 -161.71117,74.56922c-16.04106,25.57898 -25.14544,53.32567 -24.27835,85.84132c20.37647,0 39.88586,0 59.39525,0c6.50314,0 12.57272,0 19.50939,0c0.86709,-4.33542 0.86709,-6.93667 1.30063,-9.53792c5.63604,-35.1169 33.38273,-65.0313 65.46484,-70.23381c35.98399,-6.06959 69.36671,9.97147 87.14194,42.48712c17.34168,30.78148 12.13918,65.46484 -14.30689,93.64507c-19.07585,20.81002 -39.45233,40.31941 -57.66109,61.56296c-30.78148,35.55045 -43.78774,77.17048 -38.58523,125.29364c26.8796,-0.43355 52.45858,-0.43355 77.17047,-0.43355zm-76.30339,84.10716c0,26.8796 0,52.02503 0,77.17047c26.44606,0 51.5915,0 77.17047,0c0,-26.01252 0,-51.15796 0,-77.17047c-26.01252,0 -51.15796,0 -77.17047,0z"/>
 </g>
</svg>