<svg width="1024" height="1024" xmlns="http://www.w3.org/2000/svg" class="icon">

 <g>
  <title>background</title>
  <rect fill="none" id="canvas_background" height="602" width="802" y="-1" x="-1"/>
 </g>
 <g>
  <title>Layer 1</title>
  <path fill="#ffffff" id="svg_1" d="m621.2608,877.2608l320,-320c24.9856,-24.9856 24.9856,-65.51552 0,-90.50112l-320,-320c-24.9856,-24.9856 -65.51552,-24.9856 -90.50112,0s-24.9856,65.51552 0,90.50112l210.7392,210.7392l-613.49888,0c-35.34848,0 -64,28.65152 -64,64s28.65152,64 64,64l613.49888,0l-210.7392,210.7392c-12.4928,12.4928 -18.7392,28.8768 -18.7392,45.2608s6.2464,32.768 18.7392,45.2608c24.9856,24.9856 65.51552,24.9856 90.50112,0z"/>
 </g>
</svg>