<?xml version="1.0" encoding="UTF-8"?>
<svg xmlns="http://www.w3.org/2000/svg" xmlns:xlink="http://www.w3.org/1999/xlink" width="16pt" height="16pt" viewBox="0 0 16 16" version="1.1">
<g id="surface1">
<path style=" stroke:none;fill-rule:nonzero;fill:rgb(17.647059%,17.647059%,18.823529%);fill-opacity:1;" d="M 1 2 L 16 2 L 16 14 L 1 14 Z M 1 2 "/>
<path style=" stroke:none;fill-rule:nonzero;fill:rgb(16.862745%,15.686275%,18.039216%);fill-opacity:1;" d="M 12.078125 7.976562 C 11.960938 7.773438 11.742188 7.652344 11.507812 7.65625 C 11.390625 7.65625 11.277344 7.683594 11.175781 7.738281 C 11.074219 7.796875 10.988281 7.875 10.921875 7.972656 C 10.84375 8.082031 10.785156 8.203125 10.753906 8.332031 C 10.710938 8.480469 10.6875 8.640625 10.691406 8.796875 L 10.691406 9.300781 C 10.691406 9.4375 10.710938 9.566406 10.746094 9.683594 C 10.78125 9.792969 10.832031 9.898438 10.902344 9.988281 C 10.964844 10.074219 11.046875 10.144531 11.136719 10.195312 C 11.34375 10.304688 11.589844 10.296875 11.789062 10.179688 C 11.898438 10.117188 11.988281 10.023438 12.054688 9.914062 C 12.128906 9.796875 12.183594 9.648438 12.222656 9.46875 C 12.261719 9.289062 12.28125 9.082031 12.28125 8.847656 C 12.285156 8.683594 12.265625 8.515625 12.230469 8.355469 C 12.199219 8.222656 12.148438 8.09375 12.078125 7.976562 Z M 7.101562 9.222656 C 7.027344 9.253906 6.960938 9.300781 6.90625 9.355469 C 6.859375 9.410156 6.828125 9.46875 6.808594 9.535156 C 6.789062 9.605469 6.78125 9.683594 6.78125 9.769531 C 6.78125 9.847656 6.796875 9.917969 6.824219 9.988281 C 6.875 10.125 6.988281 10.226562 7.125 10.273438 C 7.316406 10.339844 7.523438 10.328125 7.703125 10.242188 C 7.800781 10.195312 7.890625 10.125 7.960938 10.042969 C 8.03125 9.957031 8.089844 9.855469 8.125 9.746094 C 8.164062 9.636719 8.183594 9.515625 8.183594 9.382812 L 8.183594 9.035156 L 7.421875 9.144531 C 7.292969 9.164062 7.183594 9.191406 7.101562 9.222656 Z M 7.101562 9.222656 "/>
<path style=" stroke:none;fill-rule:nonzero;fill:rgb(16.862745%,15.686275%,18.039216%);fill-opacity:1;" d="M 3 4 L 3 12 L 14 12 L 14 4 Z M 8.960938 10.90625 L 8.175781 10.90625 L 8.175781 10.378906 L 8.164062 10.378906 C 8.042969 10.582031 7.894531 10.734375 7.722656 10.839844 C 7.550781 10.949219 7.351562 11 7.121094 11 C 6.9375 11 6.78125 10.972656 6.640625 10.917969 C 6.371094 10.8125 6.164062 10.59375 6.074219 10.320312 C 6.023438 10.171875 6 10.015625 6 9.859375 C 6 9.695312 6.019531 9.539062 6.066406 9.398438 C 6.152344 9.109375 6.355469 8.867188 6.628906 8.734375 C 6.773438 8.660156 6.949219 8.609375 7.152344 8.585938 L 8.183594 8.429688 C 8.183594 8.15625 8.125 7.953125 8.007812 7.828125 C 7.890625 7.707031 7.726562 7.644531 7.515625 7.644531 C 7.300781 7.644531 7.09375 7.683594 6.886719 7.761719 C 6.691406 7.835938 6.507812 7.941406 6.34375 8.074219 L 6.34375 7.308594 C 6.394531 7.273438 6.464844 7.234375 6.558594 7.195312 C 6.773438 7.105469 7 7.039062 7.230469 7 C 7.355469 6.976562 7.476562 6.964844 7.597656 6.964844 C 7.832031 6.964844 8.035156 7 8.203125 7.066406 C 8.375 7.136719 8.519531 7.234375 8.628906 7.363281 C 8.738281 7.488281 8.824219 7.648438 8.878906 7.832031 C 8.933594 8.019531 8.960938 8.230469 8.960938 8.46875 Z M 12.90625 9.707031 C 12.855469 9.945312 12.761719 10.171875 12.636719 10.378906 C 12.523438 10.558594 12.371094 10.710938 12.191406 10.820312 C 12.015625 10.929688 11.8125 10.980469 11.582031 10.980469 C 11.484375 10.980469 11.386719 10.96875 11.292969 10.9375 C 11.207031 10.910156 11.125 10.871094 11.054688 10.816406 C 10.980469 10.765625 10.917969 10.703125 10.863281 10.632812 C 10.804688 10.558594 10.753906 10.484375 10.710938 10.402344 L 10.699219 10.402344 L 10.699219 10.886719 L 10 10.886719 L 10 5 L 10.695312 5 L 10.695312 7.65625 L 10.710938 7.65625 C 10.765625 7.550781 10.824219 7.453125 10.890625 7.367188 C 10.957031 7.28125 11.03125 7.207031 11.117188 7.144531 C 11.292969 7.011719 11.507812 6.941406 11.730469 6.945312 C 11.953125 6.945312 12.144531 6.996094 12.304688 7.097656 C 12.464844 7.199219 12.59375 7.339844 12.699219 7.515625 C 12.800781 7.691406 12.875 7.894531 12.925781 8.128906 C 12.976562 8.359375 13 8.605469 13 8.863281 C 13 9.167969 12.96875 9.445312 12.90625 9.707031 Z M 12.90625 9.707031 "/>
<path style=" stroke:none;fill-rule:nonzero;fill:rgb(77.254902%,77.254902%,77.254902%);fill-opacity:1;" d="M 2 3 L 2 13 L 15 13 L 15 3 Z M 14 12 L 3 12 L 3 4 L 14 4 Z M 14 12 "/>
<path style=" stroke:none;fill-rule:nonzero;fill:rgb(77.254902%,77.254902%,77.254902%);fill-opacity:1;" d="M 8.628906 7.359375 C 8.515625 7.230469 8.367188 7.128906 8.207031 7.066406 C 8.011719 6.996094 7.804688 6.960938 7.597656 6.964844 C 7.476562 6.964844 7.355469 6.976562 7.230469 6.996094 C 7 7.039062 6.773438 7.105469 6.558594 7.191406 C 6.484375 7.222656 6.410156 7.261719 6.34375 7.308594 L 6.34375 8.074219 C 6.503906 7.941406 6.683594 7.839844 6.886719 7.761719 C 7.09375 7.683594 7.300781 7.644531 7.515625 7.644531 C 7.726562 7.644531 7.890625 7.707031 8.007812 7.832031 C 8.125 7.957031 8.183594 8.15625 8.183594 8.429688 L 7.152344 8.585938 C 6.96875 8.605469 6.792969 8.65625 6.628906 8.738281 C 6.355469 8.871094 6.152344 9.109375 6.066406 9.398438 C 6.019531 9.546875 6 9.703125 6 9.859375 C 6 10.027344 6.023438 10.179688 6.074219 10.320312 C 6.164062 10.59375 6.371094 10.816406 6.640625 10.914062 C 6.78125 10.972656 6.941406 11 7.121094 11 C 7.351562 11 7.550781 10.945312 7.726562 10.839844 C 7.90625 10.722656 8.058594 10.566406 8.164062 10.378906 L 8.179688 10.378906 L 8.179688 10.90625 L 8.964844 10.90625 L 8.964844 8.46875 C 8.964844 8.230469 8.9375 8.019531 8.878906 7.832031 C 8.832031 7.660156 8.746094 7.5 8.628906 7.359375 Z M 8.183594 9.382812 C 8.183594 9.511719 8.160156 9.632812 8.125 9.746094 C 8.089844 9.855469 8.03125 9.953125 7.960938 10.042969 C 7.8125 10.21875 7.59375 10.316406 7.367188 10.3125 C 7.285156 10.3125 7.203125 10.300781 7.125 10.273438 C 7.054688 10.246094 6.992188 10.210938 6.9375 10.160156 C 6.886719 10.109375 6.847656 10.050781 6.820312 9.988281 C 6.792969 9.917969 6.78125 9.84375 6.78125 9.769531 C 6.78125 9.683594 6.792969 9.605469 6.808594 9.535156 C 6.824219 9.46875 6.859375 9.410156 6.90625 9.355469 C 6.960938 9.300781 7.027344 9.253906 7.101562 9.222656 C 7.183594 9.191406 7.289062 9.164062 7.421875 9.144531 L 8.183594 9.035156 Z M 12.695312 7.515625 C 12.601562 7.347656 12.464844 7.203125 12.304688 7.101562 C 12.132812 6.992188 11.933594 6.941406 11.730469 6.945312 C 11.511719 6.945312 11.292969 7.015625 11.117188 7.144531 C 11.03125 7.207031 10.957031 7.285156 10.890625 7.367188 C 10.824219 7.460938 10.761719 7.554688 10.710938 7.65625 L 10.695312 7.65625 L 10.695312 5 L 10 5 L 10 10.886719 L 10.695312 10.886719 L 10.695312 10.402344 L 10.710938 10.402344 C 10.753906 10.484375 10.804688 10.5625 10.859375 10.632812 C 10.917969 10.703125 10.980469 10.765625 11.050781 10.816406 C 11.125 10.871094 11.203125 10.910156 11.289062 10.9375 C 11.382812 10.96875 11.480469 10.984375 11.582031 10.980469 C 11.8125 10.980469 12.015625 10.929688 12.191406 10.820312 C 12.371094 10.710938 12.523438 10.558594 12.632812 10.378906 C 12.753906 10.191406 12.84375 9.96875 12.90625 9.707031 C 12.972656 9.429688 13.003906 9.144531 13 8.863281 C 13 8.617188 12.976562 8.371094 12.925781 8.128906 C 12.882812 7.914062 12.804688 7.707031 12.695312 7.515625 Z M 12.222656 9.46875 C 12.183594 9.648438 12.128906 9.796875 12.054688 9.914062 C 11.988281 10.023438 11.898438 10.117188 11.789062 10.179688 C 11.589844 10.296875 11.34375 10.304688 11.136719 10.195312 C 11.046875 10.144531 10.964844 10.074219 10.902344 9.988281 C 10.832031 9.898438 10.78125 9.792969 10.746094 9.683594 C 10.710938 9.558594 10.691406 9.429688 10.691406 9.300781 L 10.691406 8.796875 C 10.691406 8.625 10.710938 8.46875 10.753906 8.328125 C 10.789062 8.191406 10.847656 8.070312 10.921875 7.96875 C 10.988281 7.875 11.074219 7.792969 11.175781 7.738281 C 11.277344 7.683594 11.390625 7.65625 11.507812 7.65625 C 11.742188 7.652344 11.960938 7.773438 12.078125 7.976562 C 12.144531 8.082031 12.195312 8.207031 12.226562 8.351562 C 12.261719 8.5 12.28125 8.664062 12.28125 8.847656 C 12.28125 9.082031 12.261719 9.289062 12.222656 9.46875 Z M 12.222656 9.46875 "/>
</g>
</svg>
