<?xml version="1.0" encoding="UTF-8"?>
<svg xmlns="http://www.w3.org/2000/svg" xmlns:xlink="http://www.w3.org/1999/xlink" width="16pt" height="16pt" viewBox="0 0 16 16" version="1.1">
<g id="surface1">
<path style=" stroke:none;fill-rule:nonzero;fill:rgb(100%,100%,100%);fill-opacity:1;" d="M 12.234375 13.234375 L 10.742188 13.234375 C 10.464844 13.234375 10.242188 13.011719 10.242188 12.734375 L 10.242188 11.738281 C 10.242188 11.464844 10.464844 11.238281 10.742188 11.238281 L 11.738281 11.238281 L 11.738281 8.746094 L 8.25 8.746094 L 8.25 11.238281 L 8.746094 11.238281 C 9.023438 11.238281 9.246094 11.464844 9.246094 11.738281 L 9.246094 12.734375 C 9.246094 13.011719 9.023438 13.234375 8.746094 13.234375 L 7.25 13.234375 C 6.976562 13.234375 6.753906 13.011719 6.753906 12.734375 L 6.753906 11.738281 C 6.753906 11.464844 6.976562 11.238281 7.25 11.238281 L 7.75 11.238281 L 7.75 8.746094 L 4.261719 8.746094 L 4.261719 11.238281 L 5.257812 11.238281 C 5.535156 11.238281 5.757812 11.464844 5.757812 11.738281 L 5.757812 12.734375 C 5.757812 13.011719 5.535156 13.234375 5.257812 13.234375 L 3.765625 13.234375 C 3.488281 13.234375 3.265625 13.011719 3.265625 12.734375 L 3.265625 11.738281 C 3.265625 11.464844 3.488281 11.238281 3.765625 11.238281 L 3.765625 8.25 L 7.75 8.25 L 7.75 6.257812 L 6.253906 6.257812 C 5.980469 6.257812 5.757812 6.035156 5.757812 5.757812 L 5.757812 3.265625 C 5.757812 2.992188 5.980469 2.765625 6.253906 2.765625 L 9.746094 2.765625 C 10.019531 2.765625 10.242188 2.992188 10.242188 3.265625 L 10.242188 5.757812 C 10.242188 6.03125 10.019531 6.253906 9.746094 6.253906 L 8.25 6.253906 L 8.25 8.25 L 12.234375 8.25 L 12.234375 11.238281 C 12.511719 11.238281 12.734375 11.460938 12.734375 11.738281 L 12.734375 12.734375 C 12.734375 13.011719 12.511719 13.234375 12.234375 13.234375 Z M 3.765625 11.738281 L 3.765625 12.734375 L 5.257812 12.734375 L 5.257812 11.738281 Z M 9.742188 5.757812 L 9.742188 3.265625 L 6.253906 3.265625 L 6.253906 5.757812 Z M 7.25 11.738281 L 7.25 12.734375 L 8.746094 12.734375 L 8.746094 11.738281 Z M 12.234375 11.738281 L 10.742188 11.738281 L 10.742188 12.734375 L 12.234375 12.734375 Z M 12.234375 11.738281 "/>
<path style=" stroke:none;fill-rule:nonzero;fill:rgb(100%,0%,0%);fill-opacity:1;" d="M 2.96875 8 C 2.96875 5.222656 5.222656 2.96875 8 2.96875 C 9.335938 2.96875 10.613281 3.5 11.558594 4.441406 C 12.5 5.386719 13.03125 6.664062 13.03125 8 C 13.03125 10.777344 10.777344 13.03125 8 13.03125 C 5.222656 13.03125 2.96875 10.777344 2.96875 8 Z M 11.09375 10.25 C 12.199219 8.726562 12.035156 6.625 10.703125 5.296875 C 9.375 3.964844 7.273438 3.800781 5.75 4.90625 Z M 4.90625 5.75 C 3.800781 7.273438 3.964844 9.375 5.296875 10.703125 C 6.625 12.035156 8.726562 12.199219 10.25 11.09375 Z M 4.90625 5.75 "/>
</g>
</svg>
