<svg width="1024" height="1024" xmlns="http://www.w3.org/2000/svg" class="icon">
 <g>
  <title>background</title>
  <rect x="-1" y="-1" width="1367.31868" height="1367.31868" id="canvas_background" fill="none"/>
 </g>

 <g>
  <title>Layer 1</title>
  <path d="m783.08801,846.89601l-95.68,0c-17.6,0 -31.904,-14.24 -31.904,-31.872l0,-63.808c0,-17.568 14.304,-31.872 31.904,-31.872l63.776,0l0,-159.488l-223.264,0l0,159.488l31.872,0c17.632,0 31.904,14.304 31.904,31.872l0,63.808c0,17.632 -14.272,31.872 -31.904,31.872l-95.68,0c-17.6,0 -31.872,-14.24 -31.872,-31.872l0,-63.808c0,-17.568 14.272,-31.872 31.872,-31.872l31.936,0l0,-159.488l-223.296,0l0,159.488l63.776,0c17.632,0 31.904,14.304 31.904,31.872l0,63.808c0,17.632 -14.272,31.872 -31.904,31.872l-95.648,0c-17.632,0 -31.904,-14.24 -31.904,-31.872l0,-63.808c0,-17.568 14.272,-31.872 31.904,-31.872l0,-191.36l255.168,0l0,-127.584l-95.68,0c-17.632,0 -31.904,-14.272 -31.904,-31.904l0,-159.488c0,-17.6 14.272,-31.904 31.904,-31.904l223.264,0c17.632,0 31.872,14.272 31.872,31.904l0,159.456c0,17.6 -14.24,31.904 -31.872,31.904l-95.68,0l0,127.584l255.168,0l0,191.36c17.6,0 31.904,14.304 31.904,31.872l0,63.808c-0.032,17.664 -14.368,31.904 -31.936,31.904zm-542.208,-95.68l0,63.808l95.648,0l0,-63.808l-95.648,0zm382.72,-382.72l0,-159.488l-223.264,0l0,159.456l223.264,0l0,0.032zm-159.488,382.72l0,63.808l95.68,0l0,-63.808l-95.68,0zm318.976,0l-95.68,0l0,63.808l95.68,0l0,-63.808z" id="svg_1" fill="#ffffff"/>
 </g>
</svg>