<svg width="1024" height="1024" xmlns="http://www.w3.org/2000/svg" class="icon">

 <g>
  <title>background</title>
  <rect fill="none" id="canvas_background" height="602" width="802" y="-1" x="-1"/>
 </g>
 <g>
  <title>Layer 1</title>
  <path fill="#ffffff" id="svg_1" d="m783.08801,846.89601l-95.68,0c-17.6,0 -31.904,-14.24 -31.904,-31.872l0,-63.808c0,-17.568 14.304,-31.872 31.904,-31.872l63.776,0l0,-159.488l-223.264,0l0,159.488l31.872,0c17.632,0 31.904,14.304 31.904,31.872l0,63.808c0,17.632 -14.272,31.872 -31.904,31.872l-95.68,0c-17.6,0 -31.872,-14.24 -31.872,-31.872l0,-63.808c0,-17.568 14.272,-31.872 31.872,-31.872l31.936,0l0,-159.488l-223.296,0l0,159.488l63.776,0c17.632,0 31.904,14.304 31.904,31.872l0,63.808c0,17.632 -14.272,31.872 -31.904,31.872l-95.648,0c-17.632,0 -31.904,-14.24 -31.904,-31.872l0,-63.808c0,-17.568 14.272,-31.872 31.904,-31.872l0,-191.36l255.168,0l0,-127.584l-95.68,0c-17.632,0 -31.904,-14.272 -31.904,-31.904l0,-159.488c0,-17.6 14.272,-31.904 31.904,-31.904l223.264,0c17.632,0 31.872,14.272 31.872,31.904l0,159.456c0,17.6 -14.24,31.904 -31.872,31.904l-95.68,0l0,127.584l255.168,0l0,191.36c17.6,0 31.904,14.304 31.904,31.872l0,63.808c-0.032,17.664 -14.368,31.904 -31.936,31.904zm-542.208,-95.68l0,63.808l95.648,0l0,-63.808l-95.648,0zm382.72,-382.72l0,-159.488l-223.264,0l0,159.456l223.264,0l0,0.032zm-159.488,382.72l0,63.808l95.68,0l0,-63.808l-95.68,0zm318.976,0l-95.68,0l0,63.808l95.68,0l0,-63.808z"/>
  <ellipse id="svg_4" cy="403" cx="240" stroke-opacity="null" stroke-width="null" stroke="null" fill="#8B4D4B"/>
  <path stroke="null" id="svg_6" d="m189.99972,511.99941l0,0c0,-177.83485 144.16458,-321.9994 321.99995,-321.9994l0,0c85.40089,0 167.30374,33.92496 227.68862,94.31179c60.3873,60.38684 94.31198,142.28913 94.31198,227.68761l0,0c0,177.83703 -144.16356,322.00059 -322.00058,322.00059l0,0c-177.83537,0 -321.99995,-144.16356 -321.99995,-322.00059l-0.00002,0zm519.95715,144.0465l0,0c70.89382,-97.42962 60.35559,-231.95755 -24.84527,-317.15721c-85.20091,-85.20038 -219.72886,-95.7386 -317.15601,-24.84406l342.00128,342.00127zm-395.91248,-288.09005c-70.89431,97.4291 -60.35635,231.95703 24.84404,317.15549c85.20015,85.2009 219.72815,95.73903 317.1553,24.84527l-341.99936,-342.00075l0.00002,0z" stroke-opacity="null" stroke-width="0" fill="#ff0000"/>
 </g>
</svg>