<svg width="512" height="512" xmlns="http://www.w3.org/2000/svg">
 <g>
  <title>background</title>
  <rect x="-1" y="-1" width="514" height="514" id="canvas_background" fill="none"/>
 </g>

 <g>
  <title>Layer 1</title>
  <g id="svg_22" stroke="null">
   <g id="svg_1" stroke="null">
    <g id="svg_2" stroke="null">
     <path d="m419.26564,298.81339l0,105.06445c0,8.33562 -6.78157,15.11719 -15.11719,15.11719l-296.29688,0c-8.33562,0 -15.11719,-6.78157 -15.11719,-15.11719l0,-105.06445l-30.23438,0l0,105.06445c0,25.00685 20.34471,45.35156 45.35156,45.35156l296.29688,0c25.00685,0 45.35156,-20.34471 45.35156,-45.35156l0,-105.06445l-30.23438,0l0.00002,0z" id="svg_3" fill="#ffffff" stroke="null"/>
    </g>
   </g>
   <g id="svg_4" stroke="null">
    <g id="svg_5" stroke="null">
     <polygon points="256.0000114440918,62.770599365234375 162.05878829956055,156.71182250976562 183.4375114440918,178.09054565429688 240.8828239440918,120.6452407836914 240.8828239440918,356.2586975097656 271.1171989440918,356.2586975097656 271.1171989440918,120.6452407836914 328.5625114440918,178.09054565429688 349.94123458862305,156.71182250976562 " id="svg_6" fill="#ffffff" stroke="null"/>
    </g>
   </g>
   <g id="svg_7" stroke="null"/>
   <g id="svg_8" stroke="null"/>
   <g id="svg_9" stroke="null"/>
   <g id="svg_10" stroke="null"/>
   <g id="svg_11" stroke="null"/>
   <g id="svg_12" stroke="null"/>
   <g id="svg_13" stroke="null"/>
   <g id="svg_14" stroke="null"/>
   <g id="svg_15" stroke="null"/>
   <g id="svg_16" stroke="null"/>
   <g id="svg_17" stroke="null"/>
   <g id="svg_18" stroke="null"/>
   <g id="svg_19" stroke="null"/>
   <g id="svg_20" stroke="null"/>
   <g id="svg_21" stroke="null"/>
  </g>
 </g>
</svg>