<?xml version="1.0" encoding="UTF-8"?>
<svg xmlns="http://www.w3.org/2000/svg" xmlns:xlink="http://www.w3.org/1999/xlink" width="16pt" height="16pt" viewBox="0 0 16 16" version="1.1">
<g id="surface1">
<path style=" stroke:none;fill-rule:nonzero;fill:rgb(100%,100%,100%);fill-opacity:1;" d="M 13.101562 9.339844 L 13.101562 12.621094 C 13.101562 12.882812 12.890625 13.09375 12.628906 13.09375 L 3.371094 13.09375 C 3.109375 13.09375 2.898438 12.882812 2.898438 12.621094 L 2.898438 9.339844 L 1.953125 9.339844 L 1.953125 12.621094 C 1.953125 13.402344 2.589844 14.039062 3.371094 14.039062 L 12.628906 14.039062 C 13.410156 14.039062 14.046875 13.402344 14.046875 12.621094 L 14.046875 9.339844 Z M 13.101562 9.339844 "/>
<path style=" stroke:none;fill-rule:nonzero;fill:rgb(100%,100%,100%);fill-opacity:1;" d="M 8 1.960938 L 5.0625 4.898438 L 5.734375 5.566406 L 7.527344 3.769531 L 7.527344 11.132812 L 8.472656 11.132812 L 8.472656 3.769531 L 10.269531 5.566406 L 10.9375 4.898438 Z M 8 1.960938 "/>
</g>
</svg>
