<svg width="16" height="16" xmlns="http://www.w3.org/2000/svg" xml:space="preserve" version="1.1">

 <g>
  <title>Layer 1</title>
  <g stroke="null" id="svg_5">
   <path stroke="null" id="svg_6" fill="#ffffff" d="m14.37652,4.16125c0,0.59899 -0.19015,1.07596 -0.57205,1.42933s-0.84777,0.53085 -1.39764,0.53085c-0.3296,0 -0.65445,-0.0412 -0.97454,-0.1236c-0.31851,-0.0824 -0.59582,-0.1648 -0.83034,-0.2472c-0.10934,0.07606 -0.27097,0.24086 -0.48331,0.49599c-0.21392,0.25512 -0.4532,0.56413 -0.72259,0.92859c0.24562,1.05377 0.44528,1.80172 0.5974,2.24541c0.15054,0.44211 0.29474,0.89214 0.43102,1.34693c0.11726,0.36129 0.28999,0.64494 0.515,0.84936c0.22819,0.20442 0.58473,0.30583 1.07437,0.30583c0.17906,0 0.40249,-0.03328 0.6703,-0.103c0.26939,-0.06814 0.48965,-0.13786 0.66079,-0.206l-0.22819,0.93334c-0.68139,0.29157 -1.27562,0.50233 -1.7827,0.63226c-0.50866,0.13311 -0.96187,0.19808 -1.36119,0.19808c-0.28999,0 -0.57363,-0.02852 -0.85728,-0.0824c-0.28206,-0.05546 -0.54036,-0.15529 -0.77171,-0.29949c-0.25354,-0.15212 -0.46905,-0.34069 -0.64494,-0.56571c-0.17431,-0.22819 -0.32485,-0.54511 -0.44845,-0.95077c-0.08399,-0.25354 -0.16005,-0.54353 -0.22819,-0.86679c-0.06972,-0.32326 -0.13945,-0.61008 -0.20917,-0.85728c-0.19966,0.29791 -0.34386,0.51659 -0.4326,0.66079c-0.09032,0.14579 -0.22026,0.34862 -0.3914,0.61008c-0.54353,0.83193 -1.01574,1.42458 -1.41507,1.77953s-0.87788,0.53085 -1.43408,0.53085c-0.41993,0 -0.77647,-0.14103 -1.07279,-0.42309s-0.44369,-0.6497 -0.44369,-1.1029c0,-0.61325 0.19015,-1.09497 0.57205,-1.45152c0.38348,-0.35337 0.84936,-0.53085 1.40239,-0.53085c0.3296,0 0.64653,0.03962 0.95077,0.11885s0.58948,0.16639 0.85728,0.26305c0.103,-0.08399 0.26463,-0.24403 0.48173,-0.48648c0.21709,-0.23928 0.45162,-0.53877 0.70674,-0.8969c-0.22977,-0.92067 -0.41517,-1.61632 -0.56096,-2.08378c-0.14737,-0.46746 -0.29474,-0.93176 -0.44686,-1.39288c-0.1236,-0.36763 -0.30266,-0.65286 -0.53719,-0.85253c-0.23294,-0.20283 -0.58473,-0.30266 -1.05219,-0.30266c-0.20759,0 -0.43736,0.03645 -0.69248,0.10775c-0.25512,0.07289 -0.46746,0.13945 -0.6386,0.20125l0.2266,-0.93334c0.61959,-0.27731 1.20431,-0.48648 1.75735,-0.62434c0.55462,-0.13945 1.01733,-0.20759 1.38813,-0.20759c0.33752,0 0.62593,0.02535 0.86679,0.07289c0.23928,0.04754 0.4944,0.15054 0.76062,0.309c0.2472,0.15054 0.46271,0.34228 0.64494,0.57205s0.33277,0.54511 0.44845,0.94444c0.08557,0.27572 0.16163,0.56096 0.23136,0.8557c0.06972,0.29791 0.12835,0.55145 0.17748,0.76379c0.1442,-0.22026 0.29474,-0.44686 0.44845,-0.68139s0.28682,-0.44053 0.39616,-0.61959c0.53085,-0.83193 1.00465,-1.42933 1.42458,-1.79062c0.41834,-0.36288 0.89214,-0.54194 1.42141,-0.54194c0.4326,0 0.7939,0.14262 1.08388,0.42785c0.28999,0.28682 0.43419,0.65762 0.43419,1.11082z"/>
  </g>
  <g id="svg_7"/>
  <g id="svg_8"/>
  <g id="svg_9"/>
  <g id="svg_10"/>
  <g id="svg_11"/>
  <g id="svg_12"/>
  <g id="svg_13"/>
  <g id="svg_14"/>
  <g id="svg_15"/>
  <g id="svg_16"/>
  <g id="svg_17"/>
  <g id="svg_18"/>
  <g id="svg_19"/>
  <g id="svg_20"/>
  <g id="svg_21"/>
 </g>
</svg>