<?xml version="1.0" encoding="UTF-8"?>
<svg xmlns="http://www.w3.org/2000/svg" xmlns:xlink="http://www.w3.org/1999/xlink" width="16pt" height="16pt" viewBox="0 0 16 16" version="1.1">
<g id="surface1">
<path style=" stroke:none;fill-rule:nonzero;fill:rgb(100%,38.431373%,26.27451%);fill-opacity:1;" d="M 8 0.257812 C 3.722656 0.257812 0.257812 3.722656 0.257812 8 C 0.257812 12.277344 3.722656 15.742188 8 15.742188 C 12.277344 15.742188 15.742188 12.277344 15.742188 8 C 15.742188 3.722656 12.277344 0.257812 8 0.257812 Z M 11.46875 11.46875 L 8 8 L 4.53125 11.46875 L 8 8 L 4.53125 4.53125 L 8 8 L 11.46875 4.53125 L 8 8 Z M 11.46875 11.46875 "/>
<path style=" stroke:none;fill-rule:nonzero;fill:rgb(13.72549%,12.156863%,12.54902%);fill-opacity:1;" d="M 8 0 C 3.582031 0 0 3.582031 0 8 C 0 12.417969 3.582031 16 8 16 C 12.417969 16 16 12.417969 16 8 C 15.996094 3.582031 12.417969 0.00390625 8 0 Z M 8 15.484375 C 3.867188 15.484375 0.515625 12.132812 0.515625 8 C 0.515625 3.867188 3.867188 0.515625 8 0.515625 C 12.132812 0.515625 15.484375 3.867188 15.484375 8 C 15.480469 12.132812 12.132812 15.480469 8 15.484375 Z M 8 15.484375 "/>
<path style=" stroke:none;fill-rule:nonzero;fill:rgb(13.72549%,12.156863%,12.54902%);fill-opacity:1;" d="M 11.648438 4.351562 C 11.546875 4.25 11.386719 4.25 11.285156 4.351562 L 8 7.636719 L 4.714844 4.351562 C 4.652344 4.285156 4.554688 4.257812 4.464844 4.28125 C 4.375 4.304688 4.304688 4.375 4.28125 4.464844 C 4.257812 4.554688 4.285156 4.652344 4.351562 4.714844 L 7.636719 8 L 4.351562 11.285156 C 4.285156 11.347656 4.257812 11.445312 4.28125 11.535156 C 4.304688 11.625 4.375 11.695312 4.464844 11.71875 C 4.554688 11.742188 4.652344 11.714844 4.714844 11.648438 L 8 8.363281 L 11.285156 11.648438 C 11.386719 11.746094 11.546875 11.746094 11.644531 11.644531 C 11.746094 11.546875 11.746094 11.386719 11.648438 11.285156 L 8.363281 8 L 11.648438 4.714844 C 11.75 4.613281 11.75 4.453125 11.648438 4.351562 Z M 11.648438 4.351562 "/>
</g>
</svg>
