<?xml version="1.0" encoding="UTF-8"?>
<svg xmlns="http://www.w3.org/2000/svg" xmlns:xlink="http://www.w3.org/1999/xlink" width="16pt" height="16pt" viewBox="0 0 16 16" version="1.1">
<g id="surface1">
<path style=" stroke:none;fill-rule:nonzero;fill:rgb(100%,100%,100%);fill-opacity:1;" d="M 5.898438 9.730469 C 5.792969 9.839844 5.792969 10.023438 5.898438 10.132812 C 6.007812 10.242188 6.191406 10.242188 6.300781 10.132812 L 10.273438 6.085938 C 10.382812 5.976562 10.382812 5.796875 10.273438 5.6875 C 10.164062 5.578125 9.980469 5.578125 9.871094 5.6875 Z M 5.898438 9.730469 "/>
<path style=" stroke:none;fill-rule:nonzero;fill:rgb(100%,100%,100%);fill-opacity:1;" d="M 9.871094 10.132812 C 9.980469 10.242188 10.164062 10.242188 10.273438 10.132812 C 10.382812 10.023438 10.382812 9.839844 10.273438 9.730469 L 6.300781 5.6875 C 6.191406 5.578125 6.007812 5.578125 5.898438 5.6875 C 5.792969 5.796875 5.792969 5.976562 5.898438 6.085938 Z M 9.871094 10.132812 "/>
<path style=" stroke:none;fill-rule:nonzero;fill:rgb(100%,100%,100%);fill-opacity:1;" d="M 8 13.722656 C 4.847656 13.722656 2.28125 11.160156 2.28125 8.003906 C 2.28125 4.851562 4.847656 2.277344 8 2.277344 C 11.152344 2.277344 13.71875 4.839844 13.71875 7.996094 C 13.71875 11.148438 11.152344 13.722656 8 13.722656 Z M 8 2.824219 C 5.144531 2.824219 2.828125 5.148438 2.828125 8.003906 C 2.828125 10.859375 5.144531 13.175781 8 13.175781 C 10.855469 13.175781 13.171875 10.859375 13.171875 8.003906 C 13.171875 5.148438 10.855469 2.824219 8 2.824219 Z M 8 2.824219 "/>
</g>
</svg>
